<svg width="161" height="66" viewBox="0 0 161 66" fill="none" xmlns="http://www.w3.org/2000/svg">
<path d="M30.1713 8.64596C28.2965 10.8708 25.2967 12.6206 22.2969 12.3707C21.922 9.3709 23.3969 6.17117 25.1217 4.22133C26.9966 1.94651 30.2713 0.321645 32.9461 0.196655C33.246 3.2964 32.0212 6.37115 30.1713 8.64596ZM32.8961 12.9456C28.5464 12.6956 24.8217 15.4204 22.7719 15.4204C20.6721 15.4204 17.5223 13.0706 14.0726 13.1456C9.59799 13.2206 5.44833 15.7454 3.17352 19.77C-1.52609 27.8444 1.94862 39.7684 6.49825 46.3429C8.72307 49.5926 11.3728 53.1673 14.8726 53.0423C18.1973 52.9173 19.4972 50.8925 23.4969 50.8925C27.5215 50.8925 28.6964 53.0423 32.1961 52.9923C35.8208 52.9173 38.0956 49.7426 40.3205 46.4928C42.8453 42.7932 43.8952 39.2184 43.9452 39.0185C43.8702 38.9435 36.9457 36.2937 36.8708 28.2943C36.7958 21.5949 42.3453 18.4202 42.5953 18.2202C39.4705 13.5706 34.5959 13.0706 32.8961 12.9456ZM57.994 3.89635V52.6173H65.5684V35.9687H76.0425C85.6167 35.9687 92.3162 29.3943 92.3162 19.895C92.3162 10.3958 85.7167 3.89635 76.2925 3.89635H57.994ZM65.5684 10.2708H74.2927C80.8671 10.2708 84.6168 13.7705 84.6168 19.92C84.6168 26.0695 80.8671 29.6192 74.2677 29.6192H65.5684V10.2708ZM106.115 52.9923C110.865 52.9923 115.264 50.5925 117.264 46.7678H117.414V52.6173H124.414V28.3693C124.414 21.3449 118.789 16.7953 110.14 16.7953C102.115 16.7953 96.1659 21.3949 95.9409 27.6944H102.765C103.34 24.6946 106.115 22.7198 109.915 22.7198C114.539 22.7198 117.139 24.8696 117.139 28.8443V31.5441L107.69 32.119C98.9157 32.644 94.166 36.2437 94.166 42.4932C94.191 48.7927 99.0906 52.9923 106.115 52.9923ZM108.165 47.2178C104.14 47.2178 101.565 45.268 101.565 42.3182C101.565 39.2434 104.04 37.4686 108.765 37.1936L117.164 36.6687V39.4184C117.164 43.9681 113.289 47.2178 108.165 47.2178ZM133.788 65.8663C141.162 65.8663 144.637 63.0415 147.662 54.5172L160.936 17.2703H153.236L144.337 46.0429H144.187L135.288 17.2703H127.388L140.187 52.7423L139.487 54.8922C138.337 58.5419 136.463 59.9667 133.113 59.9667C132.513 59.9667 131.363 59.8917 130.888 59.8417V65.6913C131.338 65.7913 133.213 65.8663 133.788 65.8663Z" fill="white"/>
</svg>
