<svg width="30" height="30" viewBox="0 0 30 30" fill="none" xmlns="http://www.w3.org/2000/svg">
<path d="M29.2003 4.54868C29.4503 4.30666 29.6498 4.01712 29.7871 3.69695C29.9244 3.37677 29.9967 3.03238 29.9999 2.68386C30.0031 2.33534 29.937 1.98967 29.8056 1.66703C29.6742 1.34439 29.4801 1.05123 29.2345 0.804666C28.9889 0.558099 28.6969 0.36306 28.3754 0.230929C28.0539 0.0987985 27.7093 0.0322234 27.3619 0.0350865C27.0145 0.0379497 26.6711 0.110194 26.3518 0.247606C26.0325 0.385017 25.7437 0.584843 25.5022 0.835424L15.0148 11.3522L4.53094 0.835424C4.2914 0.577537 4.00252 0.370693 3.68155 0.227231C3.36059 0.0837687 3.0141 0.00662682 2.66277 0.000408492C2.31143 -0.00580984 1.96245 0.0590229 1.63664 0.191038C1.31082 0.323052 1.01486 0.519545 0.766387 0.768794C0.517919 1.01804 0.322041 1.31494 0.190439 1.64178C0.0588381 1.96861 -0.00579165 2.31869 0.000407213 2.67113C0.00660607 3.02357 0.0835064 3.37114 0.22652 3.69312C0.369533 4.01509 0.575729 4.30488 0.832808 4.54518L11.3097 15.0655L0.825831 25.5823C0.363633 26.0799 0.112009 26.738 0.123969 27.418C0.135929 28.098 0.410541 28.7468 0.889949 29.2277C1.36936 29.7086 2.01613 29.9841 2.69401 29.9961C3.37189 30.0081 4.02795 29.7557 4.52397 29.292L15.0148 18.7752L25.4987 29.2955C25.9947 29.7592 26.6508 30.0116 27.3286 29.9996C28.0065 29.9876 28.6533 29.7121 29.1327 29.2312C29.6121 28.7503 29.8867 28.1015 29.8987 27.4215C29.9106 26.7415 29.659 26.0834 29.1968 25.5858L18.7199 15.0655L29.2003 4.54868Z" fill="white"/>
</svg>
