<svg width="458" height="117" viewBox="0 0 458 117" fill="none" xmlns="http://www.w3.org/2000/svg">
<path d="M1.93659 58.3601C1.93659 89.522 27.1962 114.782 58.3581 114.782C71.1616 114.802 83.5882 110.449 93.5801 102.444C106.502 92.1036 114.78 76.1976 114.78 58.3601C114.78 27.1981 89.5201 1.93854 58.3581 1.93854C40.1956 1.93854 24.0379 10.5209 13.7184 23.8476C6.06262 33.7215 1.9168 45.8658 1.93659 58.3601Z" stroke="url(#paint0_linear_143_164)" stroke-width="0.975845"/>
<path d="M114.432 58.3599C114.432 27.3925 89.3284 2.28854 58.3609 2.28854C40.3128 2.28854 24.2558 10.816 14.0005 24.0625C11.1008 33.4253 19.9692 35.9245 24.7639 36.0023C31.0279 29.2715 48.6915 14.7089 69.2479 10.3079C72.3307 9.6625 77.2421 9.75862 72.2323 15.2811C66.4581 22.5795 48.8792 36.9384 24.7662 36.0023C-9.32292 75.8954 18.0147 79.1567 35.9438 75.8015C44.5102 63.2187 67.9846 36.7736 93.3609 31.6699C97.128 31.2214 103.463 31.6242 98.6888 36.8194C93.4593 44.6648 73.5895 63.4407 35.9438 75.8015C16.9345 109.513 46.0504 104.872 62.984 98.3354C61.62 91.7991 67.2683 75.6505 100.794 63.3354C104.717 62.0675 111.166 61.5091 105.594 69.4231C100.522 76.0373 84.8976 91.0781 62.984 98.3354C64.0139 108.261 83.6663 105.027 93.3609 102.169C106.205 91.8929 114.432 76.0876 114.432 58.3599Z" fill="url(#paint1_radial_143_164)"/>
<path d="M2.28815 58.36C2.28815 89.3274 27.3921 114.431 58.3595 114.431C71.0825 114.451 83.4307 110.125 93.3595 102.169C83.6649 105.027 64.0147 108.261 62.9826 98.3354C46.0467 104.872 16.9331 109.515 35.9424 75.8016C18.0133 79.1567 -9.32434 75.8954 24.7625 36.0024C19.9678 35.9245 11.0994 33.4254 13.9991 24.0626C6.39006 33.8747 2.2692 45.9433 2.28815 58.36Z" fill="url(#paint2_radial_143_164)"/>
<path d="M114.432 58.3599C114.432 27.3925 89.3284 2.28854 58.3609 2.28854C40.3128 2.28854 24.2558 10.816 14.0005 24.0625C11.1008 33.4253 19.9692 35.9245 24.7639 36.0023C31.0279 29.2715 48.6915 14.7089 69.2479 10.3079C72.3307 9.6625 77.2421 9.75862 72.2323 15.2811C66.4581 22.5795 48.8792 36.9384 24.7662 36.0023C-9.32292 75.8954 18.0147 79.1567 35.9438 75.8015C44.5102 63.2187 67.9846 36.7736 93.3609 31.6699C97.128 31.2214 103.463 31.6242 98.6888 36.8194C93.4593 44.6648 73.5895 63.4407 35.9438 75.8015C16.9345 109.513 46.0504 104.872 62.984 98.3354C61.62 91.7991 67.2683 75.6505 100.794 63.3354C104.717 62.0675 111.166 61.5091 105.594 69.4231C100.522 76.0373 84.8976 91.0781 62.984 98.3354C64.0139 108.261 83.6663 105.027 93.3609 102.169C106.205 91.8929 114.432 76.0876 114.432 58.3599Z" fill="url(#paint3_radial_143_164)"/>
<path d="M216.712 48.2123C208.887 45.855 202.408 44.7633 195.762 44.7633C186.086 44.7633 182.383 47.0336 182.383 50.6519C182.383 54.1032 185.58 55.87 195.089 57.6368C213.348 61.0011 219.994 65.7981 219.994 75.138C219.994 86.16 211.581 92.3027 194.332 92.3027C186.253 92.3027 177.755 91.2934 170.015 89.1901V78.5C176.913 80.5208 185.58 81.9512 194.078 81.9512C203.754 81.9512 206.784 79.5939 206.784 75.9779C206.784 72.442 203.502 70.6751 193.574 68.9083C175.652 65.7958 169.173 60.4953 169.173 51.2401C169.173 40.2158 178.513 34.4118 195.341 34.4118C202.914 34.4118 209.645 35.4188 216.712 37.5244V48.2123ZM254.6 92.3027C234.744 92.3027 224.816 83.2992 224.816 63.5255C224.816 43.4176 234.744 34.4141 254.6 34.4141C274.544 34.4141 284.387 43.4176 284.387 63.5255C284.387 83.2992 274.544 92.3027 254.6 92.3027ZM237.52 63.3584C237.52 75.9802 242.906 81.9535 254.6 81.9535C266.298 81.9535 271.683 75.9802 271.683 63.3584C271.683 50.7366 266.298 44.7633 254.6 44.7633C242.906 44.7633 237.52 50.7366 237.52 63.3584ZM291.999 35.1694H304.284V76.486C304.284 79.5985 306.387 81.704 309.5 81.704H338.193V91.5451H306.051C297.469 91.5451 291.999 85.5718 291.999 78.6716V35.1717V35.1694ZM330.606 35.1694H344.658L361.15 77.6623C361.402 78.3352 361.823 78.5869 362.244 78.5869C362.663 78.5869 363.001 78.3352 363.253 77.6623L379.66 35.1717H393.712L372.593 85.5718C370.741 89.9454 367.881 92.3004 362.244 92.3004C356.437 92.3004 353.661 89.9454 351.81 85.4871L330.606 35.1717V35.1694ZM395.019 35.1694H409.911L425.897 61.0858L441.886 35.1717H456.693L432.04 72.6983V91.5451H419.757V72.6983L395.019 35.1717V35.1694Z" fill="white"/>
<defs>
<linearGradient id="paint0_linear_143_164" x1="28.5671" y1="6.26862" x2="103.542" y2="111.621" gradientUnits="userSpaceOnUse">
<stop stop-color="#CDA9FF"/>
<stop offset="1" stop-color="#15042C"/>
</linearGradient>
<radialGradient id="paint1_radial_143_164" cx="0" cy="0" r="1" gradientUnits="userSpaceOnUse" gradientTransform="translate(38.2269 35.3573) rotate(54.951) scale(86.9369)">
<stop stop-color="#FF81EB"/>
<stop offset="0.779" stop-color="#7F81CB"/>
<stop offset="0.906" stop-color="#6567B1"/>
<stop offset="1" stop-color="#7F81CB"/>
</radialGradient>
<radialGradient id="paint2_radial_143_164" cx="0" cy="0" r="1" gradientUnits="userSpaceOnUse" gradientTransform="translate(38.2255 35.3573) rotate(54.951) scale(86.9369 86.9369)">
<stop stop-color="#FF81EB"/>
<stop offset="0.779" stop-color="#7F81CB"/>
<stop offset="0.906" stop-color="#6567B1"/>
<stop offset="1" stop-color="#7F81CB"/>
</radialGradient>
<radialGradient id="paint3_radial_143_164" cx="0" cy="0" r="1" gradientUnits="userSpaceOnUse" gradientTransform="translate(93.4774 33.8351) rotate(143.592) scale(103.05 103.05)">
<stop stop-color="#A36EED"/>
<stop offset="1" stop-color="#545BE8"/>
</radialGradient>
</defs>
</svg>
