<svg width="161" height="64" viewBox="0 0 161 64" fill="none" xmlns="http://www.w3.org/2000/svg">
<path d="M76.6046 31.3039V49.9279H70.6963V3.93485H86.3661C88.2366 3.89578 90.0962 4.22752 91.8378 4.91091C93.5793 5.59431 95.1683 6.61583 96.513 7.91653C97.8713 9.13827 98.9522 10.6366 99.6833 12.3108C100.414 13.985 100.779 15.7963 100.752 17.623C100.79 19.4595 100.432 21.2826 99.7002 22.9675C98.9686 24.6524 97.8814 26.1592 96.513 27.3846C93.7729 29.9974 90.3906 31.3026 86.3661 31.3002H76.6046V31.3039ZM76.6046 9.59728V25.6524H86.5129C87.5992 25.6846 88.6802 25.4898 89.6868 25.0803C90.6934 24.6708 91.6035 24.0558 92.3588 23.2744C93.1102 22.5439 93.7075 21.6702 94.1153 20.7048C94.5232 19.7395 94.7333 18.7022 94.7333 17.6542C94.7333 16.6063 94.5232 15.5689 94.1153 14.6036C93.7075 13.6383 93.1102 12.7645 92.3588 12.034C91.613 11.2362 90.7061 10.6061 89.6982 10.1854C88.6904 9.76463 87.6046 9.56293 86.5129 9.59361H76.6046V9.59728Z" fill="white"/>
<path d="M114.366 17.4323C118.733 17.4323 122.181 18.5992 124.708 20.9332C127.235 23.2672 128.497 26.4672 128.495 30.5333V49.9279H122.844V45.5609H122.587C120.14 49.1573 116.886 50.9554 112.825 50.9554C109.358 50.9554 106.458 49.9279 104.124 47.8728C103.004 46.9296 102.109 45.7484 101.503 44.4152C100.897 43.082 100.597 41.6304 100.623 40.1664C100.623 36.9101 101.854 34.3204 104.315 32.3975C106.776 30.4745 110.062 29.5106 114.172 29.5057C117.68 29.5057 120.57 30.1479 122.84 31.4324V30.0819C122.847 29.0838 122.631 28.0967 122.209 27.1922C121.787 26.2877 121.169 25.4885 120.399 24.8525C118.837 23.4429 116.801 22.6737 114.697 22.6983C111.396 22.6983 108.785 24.0904 106.862 26.8745L101.658 23.5974C104.52 19.4873 108.757 17.4323 114.366 17.4323ZM106.722 40.2948C106.718 41.0467 106.894 41.7887 107.235 42.459C107.576 43.1292 108.072 43.7083 108.682 44.148C109.989 45.1759 111.611 45.7204 113.273 45.6893C115.766 45.6852 118.156 44.6928 119.919 42.9297C121.876 41.0875 122.855 38.926 122.855 36.4452C121.012 34.9773 118.444 34.2434 115.148 34.2434C112.748 34.2434 110.747 34.822 109.144 35.9792C107.526 37.1535 106.722 38.581 106.722 40.2948Z" fill="white"/>
<path d="M160.936 18.4598L141.207 63.7996H135.108L142.429 47.9353L129.457 18.4598H135.879L145.255 41.0655H145.383L154.503 18.4598H160.936Z" fill="white"/>
<path d="M52.7291 27.2893C52.7313 25.4887 52.5791 23.6913 52.2741 21.9167H27.3564V32.093H41.6281C41.3361 33.7183 40.7179 35.2676 39.811 36.6476C38.9041 38.0275 37.7271 39.2095 36.351 40.1224V46.7279H44.8685C49.8557 42.1297 52.7291 35.3297 52.7291 27.2893Z" fill="white"/>
<path d="M27.3565 53.1096C34.4869 53.1096 40.4906 50.7683 44.8686 46.7315L36.3511 40.126C33.9804 41.7333 30.9272 42.6508 27.3565 42.6508C20.4647 42.6508 14.6152 38.0049 12.5234 31.7443H3.74902V38.5517C5.94818 42.9278 9.32036 46.6065 13.4891 49.1772C17.6578 51.7479 22.4589 53.1093 27.3565 53.1096Z" fill="white"/>
<path d="M12.5234 31.7442C11.4176 28.4636 11.4176 24.911 12.5234 21.6304V14.823H3.74904C1.89903 18.5043 0.935547 22.5673 0.935547 26.6873C0.935547 30.8073 1.89903 34.8703 3.74904 38.5516L12.5234 31.7442Z" fill="white"/>
<path d="M27.3565 10.724C31.1246 10.6624 34.7655 12.0861 37.4924 14.6873L45.0337 7.14595C40.2517 2.65445 33.9167 0.18854 27.3565 0.265161C22.4589 0.265384 17.6578 1.62684 13.4891 4.19753C9.32036 6.76822 5.94818 10.447 3.74902 14.8231L12.5234 21.6305C14.6152 15.3699 20.4647 10.724 27.3565 10.724Z" fill="white"/>
</svg>
