<svg width="161" height="76" viewBox="0 0 161 76" fill="none" xmlns="http://www.w3.org/2000/svg">
<path fill-rule="evenodd" clip-rule="evenodd" d="M111.008 13.7128C114.169 11.5088 117.435 10.6384 120.993 10.8209C126.218 11.0814 129.227 13.4567 129.891 18.5993C130.882 26.3665 130.655 34.2339 130.127 41.9945C129.882 45.6321 125.937 43.0408 123.764 43.6575C122.086 44.1272 121.342 43.1499 121.365 41.3712C121.429 35.9214 121.393 30.4717 121.385 25.0197C121.38 23.842 121.362 22.6599 121.282 21.4844C121.142 19.3339 119.975 18.2364 117.807 18.0806C113.359 17.7645 111.342 19.5477 111.342 23.8776C111.342 29.6034 111.289 35.327 111.373 41.0461C111.404 43.0341 110.739 43.7933 108.695 43.7421C101.284 43.5573 102.453 44.7105 102.397 37.6579C102.333 29.7548 102.448 21.8496 102.344 13.951C102.313 11.8049 102.983 10.9189 105.133 11.1615C106.03 11.2639 106.959 11.2684 107.856 11.1615C109.635 10.9523 110.857 11.4576 111.008 13.7128Z" fill="#F8FBFC"/>
<path fill-rule="evenodd" clip-rule="evenodd" d="M76.3341 30.6432C76.3341 34.7706 76.2874 38.0409 76.3519 41.309C76.3853 43.0053 75.7954 44.0516 74.0055 43.6799C71.9129 43.2458 69.2592 45.1224 67.7298 42.1438C67.4271 41.5561 66.7971 42.2462 66.3718 42.4755C65.0806 43.1567 63.756 43.691 62.2979 43.9336C54.3681 45.256 48.3997 41.1531 50.5524 30.9014C51.2492 27.6044 53.9273 26.124 56.9683 25.2936C59.3548 24.6436 61.817 24.7081 64.2592 24.5256C65.3144 24.4432 67.1466 25.6587 67.3736 23.2277C67.6475 20.318 66.7236 18.5972 64.4573 18.1853C63.7538 18.0562 63.0103 18.0807 62.2868 18.1052C59.6554 18.1809 57.0195 18.1965 54.3993 18.4079C52.7497 18.546 52.1531 18.0428 52.0996 16.3465C51.9705 12.1412 51.8881 12.1011 56.2092 11.4021C60.439 10.7142 64.6911 10.3758 68.8986 11.5379C73.0994 12.6977 75.4993 15.4827 76.0848 19.8082C76.6124 23.6952 76.1694 27.6044 76.3341 30.6432ZM67.741 32.7781C66.8972 31.9834 68.7227 29.9686 66.5477 29.6592C64.6977 29.3965 62.752 29.3854 60.9065 30.0866C59.1367 30.7545 58.8651 32.2728 58.7872 33.84C58.7293 35.1023 58.6959 36.5115 60.1006 37.1526C62.3446 38.1745 64.5686 37.5867 66.6657 36.6428C68.3576 35.8837 67.3336 34.2274 67.741 32.7781Z" fill="#F8FBFC"/>
<path fill-rule="evenodd" clip-rule="evenodd" d="M160.478 31.6183C160.478 34.8863 160.432 38.1589 160.498 41.4336C160.534 43.0231 159.982 43.9848 158.319 43.6821C156.117 43.2769 153.406 45.0356 151.736 42.1237C151.496 41.7052 150.777 42.3196 150.32 42.5668C148.949 43.3059 147.508 43.8179 145.955 44.0205C137.286 45.138 132.602 39.8374 134.775 30.6988C135.502 27.6333 137.978 26.1997 140.81 25.3715C143.272 24.648 145.823 24.6747 148.366 24.5322C149.545 24.4677 151.567 25.5363 151.536 22.916C151.509 20.7276 151.306 18.6105 148.553 18.1875C147.573 18.0362 146.558 18.0874 145.558 18.103C143.379 18.1497 141.202 18.2566 139.02 18.2944C137.969 18.3078 136.268 19.0758 136.431 17.0833C136.58 15.2668 134.908 12.573 138.038 11.8184C142.475 10.7542 147.032 10.3691 151.56 11.155C157.317 12.1478 160.231 15.7009 160.44 21.8029C160.554 25.0688 160.463 28.3435 160.463 31.616C160.463 31.616 160.472 31.6183 160.478 31.6183ZM151.838 32.9896C151.251 31.9633 152.778 30.0332 150.772 29.6748C148.942 29.3498 146.97 29.3676 145.124 30.0621C143.648 30.6187 143.045 31.7451 143.02 33.2345C142.998 34.568 142.56 36.1397 143.969 36.9745C146.126 38.2501 148.345 37.56 150.529 36.7964C152.593 36.0729 151.413 34.3276 151.838 32.9896Z" fill="#F8FBFC"/>
<path fill-rule="evenodd" clip-rule="evenodd" d="M0.512069 22.2036C0.512069 16.1261 0.494256 10.0441 0.518744 3.96205C0.532101 0.709559 1.12205 0.146331 4.32556 0.108485C9.96677 0.0439254 9.96677 0.043926 9.96677 5.62726C9.96677 16.7917 9.969 27.9539 9.96455 39.1161C9.96455 42.9474 9.34566 43.6153 5.61676 43.5952C-0.242617 43.573 0.558816 44.1518 0.518744 38.5373C0.480899 33.0942 0.512069 27.6489 0.512069 22.2036Z" fill="#F8FBFC"/>
<path fill-rule="evenodd" clip-rule="evenodd" d="M37.2019 21.6426C37.2019 15.2935 37.2553 8.93767 37.1685 2.58407C37.1418 0.736315 37.6471 0.0684535 39.6062 0.0617749C45.9976 0.0439653 45.9976 -0.0361778 45.9976 6.46212C45.9976 17.8959 45.9486 29.332 46.0421 40.7702C46.0577 42.9341 45.5791 43.8112 43.2126 43.7734C37.2019 43.6799 37.1996 43.789 37.1996 37.707C37.2019 32.3529 37.2019 27.0011 37.2019 21.6426Z" fill="#F8FBFC"/>
<path fill-rule="evenodd" clip-rule="evenodd" d="M81.4369 27.1614C81.4369 22.6244 81.5126 18.0851 81.3969 13.5503C81.3523 11.7582 81.9378 11.0525 83.7121 11.1572C85.1569 11.2484 86.6129 11.1683 88.0666 11.1861C88.5118 11.195 89.2687 11.1572 89.36 11.3687C90.698 14.4341 92.2608 11.9965 93.7301 11.598C95.3663 11.1505 97.4834 9.97283 98.5899 11.2863C99.8098 12.7333 98.9616 15.1109 98.9661 17.0833C98.9706 17.7 98.463 17.9894 97.8441 18.0183C97.3031 18.0451 96.7599 18.0629 96.2167 18.1208C91.1454 18.6439 90.2728 19.5967 90.2728 24.6124C90.2705 30.1467 90.2104 35.6855 90.3061 41.2199C90.3395 43.1122 89.7028 43.7956 87.8061 43.74C80.0923 43.4995 81.5905 44.8241 81.4503 37.5021C81.3813 34.0559 81.4369 30.6098 81.4369 27.1614Z" fill="#F8FBFC"/>
<path fill-rule="evenodd" clip-rule="evenodd" d="M14.0342 20.4849C12.585 20.7699 12.4937 19.9595 12.5427 18.7485C12.9033 9.66776 22.0842 0.54031 31.2517 0.137366C32.5697 0.0750321 32.9392 0.422323 32.9303 1.77141C32.8791 10.6762 23.1372 20.3981 14.0342 20.4849Z" fill="#F8FBFC"/>
<path fill-rule="evenodd" clip-rule="evenodd" d="M32.9184 42.2061C33.0453 43.1144 32.7915 43.6687 31.4758 43.6442C22.2771 43.4639 12.6822 33.8979 12.4996 24.7504C12.4729 23.3301 12.9337 23.0808 14.2094 23.1832C23.4125 23.9356 31.6918 31.8008 32.836 40.9439C32.8783 41.2978 32.8828 41.6651 32.9184 42.2061Z" fill="#F8FBFC"/>
<path fill-rule="evenodd" clip-rule="evenodd" d="M107.144 51.6429C106.287 51.4532 105.153 52.583 104.898 51.3143C104.679 50.1968 106.065 50.3755 106.775 50.1556C108.331 49.6745 109.949 49.4821 111.587 49.6896C112.784 49.8422 113.972 50.0759 114.397 51.4202C114.82 52.7659 113.992 53.6483 113.087 54.4579C112.838 54.6792 112.566 54.8744 112.296 55.0875C112.505 55.7472 113.135 55.5658 113.537 55.7445C115.931 56.8084 116.568 58.9719 115.032 61.1011C113.904 62.6626 112.263 63.5271 110.535 64.2185C108.652 64.9718 106.661 65.3113 104.644 65.4652C103.003 65.5917 102.488 64.9031 103.04 63.3691C104.257 60.0014 105.494 56.6407 106.722 53.2786C106.908 52.7686 107.212 52.2903 107.144 51.6429ZM104.318 63.9381C106.705 63.9629 109.368 63.3498 111.199 62.4C112.252 61.8543 113.246 61.2179 113.925 60.2172C114.502 59.3719 114.702 58.4675 113.942 57.6001C112.926 56.4414 108.041 56.0978 106.903 57.1108C106.75 57.2469 106.68 57.486 106.604 57.6908C105.854 59.732 105.11 61.7746 104.318 63.9381ZM110.791 50.9872C109.997 51.1315 108.989 50.7467 108.703 51.9164C108.435 53.0215 107.199 54.4772 107.891 55.0641C108.709 55.7596 110.109 54.6531 111.19 54.128C111.795 53.8339 112.346 53.4504 112.761 52.9047C113.352 52.1212 113.11 51.5384 112.245 51.2319C111.784 51.0656 111.263 51.0614 110.791 50.9872Z" fill="#ECF5F9"/>
<path fill-rule="evenodd" clip-rule="evenodd" d="M31.6601 62.033C29.0031 63.9298 26.7612 66.1305 26.0835 69.5091C25.9832 70.008 25.7963 70.584 25.1379 70.441C24.4396 70.2898 24.5798 69.6644 24.7214 69.1971C25.2396 67.4871 25.832 65.7978 26.3337 64.0838C26.4973 63.5216 26.9605 62.9979 26.6251 62.1525C24.4162 64.0851 22.2912 65.949 21.2685 68.7448C21.0582 69.3221 20.8795 69.9118 20.6486 70.4823C20.4892 70.8671 20.206 71.1489 19.7318 71.0156C19.215 70.8671 19.2851 70.4341 19.3304 70.0493C19.4514 69.0335 19.9476 68.14 20.294 67.1999C21.1874 64.7903 22.0177 62.3546 22.8891 59.9354C23.0554 59.4736 23.2231 58.822 23.8637 59.0103C24.6128 59.2234 24.3942 59.8406 24.1867 60.3986C23.9008 61.1697 23.6589 61.9532 23.3028 63.0185C24.8245 62.2845 25.5543 61.0337 26.6993 60.3217C27.388 59.8928 28.0752 58.9787 28.9082 59.6385C29.7055 60.2667 28.8065 61.0447 28.6471 61.758C28.6003 61.967 28.5261 62.169 28.4464 62.4371C29.0512 62.6639 29.2807 62.1869 29.59 61.9491C30.6525 61.1244 31.693 60.2736 32.7569 59.4557C33.1885 59.1244 33.715 59.0406 34.1713 59.3595C34.7239 59.7389 34.438 60.2364 34.2387 60.7093C32.9989 63.6508 32.0161 66.6803 31.1528 69.751C31.0003 70.2926 30.8944 70.9675 30.1109 70.742C29.4031 70.54 29.6738 69.8995 29.8058 69.4596C30.5068 67.1023 31.2559 64.7601 31.9886 62.4123C32.0023 62.2336 32.0174 62.0522 32.0339 61.8721C31.9143 61.9244 31.7865 61.9794 31.6601 62.033Z" fill="#ECF5F9"/>
<path fill-rule="evenodd" clip-rule="evenodd" d="M11.4872 56.3204C12.4315 56.4208 13.5298 56.4648 13.9394 57.6139C14.3119 58.6626 13.9408 59.596 13.1243 60.3478C12.8068 60.6406 12.4274 60.8014 12.0659 60.5183C11.6838 60.2145 11.8638 59.8571 12.0604 59.4736C12.8329 57.9795 12.6322 57.6469 11.0061 57.7651C9.0584 57.9094 7.28799 58.5692 5.76363 59.8063C5.24817 60.2269 4.66949 60.6956 4.81932 61.4736C4.96502 62.2296 5.71552 62.2777 6.2777 62.4275C7.79245 62.8289 9.33743 63.112 10.8549 63.5106C13.1353 64.1086 13.8652 65.8515 12.727 67.8679C11.2645 70.4603 5.63579 73.0335 2.76163 72.4328C1.37884 72.1455 0.587109 71.3359 0.503263 69.9064C0.424914 68.5978 1.77471 66.2089 2.71902 65.9793C2.98018 65.9175 3.29633 65.8845 3.46952 66.1869C3.65783 66.5168 3.59185 66.8412 3.35543 67.1202C2.88946 67.6769 2.37813 68.1978 2.10048 68.8961C1.58228 70.2198 2.01388 71.1297 3.38155 71.105C6.56223 71.0472 9.28794 69.8143 11.314 67.3374C12.3271 66.1003 11.9284 65.1917 10.3395 64.778C8.76974 64.3684 7.15741 64.1127 5.60143 63.6591C3.01867 62.9058 2.54583 60.888 4.51692 59.0351C6.44265 57.2304 8.81785 56.4703 11.4872 56.3204Z" fill="#ECF5F9"/>
<path fill-rule="evenodd" clip-rule="evenodd" d="M156.078 59.6894C155.004 60.5197 154.274 61.2303 153.414 61.7114C151.949 62.5334 150.889 61.9066 150.734 60.2379C150.62 59.042 150.78 57.8888 151.348 56.8111C152.991 53.6813 155.734 51.7858 158.762 50.2079C159.274 49.9426 159.709 50.0883 160.14 50.4566C160.564 50.8168 160.578 51.181 160.365 51.6456C158.516 55.6868 157.568 60.0331 156.151 64.2185C155.879 65.0171 155.485 65.7594 154.919 66.4013C153.957 67.4968 152.747 67.9848 151.312 67.7662C150.65 67.6659 149.569 67.7937 149.699 66.7559C149.833 65.6824 150.775 66.3559 151.341 66.3958C152.46 66.4797 153.344 66.1113 153.961 65.2096C155.047 63.622 155.491 61.7966 156.078 59.6894ZM158.39 52.2119C157.079 52.715 155.994 53.4861 154.999 54.3851C153.611 55.64 152.412 57.0311 152.137 58.9692C152.067 59.4832 151.829 60.1966 152.375 60.4949C152.932 60.8069 153.419 60.2447 153.814 59.8805C156.086 57.7953 157.345 55.0875 158.39 52.2119Z" fill="#ECF5F9"/>
<path fill-rule="evenodd" clip-rule="evenodd" d="M91.5869 63.769C90.6096 64.6295 89.9636 65.2466 89.2667 65.8019C88.5671 66.3628 87.7107 66.6239 86.9094 66.1882C86.1493 65.7758 86.097 64.9112 86.0709 64.1044C86.0214 62.5154 86.6029 61.134 87.4991 59.8777C89.1732 57.5382 91.466 55.952 93.9841 54.6434C94.5257 54.3617 95.0205 54.3108 95.5264 54.7699C96.0061 55.2001 95.9071 55.6468 95.6941 56.1321C93.9924 59.9918 93.0082 64.0838 91.7271 68.0823C90.7278 71.2025 88.919 72.4987 86.3761 72.0643C85.7905 71.964 84.9617 71.9654 85.0661 71.1132C85.1939 70.0781 86.0242 70.6252 86.5396 70.7063C88.0489 70.9455 89.0317 70.2472 89.7079 69.0156C90.5437 67.4913 90.989 65.8198 91.5869 63.769ZM93.7298 56.6063C90.8818 58.1499 88.2509 59.9079 87.5142 63.3553C87.407 63.8542 87.1774 64.5511 87.8138 64.8604C88.3348 65.1133 88.7595 64.624 89.1196 64.3037C91.4344 62.2378 92.6852 59.5107 93.7298 56.6063Z" fill="#ECF5F9"/>
<path fill-rule="evenodd" clip-rule="evenodd" d="M39.1691 60.0743C39.7423 59.5808 40.2344 59.1396 40.7444 58.7204C41.5361 58.0647 42.4323 57.7032 43.3684 58.3135C44.3415 58.9472 44.5175 59.9767 44.189 61.009C43.0068 64.7092 40.7017 67.571 37.1994 69.2205C35.9472 69.8088 35.2173 70.4452 34.9177 71.7249C34.7665 72.3805 34.5424 73.0183 34.2881 73.6396C34.016 74.2994 34.1095 75.6176 33.0868 75.2836C31.8841 74.8946 32.827 73.8293 33.0497 73.142C34.2414 69.4624 35.5156 65.8171 36.7568 62.1567C37.0262 61.3622 37.2393 60.543 37.554 59.7664C37.8015 59.1561 37.6846 58.062 38.7348 58.2544C39.7272 58.4358 38.9203 59.3953 39.1691 60.0743ZM36.596 67.8679C39.51 66.4315 41.5471 64.1842 42.6811 61.1327C42.8721 60.6241 43.213 60.0124 42.6096 59.607C42.0144 59.2083 41.5801 59.7499 41.1622 60.1059C38.776 62.1444 37.5142 64.8714 36.596 67.8679Z" fill="#ECF5F9"/>
<path fill-rule="evenodd" clip-rule="evenodd" d="M57.0187 60.3368C56.7782 60.1004 56.4978 60.2681 56.2298 60.2639C55.6277 60.2571 54.6944 60.8522 54.5872 59.8117C54.4965 58.943 55.4875 58.9389 56.1074 58.8839C57.5039 58.7643 58.2654 58.0729 58.6998 56.7382C59.1506 55.3513 59.9245 54.0923 60.9142 52.9981C61.6523 52.1844 62.6007 51.7514 63.633 52.2256C64.712 52.7246 64.9182 53.8545 65.0777 54.9239C65.134 55.2867 64.9347 55.6097 64.5787 55.7073C64.0976 55.8393 63.9093 55.4943 63.7265 55.1053C63.4598 54.5431 63.6784 53.5507 62.7753 53.5314C61.8887 53.5108 61.5327 54.3905 61.1149 55.0393C60.5458 55.919 60.0372 56.8386 59.8255 58.0124C60.4688 57.952 61.0118 57.886 61.5547 57.853C61.9547 57.8283 62.3863 57.8351 62.4729 58.3506C62.5526 58.8207 62.2516 59.1891 61.8324 59.1671C58.5335 58.9911 58.1335 61.5423 57.4229 63.7993C56.5486 66.5758 55.7088 69.362 54.8126 72.1303C54.5995 72.7887 54.7411 74.0739 53.625 73.7221C52.535 73.377 53.368 72.3365 53.5329 71.6877C54.4332 68.1634 55.5961 64.7133 56.8194 61.2852C56.9294 60.9842 57.1713 60.7038 57.0187 60.3368Z" fill="#ECF5F9"/>
<path fill-rule="evenodd" clip-rule="evenodd" d="M144.538 54.4758C146.116 53.1315 147.315 52.0786 148.548 51.071C149.012 50.6958 149.562 50.1638 150.189 50.6449C150.774 51.0903 150.545 51.7803 150.335 52.3576C149.217 55.4668 148.207 58.6063 147.411 61.8131C147.276 62.3505 147.118 62.8481 146.446 62.679C145.7 62.4935 145.95 61.8529 146.069 61.4254C146.684 59.2152 147.368 57.0242 147.994 54.818C148.141 54.3026 148.522 53.816 148.298 53.0463C145.495 55.1301 143.536 57.6949 142.386 60.8797C142.27 61.1945 142.17 61.5175 142.087 61.8419C141.964 62.3258 141.741 62.7161 141.175 62.5911C140.573 62.4563 140.588 61.9629 140.731 61.5162C141.81 58.1595 142.907 54.807 143.995 51.4559C144.134 51.0257 144.403 50.7466 144.857 50.8649C145.319 50.9844 145.421 51.3872 145.308 51.8105C145.114 52.55 144.886 53.2827 144.538 54.4758Z" fill="#ECF5F9"/>
<path fill-rule="evenodd" clip-rule="evenodd" d="M80.103 58.8083C81.6191 57.4956 82.7861 56.4633 83.982 55.4668C84.4919 55.0393 85.1077 54.5004 85.7661 55.0351C86.408 55.5547 85.9902 56.264 85.773 56.8935C84.7586 59.8529 83.7524 62.815 83.0005 65.8569C82.8672 66.3998 82.8576 67.2699 81.938 67.0033C81.16 66.7723 81.4982 66.0974 81.6439 65.5779C82.4205 62.8563 83.2122 60.1333 84.0644 57.1753C80.9813 59.4887 78.881 62.2157 77.7498 65.67C77.556 66.261 77.5711 67.2617 76.5924 66.8823C75.8461 66.5909 76.2887 65.8115 76.4646 65.2549C77.424 62.2199 78.4027 59.1876 79.3855 56.1568C79.534 55.6963 79.6288 55.0475 80.3257 55.2262C81.1422 55.4365 80.8123 56.0825 80.6899 56.6049C80.5484 57.1918 80.3779 57.7719 80.103 58.8083Z" fill="#ECF5F9"/>
<path fill-rule="evenodd" clip-rule="evenodd" d="M118.476 61.9835C121.769 60.1924 123.647 57.3183 124.836 53.8654C125.056 53.2263 125.13 51.8916 126.135 52.2943C127.262 52.7507 126.326 53.7692 126.045 54.4441C124.884 57.2289 123.441 59.901 122.675 62.8467C122.56 63.2948 122.36 63.747 121.772 63.6192C121.182 63.4941 121.164 63.0721 121.334 62.5773C121.42 62.323 121.455 62.0467 121.588 61.4158C120.392 62.3147 119.471 63.046 118.512 63.714C118.018 64.059 117.461 64.4824 116.822 64.0453C116.105 63.5559 116.325 62.8329 116.541 62.2144C117.626 59.0928 118.929 56.0578 120.323 53.0627C120.532 52.6077 120.791 52.238 121.324 52.4441C122.015 52.7094 121.758 53.2111 121.558 53.6964C120.426 56.3767 119.306 59.0612 118.183 61.7457C118.18 61.8762 118.178 62.0041 118.174 62.1333C118.272 62.0852 118.373 62.0329 118.476 61.9835Z" fill="#ECF5F9"/>
<path fill-rule="evenodd" clip-rule="evenodd" d="M65.2109 65.2824C67.1325 62.5292 68.7847 60.165 70.4369 57.7967C70.6609 57.4764 70.8726 57.1424 71.1104 56.8317C71.3894 56.4661 71.7028 56.0785 72.2169 56.4207C72.7296 56.7658 72.5193 57.1987 72.254 57.5919C71.7523 58.3355 71.2396 59.0695 70.7283 59.8062C68.0465 63.6756 65.3717 67.5531 62.6748 71.4115C62.3532 71.8719 62.0563 72.7365 61.2989 72.2197C60.5649 71.7166 61.1422 71.0555 61.5422 70.6555C63.6164 68.5827 63.9724 66.0453 63.791 63.2811C63.6824 61.6619 63.7992 60.0289 63.8377 58.4028C63.8487 57.8723 63.6837 57.1506 64.5236 57.1245C65.4115 57.097 65.204 57.8406 65.2095 58.3575C65.2219 60.488 65.2109 62.6199 65.2109 65.2824Z" fill="#ECF5F9"/>
<path fill-rule="evenodd" clip-rule="evenodd" d="M129.612 61.0351C131.625 58.1485 133.399 55.5905 135.196 53.0421C135.554 52.5349 135.879 51.6085 136.691 52.2298C137.372 52.7507 136.662 53.328 136.339 53.7967C133.289 58.2186 130.234 62.6364 127.16 67.0432C126.803 67.5531 126.438 68.4713 125.654 67.8789C125.021 67.3978 125.599 66.705 126.01 66.2913C128.025 64.2584 128.368 61.7883 128.195 59.075C128.067 57.0668 128.199 55.0448 128.224 53.027C128.231 52.4951 128.334 51.9576 129.029 52.014C129.647 52.0634 129.609 52.5968 129.609 53.0462C129.612 55.5603 129.612 58.0784 129.612 61.0351Z" fill="#ECF5F9"/>
<path fill-rule="evenodd" clip-rule="evenodd" d="M44.6977 68.1208C45.7025 64.1567 47.0798 60.3148 48.4804 56.4826C48.8076 55.5905 49.1471 54.7026 49.5113 53.8242C49.6983 53.3761 49.8673 52.7328 50.5257 52.9761C51.2666 53.2524 50.9725 53.8421 50.7773 54.3892C49.4508 58.132 48.1354 61.8735 46.8392 65.6247C46.5299 66.5195 46.2922 67.4445 46.064 68.3655C45.9348 68.8892 45.8193 69.4294 45.1348 69.2466C44.5905 69.0995 44.6207 68.5854 44.6977 68.1208Z" fill="#ECF5F9"/>
<path fill-rule="evenodd" clip-rule="evenodd" d="M136.168 61.5148C136.984 58.4757 138.02 55.3637 139.231 52.3081C139.432 51.7968 139.765 51.5865 140.265 51.8147C140.72 52.0222 140.669 52.4222 140.515 52.8167C139.332 55.8242 138.374 58.9087 137.501 62.0165C137.368 62.4962 137.064 62.822 136.514 62.6405C136.014 62.477 136.113 62.0481 136.168 61.5148Z" fill="#ECF5F9"/>
<path fill-rule="evenodd" clip-rule="evenodd" d="M76.1814 56.7643C76.0948 57.0296 76.022 57.3018 75.9216 57.5602C74.8756 60.2653 73.9945 63.0253 73.2179 65.8198C73.0653 66.3641 72.9897 67.2149 72.1032 66.9318C71.3485 66.6885 71.6963 66.0273 71.8338 65.4995C72.6007 62.5841 73.5987 59.7429 74.6626 56.9279C74.8344 56.4757 74.9856 55.897 75.6577 56.0083C76.0151 56.0661 76.1828 56.3877 76.1814 56.7643Z" fill="#ECF5F9"/>
<path fill-rule="evenodd" clip-rule="evenodd" d="M19.2317 60.5856C19.1534 60.8426 19.0915 61.1189 18.9912 61.3773C17.9328 64.0934 17.0586 66.8659 16.2764 69.6727C16.1266 70.2156 16.0538 71.0706 15.1424 70.7338C14.3672 70.4479 14.7961 69.8115 14.9266 69.2933C15.662 66.3545 16.6984 63.5134 17.7513 60.6749C17.9066 60.2598 18.0661 59.798 18.6626 59.8681C19.0736 59.9189 19.207 60.2021 19.2317 60.5856Z" fill="#ECF5F9"/>
<path fill-rule="evenodd" clip-rule="evenodd" d="M49.3655 67.3305C50.2123 64.246 51.239 61.1066 52.472 58.0345C52.6328 57.6317 52.971 57.4035 53.4191 57.5905C53.9043 57.7912 53.841 58.2461 53.705 58.5994C52.5435 61.6371 51.5827 64.7395 50.6892 67.8624C50.5696 68.2789 50.3043 68.606 49.8507 68.5167C49.2624 68.4026 49.3009 67.9037 49.3655 67.3305Z" fill="#ECF5F9"/>
<path fill-rule="evenodd" clip-rule="evenodd" d="M77.4487 53.1095C77.2604 53.6964 77.2439 54.4593 76.4728 54.6531C76.0549 54.7576 75.6591 54.3961 75.7635 53.9796C75.9271 53.3308 75.9285 52.4607 76.8206 52.3082C77.2645 52.2298 77.4583 52.638 77.4487 53.1095Z" fill="#ECF5F9"/>
<path fill-rule="evenodd" clip-rule="evenodd" d="M20.4959 57.0448C20.2485 57.5891 20.3008 58.407 19.4568 58.5224C18.9798 58.5884 18.6981 58.1375 18.8273 57.7678C19.0417 57.1561 18.9565 56.2256 19.9503 56.1788C20.4918 56.1541 20.5014 56.6063 20.4959 57.0448Z" fill="#ECF5F9"/>
<path fill-rule="evenodd" clip-rule="evenodd" d="M140.946 50.4181C140.354 50.3604 140.122 50.0291 140.218 49.6181C140.359 49.0064 140.372 48.2257 141.174 48.0498C141.606 47.9536 141.988 48.2862 141.898 48.7192C141.76 49.3858 141.642 50.1322 140.946 50.4181Z" fill="#ECF5F9"/>
<path fill-rule="evenodd" clip-rule="evenodd" d="M55.0976 54.638C54.8529 55.174 54.9326 56.0001 54.0969 56.1706C53.624 56.2654 53.3216 55.9053 53.4206 55.4531C53.5567 54.8235 53.5842 54.0359 54.3993 53.8572C54.8804 53.75 55.0852 54.1225 55.0976 54.638Z" fill="#ECF5F9"/>
<path fill-rule="evenodd" clip-rule="evenodd" d="M31.6602 62.0329C31.7866 61.9793 31.9144 61.9243 32.0395 61.8707C32.023 62.0508 32.0079 62.2322 31.9942 62.4109C31.8828 62.2845 31.7701 62.1594 31.6602 62.0329Z" fill="#0186D2"/>
<path fill-rule="evenodd" clip-rule="evenodd" d="M118.476 61.9835C118.373 62.033 118.273 62.0852 118.169 62.1347C118.174 62.0041 118.176 61.8763 118.179 61.7471C118.279 61.8254 118.377 61.9051 118.476 61.9835Z" fill="#0186D2"/>
</svg>
