<svg width="20" height="21" viewBox="0 0 20 21" fill="none" xmlns="http://www.w3.org/2000/svg">
<path fill-rule="evenodd" clip-rule="evenodd" d="M10 20.6379C11.3132 20.6379 12.6136 20.3793 13.8268 19.8767C15.0401 19.3742 16.1425 18.6376 17.0711 17.709C17.9997 16.7804 18.7362 15.678 19.2388 14.4648C19.7413 13.2515 20 11.9512 20 10.6379C20 9.32472 19.7413 8.02436 19.2388 6.81111C18.7362 5.59785 17.9997 4.49546 17.0711 3.56687C16.1425 2.63829 15.0401 1.90169 13.8268 1.39914C12.6136 0.896597 11.3132 0.637939 10 0.637939C7.34784 0.637939 4.8043 1.69151 2.92893 3.56687C1.05357 5.44224 0 7.98577 0 10.6379C0 13.2901 1.05357 15.8336 2.92893 17.709C4.8043 19.5844 7.34784 20.6379 10 20.6379ZM9.74222 14.6824L15.2978 8.01572L13.5911 6.59349L8.81333 12.3257L6.34111 9.85238L4.77 11.4235L8.10333 14.7568L8.96333 15.6168L9.74222 14.6824Z" fill="#2563EB"/>
</svg>
