<svg width="1024" height="356" viewBox="0 0 1024 356" fill="none" xmlns="http://www.w3.org/2000/svg">
<g clip-path="url(#clip0_33_6398)">
<mask id="mask0_33_6398" style="mask-type:alpha" maskUnits="userSpaceOnUse" x="0" y="0" width="1024" height="600">
<rect width="1024" height="600" fill="url(#paint0_radial_33_6398)"/>
</mask>
<g mask="url(#mask0_33_6398)">
</g>
<g clip-path="url(#clip1_33_6398)">
<rect opacity="0.4" width="1024" height="600" fill="url(#paint1_radial_33_6398)"/>
<mask id="mask1_33_6398" style="mask-type:alpha" maskUnits="userSpaceOnUse" x="76" y="-66" width="872" height="732">
<rect x="76" y="-65.5" width="872" height="731" fill="url(#paint2_radial_33_6398)"/>
</mask>
<g mask="url(#mask1_33_6398)">
</g>
<g opacity="0.7">
<path d="M526.072 330.247C526.48 329.982 526.597 329.436 526.332 329.028C526.067 328.62 525.521 328.504 525.113 328.768C524.705 329.033 524.589 329.579 524.854 329.987C525.118 330.395 525.664 330.511 526.072 330.247Z" fill="white"/>
<path opacity="0.11" d="M377.093 222.232C377.637 221.879 377.792 221.151 377.439 220.607C377.085 220.062 376.358 219.907 375.813 220.261C375.269 220.614 375.114 221.342 375.467 221.886C375.821 222.43 376.548 222.585 377.093 222.232Z" fill="white"/>
<path d="M383.808 225.575C384.216 225.31 384.332 224.764 384.068 224.356C383.803 223.948 383.257 223.832 382.849 224.097C382.441 224.361 382.325 224.907 382.589 225.315C382.854 225.723 383.4 225.84 383.808 225.575Z" fill="white"/>
<path d="M393.355 204.68C393.763 204.415 393.879 203.87 393.614 203.461C393.35 203.053 392.804 202.937 392.396 203.202C391.988 203.467 391.871 204.013 392.136 204.421C392.401 204.829 392.947 204.945 393.355 204.68Z" fill="white"/>
<path d="M350.839 230.868C351.247 230.603 351.363 230.057 351.098 229.649C350.833 229.241 350.288 229.125 349.88 229.39C349.472 229.654 349.355 230.2 349.62 230.608C349.885 231.016 350.431 231.132 350.839 230.868Z" fill="white"/>
<path opacity="0.11" d="M334.124 258.515C334.669 258.162 334.824 257.434 334.47 256.89C334.117 256.346 333.389 256.191 332.845 256.544C332.301 256.897 332.146 257.625 332.499 258.169C332.852 258.714 333.58 258.868 334.124 258.515Z" fill="white"/>
<path d="M317.734 253.753C318.006 253.577 318.083 253.213 317.907 252.941C317.73 252.669 317.367 252.592 317.095 252.768C316.823 252.945 316.746 253.308 316.922 253.58C317.099 253.852 317.462 253.93 317.734 253.753Z" fill="white"/>
<path d="M388.077 242.405C388.349 242.229 388.427 241.865 388.25 241.594C388.074 241.322 387.71 241.244 387.438 241.421C387.166 241.597 387.089 241.961 387.265 242.233C387.442 242.505 387.805 242.582 388.077 242.405Z" fill="white"/>
<path d="M495.476 172.712C495.748 172.536 495.825 172.172 495.649 171.9C495.472 171.628 495.109 171.551 494.837 171.727C494.565 171.904 494.487 172.267 494.664 172.539C494.84 172.811 495.204 172.889 495.476 172.712Z" fill="white"/>
<path d="M531.906 111.263C532.178 111.086 532.255 110.723 532.079 110.451C531.902 110.179 531.539 110.102 531.267 110.278C530.995 110.455 530.917 110.818 531.094 111.09C531.27 111.362 531.634 111.439 531.906 111.263Z" fill="white"/>
<path d="M574.46 134.757C574.732 134.581 574.809 134.217 574.632 133.945C574.456 133.673 574.092 133.596 573.821 133.772C573.549 133.949 573.471 134.312 573.648 134.584C573.824 134.856 574.188 134.934 574.46 134.757Z" fill="white"/>
<path d="M216.039 336.548C216.311 336.372 216.389 336.008 216.212 335.736C216.036 335.464 215.672 335.387 215.4 335.563C215.128 335.74 215.051 336.103 215.227 336.375C215.404 336.647 215.767 336.725 216.039 336.548Z" fill="white"/>
<path opacity="0.11" d="M191.39 314.739C191.662 314.563 191.739 314.199 191.563 313.928C191.386 313.656 191.023 313.578 190.751 313.755C190.479 313.931 190.401 314.295 190.578 314.567C190.754 314.839 191.118 314.916 191.39 314.739Z" fill="white"/>
<path opacity="0.11" d="M177.562 339.818C177.834 339.641 177.911 339.278 177.735 339.006C177.558 338.734 177.195 338.656 176.923 338.833C176.651 339.009 176.573 339.373 176.75 339.645C176.926 339.917 177.29 339.994 177.562 339.818Z" fill="white"/>
<path opacity="0.11" d="M317.453 263.032C317.725 262.856 317.802 262.492 317.626 262.22C317.449 261.949 317.086 261.871 316.814 262.048C316.542 262.224 316.464 262.588 316.641 262.86C316.817 263.132 317.181 263.209 317.453 263.032Z" fill="white"/>
<path opacity="0.11" d="M398.609 260.78C398.88 260.604 398.958 260.24 398.781 259.969C398.605 259.697 398.241 259.619 397.969 259.796C397.698 259.972 397.62 260.336 397.797 260.608C397.973 260.88 398.337 260.957 398.609 260.78Z" fill="white"/>
<path opacity="0.11" d="M489.992 194.47C490.264 194.293 490.341 193.93 490.165 193.658C489.988 193.386 489.625 193.309 489.353 193.485C489.081 193.662 489.003 194.025 489.18 194.297C489.356 194.569 489.72 194.646 489.992 194.47Z" fill="white"/>
<path opacity="0.3" d="M230.71 309.527C230.982 309.35 231.059 308.987 230.882 308.715C230.706 308.443 230.342 308.365 230.071 308.542C229.799 308.718 229.721 309.082 229.898 309.354C230.074 309.626 230.438 309.703 230.71 309.527Z" fill="white"/>
<path d="M326.75 209.394C327.022 209.217 327.099 208.854 326.923 208.582C326.747 208.31 326.383 208.232 326.111 208.409C325.839 208.585 325.762 208.949 325.938 209.221C326.115 209.493 326.478 209.57 326.75 209.394Z" fill="white"/>
<path d="M401.976 159.175C402.248 158.999 402.325 158.635 402.149 158.363C401.972 158.091 401.609 158.014 401.337 158.19C401.065 158.367 400.987 158.73 401.164 159.002C401.34 159.274 401.704 159.351 401.976 159.175Z" fill="white"/>
<path d="M322.664 276.456C322.936 276.28 323.014 275.916 322.837 275.644C322.661 275.372 322.297 275.295 322.025 275.471C321.753 275.648 321.676 276.011 321.852 276.283C322.029 276.555 322.392 276.633 322.664 276.456Z" fill="white"/>
<path opacity="0.3" d="M288.179 298.835C288.451 298.659 288.529 298.295 288.352 298.023C288.176 297.751 287.812 297.674 287.54 297.85C287.268 298.027 287.191 298.39 287.367 298.662C287.544 298.934 287.907 299.012 288.179 298.835Z" fill="white"/>
<path opacity="0.11" d="M227.967 294.505C228.239 294.329 228.317 293.965 228.14 293.693C227.964 293.421 227.6 293.344 227.328 293.52C227.056 293.697 226.979 294.06 227.155 294.332C227.332 294.604 227.695 294.682 227.967 294.505Z" fill="white"/>
<path opacity="0.3" d="M343.296 215.46C343.568 215.284 343.645 214.92 343.468 214.648C343.292 214.376 342.928 214.299 342.656 214.475C342.385 214.652 342.307 215.015 342.484 215.287C342.66 215.559 343.024 215.637 343.296 215.46Z" fill="white"/>
<path opacity="0.3" d="M337.117 280.38C337.389 280.204 337.466 279.84 337.29 279.568C337.113 279.296 336.75 279.219 336.478 279.395C336.206 279.572 336.128 279.935 336.305 280.207C336.481 280.479 336.845 280.557 337.117 280.38Z" fill="white"/>
<path opacity="0.3" d="M280.703 323.989C280.975 323.813 281.052 323.449 280.876 323.178C280.699 322.906 280.336 322.828 280.064 323.005C279.792 323.181 279.714 323.545 279.891 323.817C280.067 324.089 280.431 324.166 280.703 323.989Z" fill="white"/>
<path opacity="0.3" d="M244.999 300.257C245.271 300.081 245.349 299.717 245.172 299.445C244.996 299.173 244.632 299.096 244.36 299.272C244.088 299.449 244.011 299.812 244.187 300.084C244.364 300.356 244.727 300.434 244.999 300.257Z" fill="white"/>
<path opacity="0.3" d="M550.453 99.927C550.725 99.7505 550.802 99.387 550.626 99.115C550.449 98.8431 550.086 98.7657 549.814 98.9422C549.542 99.1186 549.464 99.4822 549.641 99.7541C549.817 100.026 550.181 100.103 550.453 99.927Z" fill="white"/>
<path opacity="0.11" d="M458.031 131.2C458.303 131.024 458.38 130.66 458.204 130.388C458.027 130.116 457.664 130.039 457.392 130.216C457.12 130.392 457.042 130.756 457.219 131.028C457.395 131.299 457.759 131.377 458.031 131.2Z" fill="white"/>
<path opacity="0.11" d="M550.898 129.741C551.17 129.565 551.247 129.201 551.07 128.929C550.894 128.658 550.53 128.58 550.259 128.757C549.987 128.933 549.909 129.297 550.086 129.569C550.262 129.841 550.626 129.918 550.898 129.741Z" fill="white"/>
<path opacity="0.3" d="M429.14 215.06C429.684 214.707 429.839 213.979 429.486 213.435C429.133 212.891 428.405 212.736 427.861 213.089C427.316 213.442 427.161 214.17 427.515 214.714C427.868 215.259 428.596 215.413 429.14 215.06Z" fill="white"/>
<path opacity="0.11" d="M448.616 181.418C449.16 181.064 449.315 180.337 448.962 179.792C448.609 179.248 447.881 179.093 447.337 179.446C446.792 179.8 446.637 180.527 446.991 181.072C447.344 181.616 448.072 181.771 448.616 181.418Z" fill="white"/>
<path d="M437.183 164.336C437.591 164.071 437.707 163.526 437.442 163.118C437.177 162.71 436.632 162.593 436.223 162.858C435.815 163.123 435.699 163.669 435.964 164.077C436.229 164.485 436.774 164.601 437.183 164.336Z" fill="white"/>
<path d="M436.761 238.121C437.169 237.857 437.285 237.311 437.021 236.903C436.756 236.495 436.21 236.379 435.802 236.643C435.394 236.908 435.278 237.454 435.543 237.862C435.807 238.27 436.353 238.386 436.761 238.121Z" fill="white"/>
<path d="M606.706 141.834C607.114 141.569 607.23 141.024 606.965 140.616C606.701 140.208 606.155 140.091 605.747 140.356C605.339 140.621 605.223 141.167 605.487 141.575C605.752 141.983 606.298 142.099 606.706 141.834Z" fill="white"/>
<path d="M281.55 340.942C281.958 340.677 282.074 340.131 281.809 339.723C281.544 339.315 280.999 339.199 280.591 339.464C280.182 339.729 280.066 340.274 280.331 340.682C280.596 341.091 281.142 341.207 281.55 340.942Z" fill="white"/>
<path d="M187.519 357.86C187.927 357.595 188.043 357.049 187.778 356.641C187.513 356.233 186.967 356.117 186.559 356.382C186.151 356.647 186.035 357.192 186.3 357.6C186.565 358.009 187.11 358.125 187.519 357.86Z" fill="white"/>
<path d="M419.933 189.534C420.341 189.269 420.457 188.723 420.192 188.315C419.927 187.907 419.382 187.791 418.973 188.056C418.565 188.32 418.449 188.866 418.714 189.274C418.979 189.682 419.524 189.798 419.933 189.534Z" fill="white"/>
<path d="M357.87 281.614C358.278 281.349 358.394 280.803 358.13 280.395C357.865 279.987 357.319 279.871 356.911 280.136C356.503 280.401 356.387 280.946 356.651 281.354C356.916 281.762 357.462 281.879 357.87 281.614Z" fill="white"/>
<path d="M495.761 222.235C496.169 221.97 496.285 221.424 496.02 221.016C495.755 220.608 495.21 220.492 494.802 220.757C494.393 221.022 494.277 221.567 494.542 221.975C494.807 222.384 495.353 222.5 495.761 222.235Z" fill="white"/>
<path d="M604.566 104.016C604.974 103.751 605.09 103.206 604.825 102.797C604.56 102.389 604.015 102.273 603.607 102.538C603.199 102.803 603.082 103.348 603.347 103.757C603.612 104.165 604.158 104.281 604.566 104.016Z" fill="white"/>
<path d="M598.808 69.2504C599.216 68.9855 599.332 68.4399 599.067 68.0318C598.802 67.6237 598.257 67.5075 597.848 67.7724C597.44 68.0372 597.324 68.5828 597.589 68.991C597.854 69.3991 598.399 69.5153 598.808 69.2504Z" fill="white"/>
<path opacity="0.3" d="M478.147 138.453C478.691 138.099 478.846 137.372 478.493 136.827C478.139 136.283 477.412 136.128 476.867 136.481C476.323 136.835 476.168 137.562 476.521 138.107C476.875 138.651 477.602 138.806 478.147 138.453Z" fill="white"/>
<path d="M455.444 103.478C455.988 103.125 456.143 102.397 455.79 101.853C455.436 101.308 454.709 101.154 454.164 101.507C453.62 101.86 453.465 102.588 453.818 103.132C454.172 103.676 454.899 103.831 455.444 103.478Z" fill="white"/>
<path d="M510.55 132.827C510.958 132.562 511.074 132.016 510.809 131.608C510.544 131.2 509.999 131.084 509.591 131.349C509.182 131.613 509.066 132.159 509.331 132.567C509.596 132.975 510.142 133.091 510.55 132.827Z" fill="white"/>
<path opacity="0.3" d="M521.976 98.109C522.52 97.7557 522.675 97.0281 522.322 96.4837C521.969 95.9394 521.241 95.7844 520.697 96.1377C520.152 96.491 519.997 97.2186 520.351 97.763C520.704 98.3073 521.431 98.4623 521.976 98.109Z" fill="white"/>
<path opacity="0.3" d="M593.444 101.435C593.988 101.082 594.143 100.354 593.79 99.8099C593.436 99.2655 592.709 99.1106 592.164 99.4639C591.62 99.8171 591.465 100.545 591.818 101.089C592.172 101.634 592.899 101.788 593.444 101.435Z" fill="white"/>
<path opacity="0.3" d="M536.444 139.824C536.988 139.471 537.143 138.743 536.79 138.199C536.436 137.654 535.709 137.499 535.164 137.853C534.62 138.206 534.465 138.933 534.818 139.478C535.172 140.022 535.899 140.177 536.444 139.824Z" fill="white"/>
<path opacity="0.3" d="M259.108 331.703C259.653 331.349 259.807 330.622 259.454 330.077C259.101 329.533 258.373 329.378 257.829 329.731C257.285 330.085 257.13 330.812 257.483 331.357C257.836 331.901 258.564 332.056 259.108 331.703Z" fill="white"/>
<path opacity="0.3" d="M201.616 330.507C202.16 330.154 202.315 329.426 201.961 328.882C201.608 328.338 200.881 328.183 200.336 328.536C199.792 328.889 199.637 329.617 199.99 330.161C200.343 330.706 201.071 330.861 201.616 330.507Z" fill="white"/>
<path opacity="0.11" d="M563.655 99.7633C564.199 99.41 564.354 98.6823 564.001 98.138C563.648 97.5936 562.92 97.4387 562.376 97.792C561.831 98.1453 561.677 98.8729 562.03 99.4173C562.383 99.9616 563.111 100.117 563.655 99.7633Z" fill="white"/>
<path opacity="0.3" d="M261.194 268.041C261.738 267.687 261.893 266.96 261.54 266.415C261.186 265.871 260.459 265.716 259.914 266.069C259.37 266.423 259.215 267.15 259.568 267.695C259.922 268.239 260.649 268.394 261.194 268.041Z" fill="white"/>
<path opacity="0.11" d="M241.498 266.818C242.043 266.465 242.198 265.737 241.844 265.193C241.491 264.648 240.763 264.493 240.219 264.847C239.675 265.2 239.52 265.928 239.873 266.472C240.226 267.016 240.954 267.171 241.498 266.818Z" fill="white"/>
<path opacity="0.3" d="M258.022 300.906C258.567 300.553 258.722 299.825 258.368 299.281C258.015 298.736 257.287 298.581 256.743 298.935C256.199 299.288 256.044 300.016 256.397 300.56C256.75 301.104 257.478 301.259 258.022 300.906Z" fill="white"/>
<path d="M288.488 280.432C288.896 280.167 289.012 279.622 288.747 279.213C288.482 278.805 287.937 278.689 287.529 278.954C287.12 279.219 287.004 279.764 287.269 280.173C287.534 280.581 288.08 280.697 288.488 280.432Z" fill="white"/>
<path opacity="0.11" d="M686.226 131.312C686.77 130.959 686.925 130.231 686.572 129.687C686.219 129.142 685.491 128.988 684.947 129.341C684.402 129.694 684.247 130.422 684.601 130.966C684.954 131.51 685.681 131.665 686.226 131.312Z" fill="white"/>
<path d="M692.941 134.655C693.349 134.39 693.465 133.844 693.2 133.436C692.935 133.028 692.39 132.912 691.982 133.177C691.574 133.442 691.457 133.987 691.722 134.395C691.987 134.803 692.533 134.92 692.941 134.655Z" fill="white"/>
<path d="M702.488 113.76C702.896 113.495 703.012 112.95 702.747 112.542C702.482 112.133 701.937 112.017 701.529 112.282C701.12 112.547 701.004 113.093 701.269 113.501C701.534 113.909 702.08 114.025 702.488 113.76Z" fill="white"/>
<path d="M659.972 139.948C660.38 139.683 660.496 139.137 660.231 138.729C659.966 138.321 659.421 138.205 659.012 138.47C658.604 138.735 658.488 139.28 658.753 139.688C659.018 140.096 659.563 140.213 659.972 139.948Z" fill="white"/>
<path opacity="0.11" d="M643.257 167.595C643.801 167.242 643.956 166.514 643.603 165.97C643.25 165.426 642.522 165.271 641.978 165.624C641.433 165.977 641.279 166.705 641.632 167.249C641.985 167.794 642.713 167.949 643.257 167.595Z" fill="white"/>
<path d="M626.867 162.833C627.139 162.657 627.216 162.293 627.04 162.021C626.863 161.749 626.5 161.672 626.228 161.848C625.956 162.025 625.878 162.388 626.055 162.66C626.231 162.932 626.595 163.01 626.867 162.833Z" fill="white"/>
<path d="M697.21 151.486C697.482 151.309 697.559 150.946 697.382 150.674C697.206 150.402 696.843 150.324 696.571 150.501C696.299 150.677 696.221 151.041 696.398 151.313C696.574 151.585 696.938 151.662 697.21 151.486Z" fill="white"/>
<path d="M804.609 81.7922C804.881 81.6157 804.958 81.2522 804.782 80.9803C804.605 80.7083 804.242 80.6309 803.97 80.8074C803.698 80.9839 803.621 81.3474 803.797 81.6193C803.974 81.8913 804.337 81.9687 804.609 81.7922Z" fill="white"/>
<path d="M841.039 20.343C841.311 20.1665 841.388 19.803 841.212 19.531C841.035 19.2591 840.672 19.1817 840.4 19.3582C840.128 19.5347 840.05 19.8982 840.227 20.1701C840.403 20.4421 840.767 20.5195 841.039 20.343Z" fill="white"/>
<path d="M883.592 43.8352C883.864 43.6587 883.942 43.2952 883.765 43.0232C883.589 42.7513 883.225 42.6739 882.953 42.8504C882.681 43.0268 882.604 43.3904 882.78 43.6623C882.957 43.9343 883.321 44.0116 883.592 43.8352Z" fill="white"/>
<path d="M525.171 245.628C525.443 245.452 525.52 245.088 525.343 244.816C525.167 244.544 524.803 244.467 524.531 244.643C524.26 244.82 524.182 245.183 524.359 245.455C524.535 245.727 524.899 245.805 525.171 245.628Z" fill="white"/>
<path opacity="0.11" d="M500.523 223.821C500.795 223.645 500.872 223.281 500.695 223.01C500.519 222.738 500.155 222.66 499.884 222.837C499.612 223.013 499.534 223.377 499.711 223.649C499.887 223.921 500.251 223.998 500.523 223.821Z" fill="white"/>
<path opacity="0.11" d="M486.695 248.898C486.967 248.721 487.044 248.358 486.868 248.086C486.691 247.814 486.328 247.736 486.056 247.913C485.784 248.089 485.707 248.453 485.883 248.725C486.06 248.997 486.423 249.074 486.695 248.898Z" fill="white"/>
<path opacity="0.11" d="M522.132 267.907C522.404 267.731 522.482 267.367 522.305 267.096C522.129 266.824 521.765 266.746 521.493 266.923C521.221 267.099 521.144 267.463 521.321 267.735C521.497 268.007 521.861 268.084 522.132 267.907Z" fill="white"/>
<path opacity="0.11" d="M626.585 172.112C626.857 171.936 626.934 171.573 626.757 171.301C626.581 171.029 626.218 170.951 625.946 171.128C625.674 171.304 625.596 171.668 625.773 171.94C625.949 172.212 626.313 172.289 626.585 172.112Z" fill="white"/>
<path opacity="0.11" d="M707.734 169.861C708.006 169.684 708.083 169.321 707.907 169.049C707.73 168.777 707.367 168.699 707.095 168.876C706.823 169.052 706.746 169.416 706.922 169.688C707.099 169.96 707.462 170.037 707.734 169.861Z" fill="white"/>
<path opacity="0.11" d="M799.125 103.552C799.397 103.375 799.474 103.012 799.298 102.74C799.121 102.468 798.757 102.391 798.486 102.567C798.214 102.744 798.136 103.107 798.313 103.379C798.489 103.651 798.853 103.728 799.125 103.552Z" fill="white"/>
<path opacity="0.3" d="M539.843 218.605C540.115 218.428 540.192 218.065 540.016 217.793C539.839 217.521 539.476 217.443 539.204 217.62C538.932 217.796 538.854 218.16 539.031 218.432C539.207 218.704 539.571 218.781 539.843 218.605Z" fill="white"/>
<path d="M635.882 118.474C636.153 118.297 636.231 117.934 636.054 117.662C635.878 117.39 635.514 117.313 635.242 117.489C634.97 117.666 634.893 118.029 635.07 118.301C635.246 118.573 635.61 118.65 635.882 118.474Z" fill="white"/>
<path d="M711.109 68.2571C711.38 68.0806 711.458 67.7171 711.281 67.4451C711.105 67.1732 710.741 67.0958 710.469 67.2723C710.197 67.4487 710.12 67.8123 710.297 68.0842C710.473 68.3561 710.837 68.4336 711.109 68.2571Z" fill="white"/>
<path d="M631.796 185.536C632.068 185.36 632.145 184.996 631.968 184.724C631.792 184.452 631.428 184.375 631.156 184.552C630.885 184.728 630.807 185.092 630.984 185.363C631.16 185.635 631.524 185.713 631.796 185.536Z" fill="white"/>
<path opacity="0.3" d="M597.312 207.915C597.584 207.739 597.661 207.375 597.484 207.103C597.308 206.831 596.945 206.754 596.673 206.93C596.401 207.107 596.323 207.47 596.5 207.742C596.676 208.014 597.04 208.092 597.312 207.915Z" fill="white"/>
<path opacity="0.11" d="M537.101 203.585C537.373 203.409 537.45 203.045 537.274 202.773C537.097 202.501 536.734 202.424 536.462 202.6C536.19 202.777 536.112 203.14 536.289 203.412C536.465 203.684 536.829 203.762 537.101 203.585Z" fill="white"/>
<path opacity="0.3" d="M652.429 124.542C652.701 124.366 652.778 124.002 652.602 123.73C652.425 123.458 652.062 123.381 651.79 123.557C651.518 123.734 651.44 124.097 651.617 124.369C651.793 124.641 652.157 124.719 652.429 124.542Z" fill="white"/>
<path opacity="0.3" d="M646.25 189.462C646.522 189.286 646.599 188.922 646.423 188.65C646.246 188.378 645.882 188.301 645.611 188.477C645.339 188.654 645.261 189.017 645.438 189.289C645.614 189.561 645.978 189.639 646.25 189.462Z" fill="white"/>
<path opacity="0.3" d="M589.835 233.07C590.107 232.893 590.184 232.53 590.007 232.258C589.831 231.986 589.468 231.908 589.196 232.085C588.924 232.261 588.846 232.625 589.023 232.897C589.199 233.169 589.563 233.246 589.835 233.07Z" fill="white"/>
<path opacity="0.3" d="M554.132 209.337C554.404 209.161 554.481 208.797 554.305 208.525C554.128 208.253 553.765 208.176 553.493 208.352C553.221 208.529 553.144 208.892 553.32 209.164C553.497 209.436 553.86 209.514 554.132 209.337Z" fill="white"/>
<path opacity="0.3" d="M859.585 9.00898C859.857 8.8325 859.934 8.46899 859.757 8.19704C859.581 7.9251 859.218 7.8477 858.946 8.02418C858.674 8.20066 858.596 8.5642 858.773 8.83615C858.949 9.10809 859.313 9.18546 859.585 9.00898Z" fill="white"/>
<path opacity="0.11" d="M767.164 40.2805C767.436 40.104 767.513 39.7405 767.337 39.4685C767.16 39.1966 766.797 39.1192 766.525 39.2957C766.253 39.4722 766.175 39.8357 766.352 40.1076C766.528 40.3796 766.892 40.457 767.164 40.2805Z" fill="white"/>
<path opacity="0.11" d="M860.031 38.8215C860.303 38.645 860.38 38.2815 860.204 38.0096C860.027 37.7376 859.664 37.6602 859.392 37.8367C859.12 38.0132 859.042 38.3767 859.219 38.6487C859.395 38.9206 859.759 38.998 860.031 38.8215Z" fill="white"/>
<path opacity="0.3" d="M738.272 124.14C738.816 123.787 738.971 123.059 738.618 122.515C738.265 121.971 737.537 121.816 736.993 122.169C736.448 122.522 736.293 123.25 736.646 123.794C737 124.339 737.727 124.493 738.272 124.14Z" fill="white"/>
<path opacity="0.11" d="M757.749 90.4996C758.293 90.1463 758.448 89.4187 758.095 88.8743C757.742 88.33 757.014 88.1751 756.47 88.5283C755.925 88.8816 755.77 89.6093 756.124 90.1536C756.477 90.698 757.204 90.8529 757.749 90.4996Z" fill="white"/>
<path d="M746.316 73.4164C746.724 73.1516 746.84 72.606 746.575 72.1978C746.31 71.7897 745.765 71.6735 745.357 71.9384C744.949 72.2033 744.832 72.7488 745.097 73.157C745.362 73.5651 745.908 73.6813 746.316 73.4164Z" fill="white"/>
<path d="M745.894 147.202C746.302 146.937 746.418 146.391 746.153 145.983C745.889 145.575 745.343 145.459 744.935 145.724C744.527 145.988 744.411 146.534 744.675 146.942C744.94 147.35 745.486 147.466 745.894 147.202Z" fill="white"/>
<path d="M915.839 50.9164C916.247 50.6516 916.363 50.106 916.098 49.6978C915.833 49.2897 915.288 49.1735 914.88 49.4384C914.471 49.7033 914.355 50.2488 914.62 50.657C914.885 51.0651 915.431 51.1813 915.839 50.9164Z" fill="white"/>
<path d="M590.683 250.024C591.091 249.759 591.207 249.213 590.942 248.805C590.678 248.397 590.132 248.281 589.724 248.546C589.316 248.811 589.2 249.356 589.464 249.764C589.729 250.173 590.275 250.289 590.683 250.024Z" fill="white"/>
<path d="M517.815 281.211C518.224 280.946 518.34 280.401 518.075 279.993C517.81 279.585 517.264 279.468 516.856 279.733C516.448 279.998 516.332 280.544 516.597 280.952C516.862 281.36 517.407 281.476 517.815 281.211Z" fill="white"/>
<path d="M496.652 266.94C497.06 266.675 497.177 266.129 496.912 265.721C496.647 265.313 496.101 265.197 495.693 265.462C495.285 265.727 495.169 266.272 495.434 266.68C495.699 267.089 496.244 267.205 496.652 266.94Z" fill="white"/>
<path d="M729.066 98.6137C729.474 98.3488 729.59 97.8032 729.325 97.3951C729.06 96.9869 728.515 96.8708 728.107 97.1356C727.699 97.4005 727.582 97.9461 727.847 98.3543C728.112 98.7624 728.658 98.8786 729.066 98.6137Z" fill="white"/>
<path d="M667.003 190.696C667.411 190.431 667.527 189.885 667.262 189.477C666.997 189.069 666.452 188.953 666.044 189.218C665.636 189.483 665.519 190.028 665.784 190.436C666.049 190.844 666.595 190.961 667.003 190.696Z" fill="white"/>
<path d="M804.894 131.317C805.302 131.052 805.418 130.506 805.153 130.098C804.888 129.69 804.342 129.574 803.934 129.839C803.526 130.104 803.41 130.649 803.675 131.057C803.94 131.466 804.485 131.582 804.894 131.317Z" fill="white"/>
<path d="M913.698 13.0981C914.106 12.8332 914.222 12.2876 913.958 11.8795C913.693 11.4713 913.147 11.3552 912.739 11.62C912.331 11.8849 912.215 12.4305 912.48 12.8386C912.744 13.2468 913.29 13.3629 913.698 13.0981Z" fill="white"/>
<path opacity="0.3" d="M787.272 47.5328C787.816 47.1795 787.971 46.4519 787.618 45.9075C787.265 45.3632 786.537 45.2082 785.993 45.5615C785.448 45.9148 785.293 46.6425 785.646 47.1868C786 47.7312 786.727 47.886 787.272 47.5328Z" fill="white"/>
<path d="M764.577 12.5582C765.121 12.2049 765.276 11.4773 764.923 10.9329C764.57 10.3886 763.842 10.2337 763.298 10.5869C762.753 10.9402 762.598 11.6678 762.952 12.2122C763.305 12.7566 764.033 12.9115 764.577 12.5582Z" fill="white"/>
<path d="M819.683 41.9067C820.091 41.6418 820.207 41.0962 819.942 40.688C819.677 40.2799 819.132 40.1637 818.723 40.4286C818.315 40.6935 818.199 41.2391 818.464 41.6472C818.729 42.0554 819.274 42.1715 819.683 41.9067Z" fill="white"/>
<path opacity="0.3" d="M831.108 7.18906C831.652 6.8358 831.807 6.10815 831.454 5.56379C831.1 5.01944 830.373 4.86452 829.828 5.21779C829.284 5.57105 829.129 6.29871 829.482 6.84306C829.836 7.38742 830.563 7.54233 831.108 7.18906Z" fill="white"/>
<path opacity="0.3" d="M902.577 10.5152C903.122 10.162 903.277 9.43431 902.923 8.88996C902.57 8.34561 901.842 8.19069 901.298 8.54396C900.754 8.89722 900.599 9.62488 900.952 10.1692C901.305 10.7136 902.033 10.8685 902.577 10.5152Z" fill="white"/>
<path opacity="0.3" d="M845.577 48.9059C846.122 48.5526 846.277 47.8249 845.923 47.2806C845.57 46.7362 844.842 46.5813 844.298 46.9346C843.754 47.2878 843.599 48.0155 843.952 48.5599C844.305 49.1042 845.033 49.2591 845.577 48.9059Z" fill="white"/>
<path opacity="0.3" d="M568.241 240.785C568.785 240.431 568.94 239.704 568.587 239.159C568.234 238.615 567.506 238.46 566.962 238.813C566.417 239.167 566.262 239.894 566.616 240.439C566.969 240.983 567.697 241.138 568.241 240.785Z" fill="white"/>
<path opacity="0.3" d="M510.749 239.587C511.293 239.234 511.448 238.507 511.095 237.962C510.742 237.418 510.014 237.263 509.47 237.616C508.925 237.969 508.77 238.697 509.124 239.241C509.477 239.786 510.204 239.941 510.749 239.587Z" fill="white"/>
<path opacity="0.11" d="M872.788 8.84532C873.333 8.49206 873.488 7.7644 873.134 7.22004C872.781 6.67569 872.053 6.52077 871.509 6.87404C870.965 7.2273 870.81 7.95496 871.163 8.49931C871.516 9.04367 872.244 9.19858 872.788 8.84532Z" fill="white"/>
<path opacity="0.3" d="M570.327 177.121C570.871 176.767 571.026 176.04 570.673 175.495C570.32 174.951 569.592 174.796 569.048 175.149C568.503 175.503 568.348 176.23 568.702 176.775C569.055 177.319 569.783 177.474 570.327 177.121Z" fill="white"/>
<path opacity="0.11" d="M550.632 175.9C551.176 175.547 551.331 174.819 550.978 174.275C550.624 173.73 549.897 173.575 549.352 173.929C548.808 174.282 548.653 175.01 549.006 175.554C549.36 176.098 550.087 176.253 550.632 175.9Z" fill="white"/>
<path opacity="0.3" d="M567.155 209.984C567.699 209.631 567.854 208.903 567.501 208.359C567.148 207.814 566.42 207.659 565.876 208.013C565.331 208.366 565.177 209.094 565.53 209.638C565.883 210.182 566.611 210.337 567.155 209.984Z" fill="white"/>
<path d="M597.62 189.512C598.028 189.247 598.144 188.702 597.879 188.293C597.614 187.885 597.069 187.769 596.66 188.034C596.252 188.299 596.136 188.845 596.401 189.253C596.666 189.661 597.211 189.777 597.62 189.512Z" fill="white"/>
</g>
<mask id="path-114-inside-1_33_6398" fill="white">
<path d="M-512 1047.79C-512 651.92 -191.08 331 204.795 331H819.205C1215.08 331 1536 651.92 1536 1047.79V1047.79C1536 1443.67 1215.08 1764.59 819.205 1764.59H204.795C-191.08 1764.59 -512 1443.67 -512 1047.79V1047.79Z"/>
</mask>
<path d="M-512 1047.79C-512 651.92 -191.08 331 204.795 331H819.205C1215.08 331 1536 651.92 1536 1047.79V1047.79C1536 1443.67 1215.08 1764.59 819.205 1764.59H204.795C-191.08 1764.59 -512 1443.67 -512 1047.79V1047.79Z" fill="#12181F"/>
<path d="M-512 1047.79C-512 651.368 -190.632 330 205.795 330H818.205C1214.63 330 1536 651.368 1536 1047.79C1536 652.472 1215.08 332 819.205 332H204.795C-191.08 332 -512 652.472 -512 1047.79ZM1536 1764.59H-512H1536ZM-512 1764.59V331V1764.59ZM1536 331V1764.59V331Z" fill="#7876C5" fill-opacity="0.4" mask="url(#path-114-inside-1_33_6398)"/>
</g>
</g>
<defs>
<radialGradient id="paint0_radial_33_6398" cx="0" cy="0" r="1" gradientUnits="userSpaceOnUse" gradientTransform="translate(512 300) scale(593.417 593.417)">
<stop/>
<stop offset="0.8" stop-opacity="0"/>
</radialGradient>
<radialGradient id="paint1_radial_33_6398" cx="0" cy="0" r="1" gradientUnits="userSpaceOnUse" gradientTransform="translate(512 600) scale(788.761 788.761)">
<stop stop-color="#7877C6"/>
<stop offset="0.7" stop-opacity="0"/>
</radialGradient>
<radialGradient id="paint2_radial_33_6398" cx="0" cy="0" r="1" gradientUnits="userSpaceOnUse" gradientTransform="translate(512 665.5) scale(851.15 851.15)">
<stop/>
<stop offset="1" stop-opacity="0"/>
</radialGradient>
<clipPath id="clip0_33_6398">
<rect width="1024" height="356" fill="white"/>
</clipPath>
<clipPath id="clip1_33_6398">
<rect width="1024" height="363" fill="white"/>
</clipPath>
</defs>
</svg>
