<svg width="129" height="101" viewBox="0 0 129 101" fill="none" xmlns="http://www.w3.org/2000/svg">
<path d="M23.5159 99.8098V93.1729C23.5159 90.6282 21.9669 88.9694 19.3118 88.9694C17.9845 88.9694 16.5464 89.4118 15.5507 90.8499C14.7767 89.633 13.6706 88.9694 12.0113 88.9694C10.9047 88.9694 9.79916 89.3009 8.91381 90.5179V89.1906H6.59082V99.8098H8.91381V93.9469C8.91381 92.0669 9.90952 91.1815 11.4585 91.1815C13.0065 91.1815 13.7815 92.1772 13.7815 93.9469V99.8098H16.1045V93.9469C16.1045 92.0669 17.21 91.1815 18.6482 91.1815C20.1972 91.1815 20.9712 92.1772 20.9712 93.9469V99.8098H23.5159ZM57.9177 89.1906H54.1571V85.9828H51.8341V89.1906H49.7323V91.2919H51.8336V96.1596C51.8336 98.5934 52.8293 100.031 55.4844 100.031C56.4801 100.031 57.5857 99.6995 58.3607 99.257L57.6965 97.2656C57.0329 97.708 56.2589 97.8189 55.7056 97.8189C54.5995 97.8189 54.1571 97.1553 54.1571 96.0487V91.2919H57.9177V89.1906ZM77.6082 88.9689C76.2809 88.9689 75.396 89.633 74.8428 90.5179V89.1906H72.5198V99.8098H74.8428V93.8366C74.8428 92.0669 75.6168 91.0712 77.0549 91.0712C77.4973 91.0712 78.0506 91.182 78.493 91.2924L79.1567 89.0802C78.7142 88.9694 78.0506 88.9694 77.6082 88.9694M47.8518 90.076C46.7452 89.3015 45.1967 88.9699 43.5374 88.9699C40.8828 88.9699 39.1131 90.2972 39.1131 92.3989C39.1131 94.1691 40.4404 95.1644 42.7634 95.4964L43.8694 95.6073C45.0864 95.828 45.75 96.1601 45.75 96.7133C45.75 97.4873 44.8652 98.0406 43.3162 98.0406C41.7672 98.0406 40.5508 97.4873 39.7763 96.9346L38.6702 98.7043C39.8871 99.5891 41.5465 100.032 43.2053 100.032C46.3028 100.032 48.073 98.5939 48.073 96.6025C48.073 94.7219 46.6349 93.7262 44.4222 93.3946L43.3162 93.2838C42.3205 93.1729 41.5465 92.9522 41.5465 92.2886C41.5465 91.5141 42.3205 91.0717 43.5374 91.0717C44.8652 91.0717 46.1924 91.6244 46.8561 91.9565L47.8518 90.076ZM109.577 88.9699C108.249 88.9699 107.365 89.6335 106.811 90.5184V89.1911H104.488V99.8103H106.811V93.8371C106.811 92.0674 107.586 91.0717 109.023 91.0717C109.466 91.0717 110.02 91.1825 110.462 91.2929L111.126 89.0807C110.683 88.9699 110.02 88.9699 109.577 88.9699ZM79.9312 94.5007C79.9312 97.7086 82.1433 100.032 85.5728 100.032C87.1213 100.032 88.2274 99.7 89.3335 98.8151L88.2274 96.9346C87.3425 97.5982 86.4577 97.9298 85.462 97.9298C83.5814 97.9298 82.2542 96.6025 82.2542 94.5007C82.2542 92.5098 83.5814 91.182 85.462 91.0717C86.4577 91.0717 87.3425 91.4032 88.2274 92.0674L89.3335 90.1868C88.2274 89.3015 87.1213 88.9699 85.5728 88.9699C82.1433 88.9699 79.9312 91.2929 79.9312 94.5007ZM101.391 94.5007V89.1911H99.0683V90.5184C98.2938 89.5232 97.1878 88.9699 95.7496 88.9699C92.763 88.9699 90.44 91.2929 90.44 94.5007C90.44 97.7086 92.763 100.032 95.7496 100.032C97.2981 100.032 98.4047 99.4788 99.0683 98.483V99.8103H101.391V94.5007ZM92.8734 94.5007C92.8734 92.6202 94.0903 91.0717 96.0812 91.0717C97.9618 91.0717 99.2896 92.5098 99.2896 94.5007C99.2896 96.3813 97.9618 97.9298 96.0812 97.9298C94.0903 97.8189 92.8734 96.3813 92.8734 94.5007ZM65.1084 88.9699C62.0109 88.9699 59.7983 91.182 59.7983 94.5007C59.7983 97.8194 62.0104 100.032 65.2188 100.032C66.7672 100.032 68.3162 99.5891 69.5332 98.5939L68.4266 96.9346C67.5417 97.5982 66.4357 98.0406 65.3296 98.0406C63.8915 98.0406 62.4533 97.377 62.1213 95.4959H69.9756V94.6116C70.0864 91.182 68.0955 88.9699 65.1084 88.9699ZM65.1079 90.9608C66.5455 90.9608 67.5417 91.8462 67.7625 93.5055H62.2316C62.4528 92.0674 63.4485 90.9608 65.1079 90.9608ZM122.74 94.5007V84.9875H120.417V90.5184C119.643 89.5232 118.537 88.9699 117.098 88.9699C114.112 88.9699 111.789 91.2929 111.789 94.5007C111.789 97.7086 114.112 100.032 117.098 100.032C118.647 100.032 119.753 99.4788 120.417 98.483V99.8103H122.74V94.5007ZM114.223 94.5007C114.223 92.6202 115.439 91.0717 117.431 91.0717C119.311 91.0717 120.638 92.5098 120.638 94.5007C120.638 96.3813 119.311 97.9298 117.431 97.9298C115.439 97.8189 114.223 96.3813 114.223 94.5007ZM36.5679 94.5007V89.1911H34.2449V90.5184C33.4704 89.5232 32.3644 88.9699 30.9262 88.9699C27.9396 88.9699 25.6166 91.2929 25.6166 94.5007C25.6166 97.7086 27.9396 100.032 30.9262 100.032C32.4752 100.032 33.5813 99.4788 34.2449 98.483V99.8103H36.5679V94.5007ZM27.9396 94.5007C27.9396 92.6202 29.1565 91.0717 31.1475 91.0717C33.028 91.0717 34.3558 92.5098 34.3558 94.5007C34.3558 96.3813 33.028 97.9298 31.1475 97.9298C29.1565 97.8189 27.9396 96.3813 27.9396 94.5007Z" fill="white"/>
<path d="M47.0776 8.54907H81.9224V71.1593H47.0776V8.54907Z" fill="#E1E1E1"/>
<path d="M49.2901 39.8543C49.2901 27.1333 55.2633 15.85 64.4444 8.54894C57.6972 3.23933 49.1797 0.0314941 39.8878 0.0314941C17.8738 0.0314941 0.0644531 17.8409 0.0644531 39.8543C0.0644531 61.8678 17.8738 79.6772 39.8873 79.6772C49.1792 79.6772 57.6967 76.4693 64.4444 71.1592C55.2633 63.9691 49.2901 52.5753 49.2901 39.8543Z" fill="white"/>
<path d="M128.935 39.8543C128.935 61.8673 111.126 79.6772 89.1123 79.6772C79.8204 79.6772 71.3029 76.4693 64.5552 71.1592C73.8471 63.8587 79.71 52.5753 79.71 39.8543C79.71 27.1333 73.7363 15.85 64.5552 8.54894C71.3024 3.23933 79.8204 0.0314941 89.1123 0.0314941C111.126 0.0314941 128.935 17.9517 128.935 39.8543Z" fill="#CFCFCF"/>
</svg>
