<svg width="150" height="25" viewBox="0 0 150 25" fill="none" xmlns="http://www.w3.org/2000/svg">
<path d="M43.102 15.6936V7.06188C43.102 6.0972 43.4096 5.33544 44.0165 4.79758C44.6113 4.27127 45.3783 4.00458 46.2959 4.00458H46.9285V5.67091H46.2941C45.8369 5.69374 45.4946 5.79795 45.3222 5.97094C45.0314 6.27754 44.8804 6.58229 44.8794 6.87052H46.9285V8.56546H44.8794V15.6936H43.102ZM47.6989 15.6936V7.06188C47.6989 6.09694 48.0065 5.33517 48.6131 4.79758C49.208 4.27127 49.9749 4.00458 50.8928 4.00458H51.5254V5.67091H50.8907C50.4335 5.69374 50.0915 5.79795 49.9189 5.97094C49.6283 6.27754 49.4771 6.58229 49.476 6.87052H51.5254V8.56546H49.476V15.6936H47.6989ZM64.4359 15.6936V10.6119C64.4359 10.0197 64.2213 9.52042 63.7793 9.08572C63.3543 8.6673 62.876 8.46413 62.3166 8.46413L62.2524 8.46492C61.6442 8.47358 61.1505 8.66835 60.7381 9.06079C60.3332 9.44718 60.1362 9.92676 60.1362 10.5266V15.6936H58.3588V4.00458H60.1362V7.50864C60.7077 7.0372 61.3832 6.78022 62.1536 6.74242C62.2225 6.739 62.2901 6.73743 62.3572 6.73743C63.3757 6.73743 64.2706 7.10807 65.0169 7.83913C65.8106 8.61638 66.2131 9.58788 66.2131 10.7258V15.6936H64.4359ZM77.0459 15.6936V6.87052H78.7515V7.39026C78.9027 7.26295 79.0694 7.1506 79.2512 7.05374C79.6749 6.82642 80.1173 6.71118 80.5651 6.71118C80.6041 6.71118 80.6429 6.71197 80.6819 6.7138L81.0142 6.7285V8.48041L80.6799 8.49327C80.2506 8.50981 79.9184 8.61927 79.6631 8.82874C79.3139 9.11539 79.1642 9.30202 79.1008 9.40833C78.9551 9.66138 78.8797 10.0252 78.8797 10.4838V15.6936H77.0459ZM112.253 15.6936V6.87052H113.958V7.39026C114.109 7.26295 114.276 7.1506 114.458 7.05374C114.881 6.82642 115.324 6.71118 115.772 6.71118C115.811 6.71118 115.85 6.71197 115.889 6.7138L116.221 6.7285V8.48041L115.887 8.49327C115.458 8.50981 115.125 8.61927 114.87 8.82874C114.52 9.11539 114.371 9.30202 114.307 9.40833C114.162 9.66138 114.086 10.0252 114.086 10.4838V15.6936H112.253ZM71.6556 8.42213C70.8962 8.42213 70.266 8.6862 69.7291 9.22905C69.1817 9.78291 68.9113 10.4323 68.9029 11.214C68.8856 11.9921 69.1314 12.6512 69.6549 13.2326C70.1735 13.8088 70.7885 14.1018 71.5343 14.1278C71.5937 14.1306 71.6461 14.1325 71.6983 14.1325C72.4233 14.1325 73.0321 13.8613 73.559 13.3046C74.1313 12.7008 74.4012 12.0133 74.3842 11.2033C74.3585 10.4302 74.0891 9.78396 73.5606 9.2322C73.0391 8.68725 72.4286 8.4224 71.6933 8.4224L71.6556 8.42213ZM71.5039 15.8791C70.2877 15.8484 69.2409 15.3801 68.3951 14.4874C67.5526 13.5973 67.1257 12.5236 67.1257 11.2962C67.1257 10.0184 67.5859 8.9067 68.4936 7.99269C69.3656 7.11385 70.4143 6.66839 71.61 6.66839C71.6624 6.66839 71.7153 6.66918 71.7685 6.67076C72.9875 6.71197 74.0357 7.18735 74.8844 8.08404C75.7313 8.97863 76.1608 10.0546 76.1608 11.282C76.1608 12.5415 75.6983 13.6437 74.7856 14.5577C73.9083 15.4366 72.8581 15.8818 71.664 15.8818C71.664 15.8818 71.5576 15.881 71.5039 15.8791ZM87.8151 10.3063C87.6482 9.8131 87.3717 9.40781 86.9761 9.0747C86.4745 8.65418 85.8899 8.44523 85.1885 8.43657L85.1489 8.43631C84.4647 8.43631 83.883 8.63948 83.3694 9.05711C82.9556 9.39416 82.6684 9.80549 82.4986 10.3063H87.8151ZM85.1201 15.8941C83.9506 15.8941 82.9024 15.4505 82.0042 14.5753C81.0863 13.6815 80.6101 12.5992 80.5894 11.3592C80.5588 10.0504 81.0271 8.9067 81.9809 7.96198C82.8694 7.08183 83.9228 6.63532 85.1114 6.63532C85.201 6.63532 85.2914 6.63768 85.3829 6.64267C86.5508 6.71485 87.5759 7.20126 88.4317 8.08876C89.2626 8.97311 89.6821 9.97428 89.6821 11.0681V12.001H82.4572C82.5872 12.5593 82.87 13.0245 83.3152 13.4151C83.8518 13.8852 84.4663 14.1133 85.1937 14.1133H85.2317C86.3773 14.0963 87.1747 13.5784 87.6678 12.5305L87.7619 12.3307H89.6247L89.4636 12.7938C89.1368 13.7343 88.5768 14.4916 87.7991 15.0447C87.0227 15.5972 86.147 15.8828 85.1966 15.8933L85.1201 15.8941ZM36.0493 5.61394C34.8719 5.61394 33.8859 6.02501 33.0348 6.87104C32.1847 7.71707 31.7715 8.70274 31.7715 9.88503C31.7715 11.0579 32.1847 12.0388 33.0348 12.8838C33.8869 13.7311 34.8785 14.1469 36.0658 14.1561H36.1017C37.2918 14.1561 38.2891 13.7443 39.1502 12.8966C40.0175 12.043 40.435 11.0445 40.4263 9.84408C40.4085 8.65549 39.9806 7.67428 39.1177 6.84689C38.2514 6.0174 37.2476 5.61394 36.0493 5.61394ZM36.0917 15.9075C34.4414 15.9075 32.9934 15.3237 31.7883 14.1716C30.579 13.0156 29.9658 11.602 29.9658 9.97034C29.9658 8.30506 30.5622 6.85555 31.7382 5.66251C32.9153 4.46788 34.3562 3.8623 36.0207 3.8623C37.6797 3.8623 39.1337 4.43848 40.343 5.57483C41.5588 6.71722 42.1754 8.12892 42.1754 9.77058C42.1754 11.4458 41.5738 12.9029 40.3875 14.101C39.201 15.3001 37.7556 15.9075 36.0917 15.9075ZM106.862 8.42213C106.103 8.42213 105.473 8.6862 104.936 9.22931C104.389 9.78318 104.118 10.4326 104.11 11.214C104.092 11.9918 104.339 12.651 104.862 13.2332C105.381 13.8088 105.995 14.1018 106.741 14.1278C106.8 14.1306 106.853 14.1325 106.905 14.1325C107.63 14.1325 108.239 13.8613 108.766 13.3046C109.338 12.7008 109.608 12.0133 109.591 11.2033C109.566 10.4302 109.296 9.78396 108.768 9.2322C108.246 8.68725 107.636 8.4224 106.9 8.4224L106.862 8.42213ZM97.3676 15.9083C95.7627 15.9083 94.3658 15.3114 93.2162 14.1348C92.0504 12.9415 91.4592 11.4973 91.4592 9.84224C91.4592 8.13575 92.0551 6.69386 93.2301 5.55646C94.3634 4.44216 95.7671 3.87622 97.4009 3.87622L97.4447 3.87648C98.5956 3.88619 99.6565 4.18649 100.6 4.76923C101.506 5.34436 102.217 6.12319 102.718 7.08629L102.983 7.59579H100.988L100.885 7.44433C100.048 6.22189 98.9163 5.62759 97.4248 5.62759L97.3616 5.62812C96.2286 5.62812 95.2824 6.02606 94.4653 6.84479C93.6457 7.66562 93.234 8.6253 93.2073 9.77871C93.1811 10.9754 93.5796 11.9826 94.426 12.857C95.2716 13.7311 96.2587 14.1561 97.4429 14.1561C98.1205 14.1561 98.7916 13.9752 99.4385 13.6183C100.06 13.2788 100.551 12.8449 100.898 12.3281L101.001 12.1743H102.41C102.358 11.8913 102.333 11.5983 102.333 11.2962C102.333 10.0184 102.793 8.90696 103.701 7.99269C104.573 7.11385 105.621 6.66839 106.817 6.66839C106.869 6.66839 106.922 6.66918 106.975 6.67076C108.194 6.71197 109.242 7.18735 110.091 8.08377C110.939 8.97889 111.368 10.0549 111.368 11.282C111.368 12.5415 110.905 13.6437 109.993 14.5577C109.116 15.4366 108.065 15.8818 106.871 15.8818C106.871 15.8818 106.764 15.881 106.711 15.8791C105.495 15.8484 104.448 15.3801 103.602 14.4874C103.148 14.0073 102.814 13.4739 102.604 12.8919C102.084 13.7968 101.394 14.5176 100.549 15.036C99.6406 15.5943 98.5974 15.8875 97.4489 15.9075L97.3676 15.9083ZM54.5451 15.9138C54.4786 15.9138 54.4112 15.9114 54.3436 15.907C53.5688 15.8524 52.9137 15.5363 52.3941 14.967C51.8757 14.4008 51.6127 13.7172 51.6127 12.936V12.5877H53.4325V13.2093C53.4325 13.3888 53.5507 13.5954 53.7834 13.823C54.0124 14.0474 54.2391 14.1564 54.4775 14.1564C54.8661 14.1482 55.1415 14.0461 55.3433 13.8432C55.5152 13.6637 55.6048 13.4216 55.6121 13.1087C55.6166 12.7746 55.5238 12.294 54.6698 12.0178L53.7192 11.7157C52.5908 11.3603 51.9659 10.5452 51.9119 9.35925C51.8792 8.63134 52.1276 8.0003 52.6509 7.48423C53.1637 6.97709 53.7907 6.70331 54.5139 6.67102C54.5556 6.66892 54.5994 6.66787 54.6429 6.66787C55.2303 6.66787 55.7864 6.87445 56.2953 7.28185C56.8526 7.72809 57.1584 8.29377 57.2035 8.96314L57.2043 9.57738H55.37V9.04162C55.37 8.86418 55.3016 8.7345 55.1488 8.62163C54.9665 8.48749 54.7613 8.4224 54.5223 8.4224C54.3153 8.42922 54.1311 8.50613 53.971 8.65733C53.814 8.80512 53.738 8.97836 53.7315 9.20253C53.7137 9.47606 53.7784 9.85248 54.5344 10.1095L55.4725 10.4242C56.6959 10.8431 57.3589 11.6753 57.4451 12.8974C57.5103 13.7338 57.2153 14.4685 56.568 15.0788C55.9808 15.6327 55.3 15.9138 54.5451 15.9138ZM120.295 8.43185C119.567 8.43185 118.956 8.70274 118.428 9.2595C117.854 9.86429 117.584 10.5515 117.602 11.3605C117.619 12.1359 117.886 12.7806 118.419 13.3311C118.946 13.8765 119.566 14.1419 120.314 14.1419C121.082 14.1419 121.722 13.8752 122.27 13.3271C122.819 12.7767 123.094 12.1288 123.112 11.3463C123.12 10.5743 122.869 9.91443 122.343 9.33221C121.823 8.75524 121.207 8.46229 120.459 8.43657C120.4 8.43316 120.347 8.43185 120.295 8.43185ZM115.853 18.5453V11.282C115.853 10.0226 116.316 8.92061 117.229 8.00608C118.106 7.12802 119.156 6.68257 120.351 6.68257C120.404 6.68257 120.457 6.68336 120.51 6.68519C121.727 6.71564 122.773 7.18394 123.619 8.07669C124.461 8.96629 124.889 10.0399 124.889 11.2679C124.889 12.5454 124.428 13.6568 123.521 14.5714C122.648 15.4505 121.6 15.8962 120.406 15.8962C120.406 15.8962 120.3 15.8951 120.246 15.8933C119.24 15.8526 118.354 15.5258 117.602 14.9194V18.5453H115.853Z" fill="#FEFEFE"/>
<path d="M39.0524 7.91435C38.8992 7.73614 38.7295 7.57649 38.5488 7.4282C38.3783 7.28825 38.1983 7.16373 38.0064 7.05795C37.7797 6.93304 37.5429 6.83529 37.2945 6.76404C36.8815 6.64557 36.462 6.60666 36.0352 6.62833C35.7912 6.64072 35.5511 6.67695 35.3148 6.74019C35.0861 6.80138 34.8658 6.88583 34.6553 6.99673C34.4274 7.11686 34.2149 7.26088 34.0164 7.42804C33.8486 7.56929 33.6921 7.72206 33.5468 7.88709C33.3472 8.11372 33.1739 8.3601 33.0348 8.63093C32.9146 8.86519 32.8211 9.10992 32.757 9.36755C32.6939 9.62101 32.6589 9.87723 32.6463 10.1383C32.6341 10.3888 32.6453 10.6376 32.6792 10.8854C32.727 11.2349 32.8245 11.5692 32.9739 11.8871C32.992 11.9255 33.0114 11.9632 33.0242 12.0058C33.0108 11.989 32.9966 11.9728 32.9841 11.9552C32.7952 11.6898 32.637 11.4069 32.5241 11.0979C32.4178 10.8071 32.3527 10.5069 32.3236 10.1978C32.2975 9.92121 32.2994 9.64469 32.3276 9.36888C32.3534 9.11626 32.406 8.86892 32.4837 8.62738C32.554 8.40901 32.6461 8.20044 32.758 8.00227C32.8814 7.78389 33.0271 7.58124 33.1907 7.39236C33.3657 7.19044 33.5558 7.00518 33.7637 6.84027C33.9842 6.66534 34.2215 6.51788 34.4767 6.40192C34.8806 6.21841 35.3038 6.12197 35.7441 6.10874C35.9218 6.1034 36.1005 6.10553 36.2777 6.11858C36.4956 6.13464 36.7109 6.17455 36.9226 6.23304C37.1481 6.29535 37.3652 6.3801 37.5742 6.4871C37.8132 6.60938 38.0348 6.75932 38.2429 6.93109C38.4438 7.09686 38.6286 7.28016 38.7958 7.48122C38.9465 7.66238 39.0816 7.85587 39.1882 8.07027C39.1429 8.01831 39.0973 7.96664 39.0524 7.91435Z" fill="white" fill-opacity="0.35"/>
<path d="M127.617 15.4324V5.49506H125.14V4.2944H131.363V5.49506H128.873V15.4324H127.617Z" fill="#63C7D9"/>
<path d="M134.613 8.16112C133.776 8.16112 133.053 8.4601 132.463 9.0502C131.874 9.64055 131.571 10.3653 131.562 11.204C131.543 12.0356 131.821 12.7724 132.388 13.3953C132.954 14.0179 133.647 14.3521 134.446 14.3889C134.492 14.391 134.539 14.3917 134.585 14.3917C135.39 14.3917 136.09 14.0849 136.668 13.4798C137.281 12.8383 137.583 12.0679 137.565 11.1909C137.546 10.3603 137.247 9.63976 136.676 9.04915C136.106 8.45984 135.412 8.16112 134.613 8.16112ZM134.416 15.6181C133.283 15.579 132.304 15.1333 131.507 14.2933C130.71 13.4533 130.306 12.4403 130.306 11.2819C130.306 10.0752 130.741 9.02578 131.599 8.1627C132.411 7.34371 133.39 6.92844 134.507 6.92844C134.569 6.92844 134.632 6.92949 134.695 6.93211C135.851 6.97096 136.848 7.41878 137.657 8.26349C138.467 9.10821 138.859 10.1201 138.82 11.2707V15.4325H137.565V14.3007C136.732 15.1763 135.721 15.62 134.557 15.62C134.511 15.62 134.464 15.6194 134.416 15.6181Z" fill="#63C7D9"/>
<path d="M140.354 15.4323H141.61V4.26593H140.354V15.4323Z" fill="#63C7D9"/>
<path d="M148.37 15.4324L145.779 12.2906L144.57 13.8217V15.4324H143.229V4.26605H144.527V11.8438L148.162 7.13199H149.725L146.567 11.3143L150 15.4324H148.37Z" fill="#63C7D9"/>
<path opacity="0.7" d="M113.038 20.5937H113.413V19.9362H113.038V20.5937ZM109.819 19.9362V23.7469H110.194V22.0763C110.194 21.8359 110.276 21.6374 110.44 21.481C110.604 21.3243 110.806 21.2445 111.045 21.2413C111.281 21.2345 111.486 21.3177 111.662 21.491C111.838 21.6637 111.926 21.8689 111.926 22.1062V23.7469H112.3V22.1456C112.3 21.7831 112.174 21.4781 111.922 21.2311C111.67 20.9841 111.369 20.8688 111.02 20.8851C110.683 20.9016 110.409 21.0502 110.194 21.33V19.9362H109.819ZM102.942 20.5937H103.317V19.9362H102.942V20.5937ZM60.5676 19.9362V23.7469H60.9426V22.0763C60.9426 21.8359 61.0246 21.6374 61.1887 21.481C61.353 21.3243 61.5545 21.2445 61.7934 21.2413C62.029 21.2345 62.2347 21.3177 62.4103 21.491C62.5864 21.6637 62.6739 21.8689 62.6739 22.1062V23.7469H63.0489V22.1456C63.0489 21.7831 62.9228 21.4781 62.6707 21.2311C62.4187 20.9841 62.1176 20.8688 61.768 20.8851C61.4321 20.9016 61.1567 21.0502 60.9426 21.33V19.9362H60.5676ZM95.5464 19.9414V22.9313C95.5464 23.5145 95.8883 23.8064 96.5725 23.8064V23.4949C96.1383 23.4949 95.9211 23.2854 95.9211 22.8672V21.276H96.5725V20.9253H95.9211V19.9414H95.5464ZM31.2997 19.9464C31.0136 19.9464 30.7783 20.0273 30.5943 20.1882C30.4101 20.3499 30.3179 20.5806 30.3179 20.8801V22.8129C30.3179 23.1129 30.4101 23.3434 30.5943 23.5048C30.7783 23.6663 31.0136 23.7469 31.2997 23.7469H32.3901V23.3912H31.2966C31.0985 23.3912 30.9601 23.3515 30.881 23.273C30.7557 23.1415 30.6928 23.0103 30.6928 22.8788V22.0026H31.9658V21.6364H30.6928V20.8163C30.6928 20.6846 30.7557 20.5525 30.881 20.421C30.9601 20.3415 31.0985 20.3021 31.2966 20.3021H32.3901V19.9464H31.2997ZM136.67 21.2733C136.362 21.5781 136.213 21.9411 136.223 22.3632C136.23 22.762 136.381 23.1053 136.677 23.3935C136.973 23.682 137.314 23.823 137.698 23.8159C138.004 23.813 138.282 23.7222 138.532 23.5442C138.782 23.3665 138.96 23.126 139.065 22.8223H138.666C138.475 23.2279 138.157 23.434 137.713 23.4405C137.427 23.4437 137.179 23.3534 136.968 23.1686C136.758 22.984 136.638 22.7502 136.608 22.4669H139.134V22.2645C139.134 21.9149 139.001 21.5986 138.734 21.3153C138.458 21.0287 138.133 20.8738 137.758 20.8507C137.728 20.8492 137.699 20.8484 137.671 20.8484C137.289 20.8484 136.956 20.9898 136.67 21.2733ZM136.991 21.4736C137.193 21.3088 137.429 21.2282 137.698 21.2311C137.968 21.2345 138.2 21.3177 138.394 21.481C138.588 21.644 138.711 21.8574 138.764 22.1209H136.608C136.661 21.854 136.788 21.6382 136.991 21.4736ZM90.787 21.2733C90.4791 21.5781 90.3305 21.9411 90.3405 22.3632C90.347 22.762 90.4985 23.1053 90.7943 23.3935C91.0904 23.682 91.4308 23.823 91.8155 23.8159C92.1215 23.813 92.3993 23.7222 92.6493 23.5442C92.8993 23.3665 93.0772 23.126 93.1823 22.8223H92.7827C92.5919 23.2279 92.2743 23.434 91.8304 23.4405C91.5443 23.4437 91.2961 23.3534 91.0855 23.1686C90.8748 22.984 90.755 22.7502 90.7252 22.4669H93.2512V22.2645C93.2512 21.9149 93.1181 21.5986 92.8516 21.3153C92.5754 21.0287 92.2494 20.8738 91.8747 20.8507C91.8456 20.8492 91.8165 20.8484 91.788 20.8484C91.4065 20.8484 91.0729 20.9898 90.787 21.2733ZM91.1077 21.4736C91.31 21.3088 91.5461 21.2282 91.8155 21.2311C92.0854 21.2345 92.3173 21.3177 92.5112 21.481C92.7051 21.644 92.8288 21.8574 92.8815 22.1209H90.7252C90.7778 21.854 90.9052 21.6382 91.1077 21.4736ZM36.025 21.2733C35.7177 21.5781 35.5688 21.9411 35.5788 22.3632C35.5851 22.762 35.7365 23.1053 36.0324 23.3935C36.3287 23.682 36.6689 23.823 37.0535 23.8159C37.3596 23.813 37.6376 23.7222 37.8876 23.5442C38.1376 23.3665 38.3147 23.126 38.4203 22.8223H38.0207C37.8299 23.2279 37.5126 23.434 37.0685 23.4405C36.7823 23.4437 36.5339 23.3534 36.3235 23.1686C36.1131 22.984 35.9931 22.7502 35.9632 22.4669H38.4892V22.2645C38.4892 21.9149 38.3561 21.5986 38.0899 21.3153C37.8134 21.0287 37.4877 20.8738 37.1127 20.8507C37.0837 20.8492 37.0546 20.8484 37.026 20.8484C36.6445 20.8484 36.3109 20.9898 36.025 21.2733ZM36.3458 21.4736C36.5481 21.3088 36.7841 21.2282 37.0535 21.2311C37.3234 21.2345 37.5551 21.3177 37.7492 21.481C37.9434 21.644 38.0668 21.8574 38.1192 22.1209H35.9632C36.0159 21.854 36.1435 21.6382 36.3458 21.4736ZM72.6533 21.2783C72.3606 21.5731 72.2141 21.9267 72.2141 22.3383C72.2141 22.7336 72.3501 23.0746 72.6221 23.3615C72.8938 23.6482 73.2232 23.798 73.6097 23.8114C74.052 23.824 74.4254 23.6563 74.7302 23.3072V23.7469H75.1052V22.3533V22.3333C75.1183 21.9411 74.9867 21.6012 74.7105 21.3127C74.4343 21.0245 74.0987 20.8738 73.704 20.8607C73.6826 20.8597 73.6611 20.8594 73.6396 20.8594C73.2591 20.8594 72.9305 20.999 72.6533 21.2783ZM73.6176 23.4455C73.3309 23.4321 73.0859 23.314 72.8834 23.0914C72.6805 22.8683 72.5823 22.6084 72.5888 22.3113C72.5922 22.0107 72.6994 21.7545 72.9106 21.5435C73.1213 21.3319 73.377 21.2266 73.6771 21.2266C73.9637 21.2266 74.2093 21.3319 74.4136 21.5435C74.6183 21.7545 74.7236 22.0091 74.7302 22.3063C74.7367 22.62 74.6303 22.8914 74.4113 23.1211C74.204 23.3381 73.9564 23.4466 73.6679 23.4466C73.6514 23.4466 73.6346 23.446 73.6176 23.4455ZM64.1227 21.2783C63.8297 21.5731 63.6835 21.9267 63.6835 22.3383C63.6835 22.7336 63.8195 23.0746 64.0915 23.3615C64.3635 23.6482 64.6924 23.798 65.0791 23.8114C65.5214 23.824 65.8951 23.6563 66.1996 23.3072V23.7469H66.5746V22.3533V22.3333C66.5877 21.9411 66.4561 21.6012 66.1802 21.3127C65.9037 21.0245 65.5681 20.8738 65.1734 20.8607C65.152 20.8597 65.1305 20.8594 65.1093 20.8594C64.7285 20.8594 64.3999 20.999 64.1227 21.2783ZM65.087 23.4455C64.8003 23.4321 64.5556 23.314 64.3528 23.0914C64.1499 22.8683 64.0519 22.6084 64.0585 22.3113C64.0616 22.0107 64.1688 21.7545 64.3797 21.5435C64.5909 21.3319 64.8464 21.2266 65.1465 21.2266C65.4331 21.2266 65.6787 21.3319 65.8833 21.5435C66.0877 21.7545 66.193 22.0091 66.1996 22.3063C66.2061 22.62 66.1 22.8914 65.8807 23.1211C65.6734 23.3381 65.4255 23.4466 65.1373 23.4466C65.1208 23.4466 65.104 23.446 65.087 23.4455ZM51.6581 21.2783C51.3654 21.5731 51.2192 21.9267 51.2192 22.3383C51.2192 22.7336 51.3549 23.0746 51.6272 23.3615C51.8989 23.6482 52.2281 23.798 52.6148 23.8114C53.0569 23.824 53.4305 23.6563 53.7353 23.3072V23.7469H54.1103V22.3533V22.3333C54.1231 21.9411 53.9916 21.6012 53.7156 21.3127C53.4392 21.0245 53.1038 20.8738 52.7092 20.8607C52.6874 20.8597 52.6659 20.8594 52.6447 20.8594C52.2642 20.8594 51.9354 20.999 51.6581 21.2783ZM52.6227 23.4455C52.3358 23.4321 52.091 23.314 51.8882 23.0914C51.6856 22.8683 51.5874 22.6084 51.5942 22.3113C51.5971 22.0107 51.7045 21.7545 51.9152 21.5435C52.1264 21.3319 52.3819 21.2266 52.6819 21.2266C52.9688 21.2266 53.2144 21.3319 53.4188 21.5435C53.6231 21.7545 53.7285 22.0091 53.7353 22.3063C53.7416 22.62 53.6355 22.8914 53.4161 23.1211C53.2091 23.3381 52.9612 23.4466 52.673 23.4466C52.6562 23.4466 52.6395 23.446 52.6227 23.4455ZM142.235 20.8607C142.014 20.8707 141.825 20.9531 141.668 21.1077C141.512 21.2628 141.438 21.4492 141.448 21.6668C141.465 22.0291 141.646 22.2645 141.991 22.3735L142.321 22.4787C142.597 22.5677 142.734 22.7328 142.731 22.9743C142.728 23.1129 142.685 23.2255 142.603 23.3114C142.51 23.404 142.386 23.4521 142.228 23.4552C142.109 23.4586 141.998 23.4085 141.892 23.3059C141.787 23.2024 141.735 23.1029 141.735 23.0063V22.9118H141.345C141.345 23.1523 141.425 23.3599 141.584 23.5342C141.743 23.7091 141.942 23.8049 142.178 23.8209C142.435 23.8377 142.662 23.7526 142.859 23.5663C143.056 23.3804 143.146 23.1604 143.126 22.9069C143.099 22.5341 142.899 22.2837 142.524 22.1556L142.198 22.0461C141.945 21.96 141.825 21.8159 141.838 21.6141C141.841 21.5043 141.882 21.4138 141.959 21.3408C142.036 21.2676 142.128 21.2298 142.233 21.2266C142.341 21.2266 142.437 21.2573 142.521 21.319C142.605 21.381 142.647 21.4616 142.647 21.5616V21.6267H143.042V21.5427C143.029 21.345 142.939 21.1794 142.772 21.046C142.617 20.9216 142.451 20.8597 142.275 20.8597C142.261 20.8597 142.248 20.8599 142.235 20.8607ZM114.991 20.8607C114.77 20.8707 114.581 20.9531 114.424 21.1077C114.268 21.2628 114.194 21.4492 114.204 21.6668C114.22 22.0291 114.401 22.2645 114.746 22.3735L115.076 22.4787C115.353 22.5677 115.49 22.7328 115.487 22.9743C115.483 23.1129 115.441 23.2255 115.359 23.3114C115.266 23.404 115.141 23.4521 114.983 23.4552C114.865 23.4586 114.753 23.4085 114.648 23.3059C114.543 23.2024 114.49 23.1029 114.49 23.0063V22.9118H114.1C114.1 23.1523 114.18 23.3599 114.34 23.5342C114.499 23.7091 114.697 23.8049 114.934 23.8209C115.191 23.8377 115.418 23.7526 115.615 23.5663C115.812 23.3804 115.901 23.1604 115.881 22.9069C115.855 22.5341 115.655 22.2837 115.279 22.1556L114.954 22.0461C114.701 21.96 114.581 21.8159 114.594 21.6141C114.597 21.5043 114.637 21.4138 114.715 21.3408C114.792 21.2676 114.883 21.2298 114.988 21.2266C115.097 21.2266 115.193 21.2573 115.277 21.319C115.361 21.381 115.403 21.4616 115.403 21.5616V21.6267H115.797V21.5427C115.784 21.345 115.694 21.1794 115.528 21.046C115.373 20.9216 115.207 20.8597 115.03 20.8597C115.017 20.8597 115.004 20.8599 114.991 20.8607ZM68.102 20.8607C67.8808 20.8707 67.6921 20.9531 67.5354 21.1077C67.3785 21.2628 67.3054 21.4492 67.3151 21.6668C67.3313 22.0291 67.5124 22.2645 67.8575 22.3735L68.1877 22.4787C68.4641 22.5677 68.6011 22.7328 68.598 22.9743C68.5946 23.1129 68.5516 23.2255 68.4696 23.3114C68.3774 23.404 68.2524 23.4521 68.0946 23.4552C67.9762 23.4586 67.8643 23.4085 67.7592 23.3059C67.6539 23.2024 67.6012 23.1029 67.6012 23.0063V22.9118H67.2113C67.2113 23.1523 67.2912 23.3599 67.4508 23.5342C67.6104 23.7091 67.8085 23.8049 68.0451 23.8209C68.3019 23.8377 68.5286 23.7526 68.7256 23.5663C68.9232 23.3804 69.0126 23.1604 68.9926 22.9069C68.9662 22.5341 68.7654 22.2837 68.3907 22.1556L68.0648 22.0461C67.8116 21.96 67.6916 21.8159 67.7047 21.6141C67.7081 21.5043 67.7485 21.4138 67.8258 21.3408C67.9031 21.2676 67.994 21.2298 68.0993 21.2266C68.2081 21.2266 68.304 21.2573 68.3879 21.319C68.4722 21.381 68.5139 21.4616 68.5139 21.5616V21.6267H68.9085V21.5427C68.8952 21.345 68.8053 21.1794 68.6391 21.046C68.4838 20.9216 68.3181 20.8597 68.1415 20.8597C68.1284 20.8597 68.1151 20.8599 68.102 20.8607ZM144.127 21.2833C143.834 21.5781 143.688 21.9314 143.688 22.3433C143.688 22.7386 143.824 23.0796 144.095 23.3665C144.366 23.6531 144.698 23.8012 145.089 23.8114C145.494 23.824 145.843 23.6836 146.138 23.3888C146.432 23.0938 146.579 22.7436 146.579 22.3383C146.579 21.943 146.443 21.6012 146.17 21.3127C145.897 21.0245 145.564 20.8738 145.173 20.8607C145.156 20.8602 145.138 20.8599 145.121 20.8599C144.739 20.8599 144.407 21.0011 144.127 21.2833ZM145.092 23.4455C144.802 23.4355 144.556 23.3187 144.355 23.0956C144.154 22.872 144.056 22.6113 144.063 22.3134C144.066 22.0123 144.174 21.7553 144.384 21.5419C144.595 21.3285 144.851 21.2232 145.151 21.2266C145.438 21.2266 145.683 21.3324 145.885 21.5442C146.088 21.7558 146.194 22.011 146.204 22.3084C146.211 22.6194 146.104 22.8908 145.885 23.1226C145.681 23.3389 145.437 23.4471 145.153 23.4471C145.133 23.4471 145.112 23.4466 145.092 23.4455ZM119.547 21.2833C119.254 21.5781 119.108 21.9314 119.108 22.3433C119.108 22.7386 119.244 23.0796 119.515 23.3665C119.786 23.6531 120.118 23.8012 120.509 23.8114C120.914 23.824 121.263 23.6836 121.557 23.3888C121.851 23.0938 121.999 22.7436 121.999 22.3383C121.999 21.943 121.862 21.6012 121.589 21.3127C121.316 21.0245 120.984 20.8738 120.593 20.8607C120.576 20.8602 120.558 20.8599 120.541 20.8599C120.158 20.8599 119.827 21.0011 119.547 21.2833ZM120.511 23.4455C120.221 23.4355 119.976 23.3187 119.775 23.0956C119.573 22.872 119.476 22.6113 119.483 22.3134C119.486 22.0123 119.593 21.7553 119.804 21.5419C120.015 21.3285 120.271 21.2232 120.571 21.2266C120.857 21.2266 121.102 21.3324 121.305 21.5442C121.508 21.7558 121.614 22.011 121.624 22.3084C121.63 22.6194 121.524 22.8908 121.305 23.1226C121.1 23.3389 120.856 23.4471 120.573 23.4471C120.552 23.4471 120.532 23.4466 120.511 23.4455ZM83.805 21.2833C83.5123 21.5781 83.3659 21.9314 83.3659 22.3433C83.3659 22.7386 83.5019 23.0796 83.7731 23.3665C84.0445 23.6531 84.3755 23.8012 84.7672 23.8114C85.1718 23.824 85.5211 23.6836 85.8156 23.3888C86.1099 23.0938 86.2572 22.7436 86.2572 22.3383C86.2572 21.943 86.1204 21.6012 85.8476 21.3127C85.5746 21.0245 85.2423 20.8738 84.8511 20.8607C84.8338 20.8602 84.8165 20.8599 84.7992 20.8599C84.4166 20.8599 84.0851 21.0011 83.805 21.2833ZM84.7696 23.4455C84.4795 23.4355 84.2337 23.3187 84.033 23.0956C83.8315 22.872 83.7343 22.6113 83.7408 22.3134C83.7442 22.0123 83.8514 21.7553 84.0624 21.5419C84.2733 21.3285 84.5288 21.2232 84.8288 21.2266C85.1155 21.2266 85.3607 21.3324 85.5633 21.5442C85.7659 21.7558 85.8722 22.011 85.8822 22.3084C85.8888 22.6194 85.7824 22.8908 85.5633 23.1226C85.3584 23.3389 85.1144 23.4471 84.8309 23.4471C84.8107 23.4471 84.7903 23.4466 84.7696 23.4455ZM133.206 21.2883C132.912 21.5831 132.765 21.933 132.765 22.3383V22.3582V24.7354H133.129V23.3171C133.409 23.6332 133.756 23.7996 134.171 23.8159C134.575 23.829 134.924 23.6886 135.216 23.3935C135.51 23.0987 135.656 22.7452 135.656 22.3333C135.656 21.938 135.52 21.597 135.249 21.3104C134.978 21.024 134.646 20.8754 134.255 20.8657C134.237 20.8652 134.22 20.8646 134.203 20.8646C133.82 20.8646 133.488 21.0061 133.206 21.2883ZM133.447 23.1326C133.242 22.9208 133.136 22.6662 133.129 22.3682C133.123 22.0569 133.23 21.7857 133.45 21.5542C133.669 21.3224 133.934 21.2151 134.245 21.2311C134.536 21.2413 134.782 21.3579 134.983 21.5815C135.185 21.8046 135.284 22.0653 135.281 22.3632C135.274 22.6643 135.165 22.9208 134.954 23.1326C134.742 23.3444 134.488 23.4505 134.19 23.4505C133.9 23.4505 133.652 23.3444 133.447 23.1326ZM87.3231 21.2883C87.0289 21.5831 86.8819 21.933 86.8819 22.3383V22.3582V24.7354H87.2469V23.3171C87.5265 23.6332 87.8734 23.7996 88.288 23.8159C88.6923 23.829 89.041 23.6886 89.3337 23.3935C89.6267 23.0987 89.7732 22.7452 89.7732 22.3333C89.7732 21.938 89.6372 21.597 89.3657 21.3104C89.0945 21.024 88.7633 20.8754 88.3718 20.8657C88.3545 20.8652 88.3372 20.8646 88.3199 20.8646C87.9374 20.8646 87.6048 21.0061 87.3231 21.2883ZM87.5642 23.1326C87.3593 22.9208 87.2534 22.6662 87.2469 22.3682C87.2403 22.0569 87.3467 21.7857 87.5666 21.5542C87.7864 21.3224 88.0513 21.2151 88.3619 21.2311C88.653 21.2413 88.8988 21.3579 89.1005 21.5815C89.302 21.8046 89.4011 22.0653 89.3979 22.3632C89.3914 22.6643 89.2824 22.9208 89.0707 23.1326C88.8592 23.3444 88.605 23.4505 88.3076 23.4505C88.0167 23.4505 87.7689 23.3444 87.5642 23.1326ZM78.8075 21.2883C78.5132 21.5831 78.3662 21.933 78.3662 22.3383V22.3582V24.7354H78.7312V23.3171C79.0108 23.6332 79.3578 23.7996 79.7723 23.8159C80.1766 23.829 80.5254 23.6886 80.8181 23.3935C81.111 23.0987 81.2573 22.7452 81.2573 22.3333C81.2573 21.938 81.1215 21.597 80.8501 21.3104C80.5788 21.024 80.2476 20.8754 79.8561 20.8657C79.8388 20.8652 79.8216 20.8646 79.8043 20.8646C79.4217 20.8646 79.0892 21.0061 78.8075 21.2883ZM79.0485 23.1326C78.8436 22.9208 78.7378 22.6662 78.7312 22.3682C78.7247 22.0569 78.8311 21.7857 79.0509 21.5542C79.2708 21.3224 79.5357 21.2151 79.8462 21.2311C80.1371 21.2413 80.3831 21.3579 80.5849 21.5815C80.7864 21.8046 80.8854 22.0653 80.8823 22.3632C80.8755 22.6643 80.7667 22.9208 80.555 23.1326C80.3435 23.3444 80.0894 23.4505 79.7919 23.4505C79.5011 23.4505 79.2532 23.3444 79.0485 23.1326ZM147.574 21.229C147.337 21.4707 147.219 21.7747 147.219 22.1406V23.7469H147.594V22.1013C147.594 21.864 147.68 21.6597 147.854 21.4881C148.028 21.3172 148.232 21.2311 148.467 21.2311C148.698 21.2311 148.901 21.3172 149.075 21.4881C149.248 21.6597 149.335 21.864 149.335 22.1013V23.7469H149.71V22.1406C149.71 21.7747 149.592 21.4707 149.355 21.229C149.118 20.9867 148.822 20.8657 148.467 20.8657C148.108 20.8657 147.811 20.9867 147.574 21.229ZM127.367 21.229C127.131 21.4707 127.012 21.7747 127.012 22.1406V23.7469H127.387V22.1013C127.387 21.864 127.474 21.6597 127.647 21.4881C127.821 21.3172 128.025 21.2311 128.26 21.2311C128.492 21.2311 128.694 21.3172 128.868 21.4881C129.042 21.6597 129.129 21.864 129.129 22.1013V23.7469H129.504V22.1406C129.504 21.7747 129.385 21.4707 129.148 21.229C128.911 20.9867 128.615 20.8657 128.26 20.8657C127.902 20.8657 127.604 20.9867 127.367 21.229ZM104.432 21.229C104.195 21.4707 104.076 21.7747 104.076 22.1406V23.7469H104.451V22.1013C104.451 21.864 104.538 21.6597 104.712 21.4881C104.886 21.3172 105.09 21.2311 105.324 21.2311C105.556 21.2311 105.758 21.3172 105.932 21.4881C106.106 21.6597 106.193 21.864 106.193 22.1013V23.7469H106.568V22.1406C106.568 21.7747 106.449 21.4707 106.213 21.229C105.976 20.9867 105.68 20.8657 105.324 20.8657C104.966 20.8657 104.668 20.9867 104.432 21.229ZM55.1802 21.229C54.943 21.4707 54.8248 21.7747 54.8248 22.1406V23.7469H55.1998V22.1013C55.1998 21.864 55.2866 21.6597 55.4603 21.4881C55.634 21.3172 55.8381 21.2311 56.0729 21.2311C56.3046 21.2311 56.5071 21.3172 56.6811 21.4881C56.8543 21.6597 56.9413 21.864 56.9413 22.1013V23.7469H57.3163V22.1406C57.3163 21.7747 57.1978 21.4707 56.9612 21.229C56.7243 20.9867 56.4285 20.8657 56.0729 20.8657C55.7145 20.8657 55.417 20.9867 55.1802 21.229ZM48.525 21.3944C48.2815 21.0124 47.9558 20.8376 47.5481 20.8707C47.2423 20.8969 46.9957 21.0106 46.8081 21.2117C46.6074 21.4259 46.5073 21.7091 46.5073 22.0616V23.7469H46.8967V22.0173C46.8967 21.7965 46.9577 21.6093 47.0796 21.456C47.2009 21.303 47.3639 21.2266 47.5677 21.2266C47.775 21.2266 47.9532 21.2938 48.1033 21.4287C48.2527 21.5642 48.3276 21.7325 48.3276 21.933V23.7469H48.7223V21.933C48.7223 21.7325 48.797 21.5642 48.9468 21.4287C49.0965 21.2938 49.2746 21.2266 49.4819 21.2266C49.686 21.2266 49.8503 21.3038 49.9753 21.4589C50.1003 21.6135 50.1627 21.7997 50.1627 22.0173V23.7469H50.5526V22.0616C50.5526 21.7091 50.4507 21.4259 50.2468 21.2117C50.056 21.0106 49.8076 20.8969 49.5018 20.8707C49.4693 20.8681 49.4374 20.8667 49.4059 20.8667C49.0427 20.8667 48.749 21.0426 48.525 21.3944ZM140.464 20.9791C140.31 21.0618 140.193 21.1788 140.114 21.33V20.9297H139.763V23.7469H140.158V22.0616C140.158 21.8805 140.19 21.7353 140.252 21.6267C140.291 21.5608 140.365 21.4831 140.474 21.3944C140.583 21.3054 140.724 21.2579 140.898 21.2513V20.8754C140.887 20.8749 140.874 20.8746 140.863 20.8746C140.727 20.8746 140.594 20.9095 140.464 20.9791ZM94.5813 20.9791C94.4264 21.0618 94.3101 21.1788 94.2307 21.33V20.9297H93.8806V23.7469H94.2755V22.0616C94.2755 21.8805 94.3067 21.7353 94.3693 21.6267C94.4086 21.5608 94.4825 21.4831 94.5912 21.3944C94.6997 21.3054 94.8412 21.2579 95.0157 21.2513V20.8754C95.0037 20.8749 94.9919 20.8746 94.9799 20.8746C94.8441 20.8746 94.7113 20.9095 94.5813 20.9791ZM82.6018 20.9791C82.4472 21.0618 82.3306 21.1788 82.2517 21.33V20.9297H81.9011V23.7469H82.2962V22.0616C82.2962 21.8805 82.3274 21.7353 82.39 21.6267C82.4293 21.5608 82.5032 21.4831 82.6117 21.3944C82.7205 21.3054 82.8617 21.2579 83.0362 21.2513V20.8754C83.0244 20.8749 83.0124 20.8746 83.0006 20.8746C82.8648 20.8746 82.732 20.9095 82.6018 20.9791ZM39.8193 20.9791C39.6647 21.0618 39.5478 21.1788 39.4692 21.33V20.9297H39.1186V23.7469H39.5135V22.0616C39.5135 21.8805 39.5447 21.7353 39.6071 21.6267C39.6469 21.5608 39.7208 21.4831 39.829 21.3944C39.9378 21.3054 40.079 21.2579 40.2532 21.2513V20.8754C40.2415 20.8749 40.2297 20.8746 40.2176 20.8746C40.0821 20.8746 39.9493 20.9095 39.8193 20.9791ZM126.167 20.9297L125.278 23.2576L124.639 21.271H124.318L123.667 23.277L122.79 20.9297H122.394L123.46 23.7469H123.893L124.467 21.8818L125.078 23.7469H125.517L126.573 20.9297H126.167ZM113.038 23.7469H113.413V20.9297H113.038V23.7469ZM102.942 23.7469H103.317V20.9297H102.942V23.7469ZM99.3792 20.9297L98.4288 23.1715L97.5292 20.9297H97.1207L98.1971 23.66L97.775 24.7304H98.1764L99.7701 20.9297H99.3792ZM43.0429 20.9297L42.0925 23.1715L41.1926 20.9297H40.7844L41.8608 23.66L41.439 24.7304H41.8401L43.4336 20.9297H43.0429ZM34.8267 20.9297L33.8758 23.2494L32.9199 20.9297H32.5253L33.6795 23.7469H34.0694L35.2436 20.9297H34.8267Z" fill="white" stroke="white" stroke-width="0.5"/>
<path d="M0 24.663H3.49531V15.7785H0V24.663Z" fill="#63C7D9"/>
<path d="M6.99072 5.26562V24.6631L11.4218 22.3198V7.60919L6.99072 5.26562Z" fill="white"/>
<path d="M20.9717 24.6632H24.467V0.153137H20.9717V24.6632Z" fill="white"/>
<path d="M13.7412 8.12516V21.8997L16.7811 23.5075V6.51736L13.7412 8.12516Z" fill="#63C7D9"/>
<path d="M0 0.153137V14.5852H0.51988V0.67393H19.7746V0.153137H0Z" fill="url(#paint0_linear_82_225)"/>
<path d="M10.2573 16.0337C10.131 16.0337 10.0288 15.9311 10.0288 15.8048V13.8117C10.0288 13.6852 10.131 13.5828 10.2573 13.5828C10.3836 13.5828 10.4858 13.6852 10.4858 13.8117V15.8048C10.4858 15.9311 10.3836 16.0337 10.2573 16.0337Z" fill="#231F20"/>
<path d="M14.2095 16.0337C14.0832 16.0337 13.981 15.9311 13.981 15.8048V13.8117C13.981 13.6852 14.0832 13.5828 14.2095 13.5828C14.3358 13.5828 14.4379 13.6852 14.4379 13.8117V15.8048C14.4379 15.9311 14.3358 16.0337 14.2095 16.0337Z" fill="#231F20"/>
<path d="M34.2599 9.39495L34.2708 9.39836C34.2775 9.40297 34.2829 9.41236 34.2869 9.42724L34.2832 9.44574L34.2817 9.46425L34.2854 9.49672C34.3001 9.55926 34.3562 9.60573 34.4232 9.60573L34.4556 9.602C34.518 9.58735 34.5644 9.5313 34.5644 9.46425L34.564 9.45772L34.5634 9.45138L34.5819 9.43287C34.6009 9.41792 34.6214 9.41319 34.6415 9.41437L34.6714 9.44184C34.706 9.47937 34.7205 9.52032 34.7285 9.56295L34.7094 9.61144L34.692 9.65403L34.664 9.72588C34.6245 9.83224 34.5781 9.97512 34.5406 10.0856L34.5191 10.1347C34.4853 10.1979 34.4335 10.2518 34.3938 10.2932L34.3798 10.3073L34.3679 10.321L34.3526 10.3388C34.3439 10.3498 34.3385 10.3588 34.3385 10.3657L34.3328 10.3936C34.3259 10.4488 34.3689 10.4737 34.3008 10.477L34.2706 10.4722C34.1986 10.4437 34.1909 10.2939 34.1462 10.1801L34.1269 10.1336C34.0814 10.0282 34.0382 9.94298 34.0854 9.83962L34.1104 9.8864C34.1879 10.0128 34.284 10.0184 34.284 10.0184L34.2469 9.97371C34.1307 9.80716 34.2278 9.61345 34.2403 9.49916L34.2407 9.4726C34.2375 9.44364 34.2203 9.4391 34.1978 9.44246C34.2235 9.41254 34.2442 9.39495 34.2599 9.39495ZM34.4502 8.88885L34.4415 8.91881C34.4085 8.97888 34.2912 9.04043 34.2683 9.11355L34.3356 9.0946C34.5984 9.02586 34.7809 9.04191 34.7934 9.14295L34.8003 9.20132L34.8058 9.25635L34.8003 9.27374L34.7997 9.28995L34.8002 9.31249C34.7989 9.33008 34.7946 9.35242 34.7885 9.3771L34.7703 9.38609C34.747 9.39716 34.7264 9.40246 34.7012 9.37684L34.6703 9.35617C34.6227 9.33056 34.5517 9.31305 34.485 9.3078L34.475 9.29308C34.4271 9.23816 34.2832 9.23479 34.0875 9.42645L34.0818 9.33867C34.0781 9.27773 34.0748 9.21216 34.0731 9.14321L34.0821 9.1003C34.1009 9.01764 34.126 8.95632 34.1852 8.95632C34.2861 8.95632 34.3917 8.93374 34.4502 8.88885Z" fill="white" fill-opacity="0.5"/>
<path d="M35.3969 7.24054C35.0072 7.4781 34.5342 7.68285 34.2858 8.08158C34.274 8.17293 34.2599 8.24406 34.2319 8.32544C34.2046 8.40629 34.1412 8.5336 34.0885 8.6533C34.0765 8.73178 34.0689 8.81027 34.0649 8.88718C34.088 8.84518 34.1139 8.82602 34.131 8.83468C34.1781 8.85936 34.2478 8.82366 34.3016 8.78769C34.3555 8.75147 34.4318 8.69556 34.6404 8.80108L34.5888 8.83941C34.6564 8.81814 34.7834 8.84728 34.8822 8.90109C34.8686 8.65461 35.007 8.42335 35.007 8.42335C34.9462 8.78769 34.9129 8.95622 34.9532 9.0977C34.9933 9.23945 34.8657 9.40115 34.7981 9.52925C34.731 9.65761 34.6907 9.80592 34.6972 9.94084C34.704 10.0758 34.3676 10.4937 34.6231 10.6758C34.7675 10.7787 34.8969 10.7029 35.0224 10.6273C35.1189 10.569 35.2132 10.5107 35.3099 10.5341C35.5321 10.5882 35.5858 10.5341 35.579 10.4262C35.6062 10.5981 35.4716 10.7588 35.3335 10.7257C35.1954 10.6924 35.0911 10.7094 35.0169 10.7869C34.9768 10.8291 34.9307 10.9184 34.8605 10.9861C34.6964 11.1588 34.6566 11.1982 34.7127 11.273C34.7748 11.2326 34.839 11.178 34.8715 11.178C34.9289 11.178 34.9252 11.2084 34.996 11.2084C35.0667 11.2084 35.1173 11.1208 35.1608 11.1208C35.2048 11.1208 35.3563 11.2489 35.4807 11.2489C35.6052 11.2489 35.7433 11.2423 35.8004 11.3499C35.6759 11.3331 35.4506 11.3397 35.3361 11.3903C35.2216 11.441 35.171 11.5053 35.0869 11.5053C35.0028 11.5053 34.996 11.468 34.996 11.468C34.996 11.468 34.9456 11.5053 34.8681 11.5053C34.8301 11.5053 34.7706 11.4827 34.7158 11.4481C34.7064 11.498 34.6993 11.5455 34.719 11.577C34.7638 11.6492 35.051 11.6536 35.0062 11.8198C34.9614 11.9862 34.6889 12.0356 34.6889 12.2377C34.6889 12.3973 34.9118 12.5501 35.1204 12.5506H35.1228C35.1775 12.5503 35.2313 12.5398 35.2797 12.5159C35.3227 12.4671 35.3306 12.4154 35.3306 12.4154C35.3306 12.4154 35.3374 12.4692 35.4854 12.5099C35.5169 12.5186 35.553 12.5165 35.5921 12.5081C35.6408 12.4821 35.699 12.4621 35.7511 12.4472C35.8544 12.3941 35.9579 12.3227 36.0307 12.2739C36.172 12.1794 36.6499 11.8896 36.9392 11.6804C37.0605 11.593 37.158 11.446 37.2568 11.2901C37.2848 11.1775 37.3236 11.0588 37.3742 10.9344C37.3737 10.8987 37.3781 10.8585 37.3923 10.8108C37.5285 10.348 37.9916 10.1159 37.8569 9.46179C37.7222 8.80764 37.4879 8.82129 37.2188 8.53124C36.9762 8.27005 36.9088 8.03013 36.9667 7.64531C36.95 7.62772 36.9335 7.60961 36.9156 7.59412C36.7272 7.42534 36.5388 7.57391 36.3033 7.38518C36.1767 7.28359 35.9356 7.29514 35.7362 7.30643C35.5646 7.3164 35.4239 7.32611 35.4147 7.26364C35.4071 7.25603 35.4021 7.24815 35.3969 7.24054ZM37.3488 9.76996C37.5283 9.42372 37.3844 8.91579 36.8328 8.54278C37.4159 8.55171 37.788 9.20795 37.577 9.79227C37.3661 10.3766 36.8724 10.3149 36.7474 10.8892C36.5498 10.395 37.1693 10.1159 37.3488 9.76996ZM35.5088 9.13813C35.4527 9.03707 35.4671 8.82129 35.7124 8.82129C35.9576 8.82129 35.9906 8.9381 36.1639 8.99874C36.3413 9.06148 36.5074 9.17514 36.6261 9.41401C36.4356 9.28434 36.3413 9.08878 36.0876 9.08878C35.8342 9.08878 35.7407 9.26413 35.7124 9.3224C35.6838 9.3812 35.6877 9.42372 35.5827 9.42372C35.4773 9.42372 35.5648 9.23945 35.5088 9.13813ZM35.7124 9.51586C35.7124 9.31348 36.0124 9.19535 36.3119 9.4484C36.2595 9.4379 36.1966 9.44814 36.1411 9.45916C36.1411 9.461 36.1416 9.46231 36.1416 9.46415C36.1416 9.54237 36.0782 9.60563 36.0003 9.60563C35.9223 9.60563 35.8586 9.54237 35.8586 9.46415C35.8586 9.45654 35.8599 9.44919 35.8609 9.4421C35.8085 9.45312 35.7614 9.48436 35.7614 9.54762C35.7614 9.68255 35.9652 9.81931 35.9652 9.81931C35.9652 9.81931 35.7124 9.71824 35.7124 9.51586Z" fill="white"/>
<path d="M35.0074 11.2085C34.9366 11.2085 34.9403 11.1781 34.8829 11.1781C34.8504 11.1781 34.7862 11.2327 34.7241 11.2731C34.8462 11.2923 34.9115 11.3143 34.9961 11.313C35.02 11.3127 35.0472 11.3146 35.0768 11.3164C35.1515 11.3217 35.2414 11.3266 35.3323 11.2928C35.1871 11.3941 35.1604 11.3917 35.1195 11.3917C35.0784 11.3917 35.0446 11.3479 34.9597 11.377C34.8947 11.3994 34.8019 11.4356 34.7309 11.4282C34.7296 11.4348 34.7286 11.4414 34.7273 11.4482C34.782 11.4828 34.8415 11.5054 34.8795 11.5054C34.9571 11.5054 35.0074 11.4681 35.0074 11.4681C35.0074 11.4681 35.0142 11.5054 35.0983 11.5054C35.1824 11.5054 35.233 11.4411 35.3475 11.3904C35.462 11.3398 35.6874 11.3332 35.8118 11.35C35.7547 11.2424 35.6166 11.2489 35.4922 11.2489C35.3677 11.2489 35.2162 11.1208 35.1722 11.1208C35.1287 11.1208 35.0781 11.2085 35.0074 11.2085Z" fill="white" fill-opacity="0.45"/>
<path d="M35.4161 12.762C35.4009 12.762 35.3862 12.7613 35.3726 12.7592V14.0643L37.2142 12.335C37.1287 12.2008 37.0766 12.0444 37.059 11.8688C36.7003 12.1302 35.795 12.762 35.4161 12.762Z" fill="white" fill-opacity="0.5"/>
<path d="M35.3726 12.7592C35.3864 12.761 35.4009 12.7621 35.4161 12.7621C35.6136 12.7621 35.9705 12.5964 36.4776 12.2693C36.3604 12.4975 35.7871 13.3918 35.3726 14.0202V12.7592Z" fill="white"/>
<path d="M38.4098 12.1514C38.2686 12.1514 38.1546 12.0949 38.0807 11.9879C37.9636 11.8185 37.9607 11.5387 38.0728 11.2395L38.1161 11.1242L38.2104 11.2035C38.2222 11.2137 38.506 11.4492 38.7947 11.4492C38.8251 11.4492 38.8555 11.4466 38.8862 11.4405L38.9362 11.4308L38.9692 11.4699C39.0162 11.5261 39.0552 11.5936 39.0851 11.671L39.099 11.7078L39.0809 11.7424C39.0017 11.8952 38.8091 12.1514 38.4098 12.1514Z" fill="#161616"/>
<path d="M38.3525 12.7887C38.3214 12.7887 38.2889 12.7873 38.2553 12.785C38.1599 12.7779 38.0688 12.7635 37.9828 12.743C37.747 12.686 37.5528 12.5805 37.4058 12.4293C37.2368 12.2558 37.1398 12.0327 37.1173 11.767C37.1024 11.5922 37.121 11.3995 37.1721 11.1943C37.2014 11.0764 37.2423 10.9528 37.2934 10.8268C37.3691 10.6396 37.4684 10.444 37.5884 10.2456C37.7085 10.0469 37.8107 9.8886 37.8984 9.76181L38.0525 9.8382C38.0001 9.98782 37.9354 10.1369 37.8667 10.2939C37.6563 10.7777 37.4179 11.326 37.5497 11.7053C37.7071 12.1589 38.003 12.4086 38.3822 12.4086C38.4809 12.4086 38.586 12.3918 38.694 12.3584C38.8211 12.3198 38.9115 12.2537 38.9626 12.1626L39.1229 12.2253C39.0378 12.5834 38.7569 12.7887 38.3525 12.7887Z" fill="#161616"/>
<path d="M34.085 7.04958C34.1908 6.94589 34.2238 6.80546 34.2587 6.65689C34.3053 6.45844 34.358 6.23479 34.6088 6.12848C34.6706 6.01692 34.9023 5.66544 35.3765 5.66544C35.5508 5.66544 35.7004 5.72371 35.8102 5.83343C35.9106 5.93449 35.968 6.07519 35.9674 6.21904V6.25448L35.9428 6.27968C35.855 6.36945 35.7727 6.48101 35.6915 6.62066C35.5115 6.77475 35.3304 6.79706 35.1389 6.82068C34.8789 6.85271 34.5841 6.88893 34.1982 7.18135L34.085 7.04958Z" fill="#161616"/>
<path d="M38.7261 11.0858C38.5587 11.0858 38.4712 11.0073 38.4274 10.9411C38.266 10.6983 38.4227 10.2544 38.4979 10.0751L38.511 10.0405C38.6386 9.70345 38.5996 9.53099 38.4667 9.2643C38.3899 9.11047 38.1276 8.84535 37.6874 8.47681L37.3845 8.22665C37.266 8.12716 37.1749 7.99644 37.0863 7.86992C37.0265 7.78434 36.9681 7.70008 36.9029 7.63026C36.8879 7.61424 36.873 7.59823 36.8573 7.58432C36.7876 7.52185 36.7205 7.51686 36.6277 7.50977C36.5219 7.50163 36.3901 7.49192 36.2486 7.37826C36.1922 7.33337 36.0895 7.31132 35.9336 7.31132C35.8636 7.31132 35.7929 7.31552 35.7271 7.31946C35.6671 7.32287 35.611 7.32602 35.5633 7.32602C35.5088 7.32602 35.3713 7.32602 35.3351 7.22916L35.2759 7.14306L35.3513 7.09135C35.436 7.0399 35.5167 6.98661 35.5895 6.92939C35.6322 6.89605 35.6524 6.84014 35.6427 6.78423L35.632 6.72412L35.6849 6.69367C35.8757 6.58289 36.1419 6.45637 36.498 6.30622C36.6458 6.24401 36.797 6.21225 36.9479 6.21225C37.4235 6.21225 37.8103 6.51465 38.1208 6.75798C38.2827 6.88424 38.4182 6.99055 38.5243 7.0252C38.9523 7.16564 39.0723 7.49087 39.2709 8.02925L39.3057 8.1227C39.4824 8.59861 39.3241 8.8044 39.2266 8.88026C39.2489 8.96085 39.2811 9.11179 39.2987 9.34803C39.3063 9.44988 39.311 9.56748 39.311 9.70424C39.311 9.93839 39.2442 10.1759 39.1121 10.4109C39.1676 10.5033 39.1957 10.7128 39.1055 10.8789C39.0542 10.9734 38.947 11.0858 38.7261 11.0858Z" fill="#161616"/>
<path d="M38.1877 11.9134C38.237 11.9848 38.3117 12.021 38.4097 12.021C38.7254 12.021 38.885 11.827 38.956 11.6997C38.9358 11.6522 38.912 11.6097 38.8845 11.5735C38.8543 11.5777 38.8247 11.5798 38.7946 11.5798C38.5289 11.5798 38.2797 11.4191 38.1749 11.3419C38.0992 11.5758 38.1033 11.7913 38.1877 11.9134Z" fill="white"/>
<path d="M37.7001 10.3132C37.5837 10.5059 37.4876 10.6954 37.4145 10.876C37.3655 10.9962 37.3267 11.1138 37.2986 11.2259C37.251 11.4173 37.2334 11.5955 37.2473 11.7559C37.2672 11.9908 37.3518 12.1867 37.4994 12.3381C37.6288 12.4715 37.8018 12.5649 38.0135 12.6161C38.0926 12.6353 38.1767 12.6484 38.265 12.6547C38.2952 12.6568 38.3245 12.6578 38.3526 12.6578C38.6521 12.6578 38.8158 12.5374 38.9055 12.4053C38.8554 12.4374 38.7972 12.4636 38.7323 12.4836C38.612 12.5206 38.4941 12.5395 38.3822 12.5395C37.9433 12.5395 37.6037 12.2583 37.4265 11.7483C37.2779 11.3204 37.5274 10.7477 37.7473 10.2418C37.7507 10.2347 37.7535 10.2277 37.7567 10.2203C37.7381 10.2502 37.7195 10.2815 37.7001 10.3132Z" fill="white"/>
<path d="M34.6855 6.23876C34.4728 6.31488 34.4322 6.48708 34.3853 6.68658C34.3646 6.77478 34.3433 6.86481 34.3066 6.94934C34.6334 6.75142 34.9009 6.71834 35.1224 6.69104C35.3097 6.66794 35.4575 6.64983 35.5783 6.55454C35.6653 6.40571 35.7539 6.28601 35.8367 6.21881C35.8372 6.10909 35.7934 6.00251 35.7172 5.92586C35.6328 5.84082 35.5149 5.79593 35.3763 5.79593C34.9085 5.79593 34.718 6.19886 34.6855 6.23876Z" fill="white"/>
<path d="M36.5487 6.42646C36.2128 6.56821 35.9594 6.68817 35.775 6.79264C35.781 6.88531 35.7427 6.97508 35.6704 7.03204C35.6041 7.08401 35.532 7.1331 35.4561 7.18009C35.4579 7.18219 35.4741 7.19531 35.5635 7.19531C35.6091 7.19531 35.6625 7.19216 35.7194 7.18901C35.7875 7.18508 35.8612 7.18088 35.9337 7.18088C36.0527 7.18088 36.2236 7.19059 36.3299 7.27616C36.4403 7.36462 36.5362 7.37171 36.6376 7.37959C36.7379 7.3872 36.8417 7.39507 36.9442 7.48695C36.9628 7.50348 36.9806 7.52238 36.9979 7.54102C37.0673 7.61505 37.1299 7.70456 37.1931 7.79512C37.2769 7.91482 37.3632 8.03819 37.4685 8.12665L37.7711 8.37681C38.2378 8.76767 38.4962 9.03121 38.5835 9.20577C38.7278 9.49583 38.7763 9.70846 38.6338 10.0846L38.618 10.1256C38.5106 10.3831 38.4328 10.7133 38.536 10.8687C38.5746 10.927 38.6367 10.9553 38.726 10.9553C38.852 10.9553 38.9409 10.9083 38.9912 10.8165C39.0279 10.749 39.0368 10.6689 39.0318 10.602C38.9768 10.717 38.8756 10.8335 38.7126 10.8335H38.6005L38.6833 10.7577C38.6849 10.7563 38.8442 10.6099 38.981 10.377C39.1136 10.1523 39.1809 9.92554 39.1809 9.70399C39.1809 9.57117 39.1759 9.45698 39.1686 9.35776C39.1429 9.00811 39.084 8.85902 39.0832 8.85744L39.0748 8.81177L39.1172 8.79628C39.1594 8.77528 39.3614 8.64718 39.1835 8.16839L39.1489 8.07441C38.9571 7.55572 38.8518 7.27012 38.4836 7.14938C38.356 7.10738 38.2122 6.99503 38.0408 6.86089C37.7457 6.6299 37.3789 6.34299 36.9481 6.34299C36.8147 6.34299 36.6803 6.37107 36.5487 6.42646Z" fill="white"/>
<defs>
<linearGradient id="paint0_linear_82_225" x1="5.85118e-06" y1="1106.12" x2="1581.87" y2="-91.3743" gradientUnits="userSpaceOnUse">
<stop stop-color="#63C7D9"/>
<stop offset="1" stop-color="#8DFFA9"/>
</linearGradient>
</defs>
</svg>
