<svg width="161" height="45" viewBox="0 0 161 45" fill="none" xmlns="http://www.w3.org/2000/svg">
<path fill-rule="evenodd" clip-rule="evenodd" d="M24.6245 7.44457C24.6245 7.29527 24.6259 7.14871 24.6259 6.98845C24.6259 5.59134 24.4324 4.46543 24.1228 3.57374C25.3672 3.72989 26.1959 5.15303 26.7287 6.78984C26.1048 6.98434 25.3946 7.20487 24.6245 7.44457ZM21.8768 21.3746C21.8768 21.3746 20.4212 20.5939 18.6371 20.5939C16.0203 20.5939 15.8881 22.2444 15.8881 22.6594C15.8881 24.929 21.7734 25.7988 21.7734 31.1133C21.7734 35.2937 19.1347 37.9866 15.5761 37.9866C11.306 37.9866 9.12269 35.3156 9.12269 35.3156L10.2661 31.5201C10.2661 31.5201 12.5107 33.4569 14.4054 33.4569C15.6415 33.4569 16.1459 32.4776 16.1459 31.7626C16.1459 28.8026 11.317 28.6698 11.317 23.8059C11.317 19.7132 14.2407 15.7519 20.1421 15.7519C22.4155 15.7519 23.54 16.4066 23.54 16.4066L21.8768 21.3746ZM20.9078 2.26018C21.1516 2.26018 21.3957 2.34373 21.6303 2.50536C19.8271 3.35732 17.8958 5.50504 17.0794 9.79227C15.8867 10.1635 14.7214 10.5264 13.6435 10.862C14.5985 7.59113 16.8678 2.26018 20.9078 2.26018ZM23.151 7.65824C23.151 7.74454 23.1497 7.82398 23.1497 7.90342C21.7799 8.32941 20.2928 8.79237 18.8018 9.25671C19.6387 6.01047 21.2077 4.44214 22.5802 3.85042C22.925 4.72156 23.151 5.97212 23.151 7.65824ZM29.6267 5.91356C29.5377 5.92521 29.4606 5.94267 29.4069 5.95842C29.3781 5.96664 28.8984 6.11594 28.1039 6.36249C27.3259 4.11341 25.9535 2.0465 23.5397 2.0465C23.4729 2.0465 23.4034 2.04924 23.3353 2.05335C22.6483 1.14112 21.7977 0.743896 21.0632 0.743896C15.4381 0.743896 12.7504 7.81165 11.908 11.4017C9.72195 12.0824 8.16937 12.566 7.97179 12.629C6.75068 13.0139 6.71233 13.0522 6.5531 14.2069C6.43188 15.0821 3.23975 39.8919 3.23975 39.8919L28.1135 44.5749L28.1399 44.5691L29.6267 5.91356ZM31.4077 7.1309C32.1258 7.84761 32.9401 8.65951 32.9401 8.65951C32.9401 8.65951 36.2914 8.9088 36.4496 8.9225C36.6092 8.93619 36.8013 9.0581 36.8311 9.27862C36.8612 9.49915 41.5919 41.6451 41.5919 41.6451L29.9832 44.1685L31.4077 7.1309Z" fill="white"/>
<path d="M49.5362 31.257C50.4413 31.8 52.2514 32.5241 53.8806 32.3431C55.3288 32.3431 56.2339 31.619 56.2339 30.5329C56.2339 29.6278 55.6908 28.9037 54.0616 27.9987C52.0704 26.9125 50.6223 25.2834 50.6223 23.1112C50.6223 19.3098 53.8806 16.7755 58.4061 16.7755C60.3973 16.7755 62.0264 17.1375 62.9315 17.6806L61.6644 21.482C60.9403 21.12 59.6732 20.7579 58.4061 20.7579C56.9579 20.7579 55.8718 21.482 55.8718 22.5681C55.8718 23.4732 56.5959 24.0163 57.863 24.7403C59.8542 26.0075 61.6644 27.6366 61.6644 29.8088C61.6644 33.9723 58.2251 36.5065 53.5186 36.3255C51.3464 36.3255 49.3552 35.7825 48.269 35.0584L49.5362 31.257Z" fill="#D8D8D8"/>
<path d="M62.75 35.6014L67.9995 8.44861H73.2491L71.2579 19.3097V19.4907C72.706 17.8616 74.5162 16.7755 76.8694 16.7755C79.5847 16.7755 81.2139 18.5856 81.2139 21.663C81.2139 22.568 81.0329 23.8352 80.8518 24.9213L78.8606 35.6014H73.6111L75.6023 25.1023C75.7833 24.3782 75.7833 23.6542 75.7833 22.9301C75.7833 21.844 75.2403 20.9389 74.1542 20.9389C72.525 20.9389 70.7148 22.9301 69.9907 26.3694L68.1806 35.4204H62.75V35.6014Z" fill="#D8D8D8"/>
<path d="M100.584 24.1973C100.584 30.7139 96.4201 36.3255 90.0845 36.3255C85.378 36.3255 82.8438 33.0672 82.8438 28.9037C82.8438 22.3871 87.0072 16.7755 93.5238 16.7755C98.2303 16.7755 100.584 20.3959 100.584 24.1973ZM88.0933 28.9037C88.0933 30.895 88.8174 32.3431 90.6275 32.3431C93.5238 32.3431 94.972 27.2746 94.972 24.0163C94.972 22.3871 94.4289 20.7579 92.4377 20.7579C89.7225 20.9389 88.0933 25.8264 88.0933 28.9037Z" fill="#D8D8D8"/>
<path d="M99.1353 42.8422L102.756 24.0162C103.118 21.844 103.661 19.3097 103.842 17.4996H108.548L108.186 19.3097C109.634 17.4996 111.626 16.4135 113.798 16.4135C117.599 16.4135 119.228 19.8528 119.228 23.2922C119.228 29.8088 115.065 36.1445 108.91 36.1445C108.005 36.3255 106.738 35.6014 106.195 35.6014H106.014L104.566 42.8422H99.1353ZM106.738 31.619C107.281 32.1621 108.005 32.3431 108.91 32.3431C111.807 32.3431 113.979 27.4556 113.979 24.0162C113.979 22.5681 113.436 21.1199 111.807 21.1199C109.996 21.1199 108.186 23.2922 107.643 26.5505L106.738 31.619Z" fill="#D8D8D8"/>
<path d="M119.771 35.6014L123.392 17.4996H128.822L125.202 35.6014H119.771ZM126.65 15.6894C125.202 15.6894 124.116 14.2413 124.116 12.6121C124.116 10.8019 125.383 9.35376 127.193 9.35376C128.822 9.35376 129.909 10.8019 129.909 12.2501C129.727 14.2413 128.279 15.6894 126.65 15.6894Z" fill="#D8D8D8"/>
<path d="M129.727 35.6014L132.623 21.1199H130.089L130.813 17.4995H133.347L133.528 16.4134C133.89 14.2412 134.796 11.888 136.606 10.2588C138.054 8.99166 139.864 8.44861 141.855 8.44861C143.122 8.44861 144.209 8.62963 144.752 8.81065L143.665 12.9741C143.122 12.7931 142.579 12.612 142.036 12.612C140.226 12.612 139.14 14.4222 138.959 16.2324L138.416 17.4995H142.036L141.312 21.1199H137.692L134.796 35.6014H129.727Z" fill="#D8D8D8"/>
<path d="M148.734 17.4995L149.639 25.8264C149.82 27.6365 150.001 28.3606 150.182 30.1708C150.544 28.3606 150.906 27.8176 151.811 25.8264L155.07 17.4995H160.5L153.983 31.2569C151.63 35.9634 149.458 39.4028 146.924 41.756C145.114 43.5662 142.76 44.2902 141.674 44.6523L140.226 40.1268C141.131 39.7648 142.217 39.4028 143.303 38.6787C144.571 37.7736 145.657 36.6875 146.2 35.4203C146.381 35.2393 146.381 35.0583 146.381 34.6963L143.122 17.4995H148.734Z" fill="#D8D8D8"/>
<path d="M58.4061 16.7755C60.3973 16.7755 62.0264 17.1375 62.9315 17.6806L61.6644 21.482C60.9403 21.12 59.6732 20.7579 58.4061 20.7579C56.9579 20.7579 55.8718 21.482 55.8718 22.5681C55.8718 23.4732 56.5959 24.0163 57.863 24.7403C59.8542 26.0075 61.6644 27.6366 61.6644 29.8088C61.6644 33.9723 58.2251 36.5065 53.5186 36.3255C51.3464 36.3255 49.3552 35.7825 48.269 35.0584L49.5362 31.257C50.4413 31.8 52.2514 32.5241 53.8806 32.3431C55.3288 32.3431 56.2339 31.619 56.2339 30.5329C56.2339 29.6278 55.6908 28.9037 54.0616 27.9987C52.0704 26.9125 50.6223 25.2834 50.6223 23.1112" fill="white"/>
<path d="M62.75 35.6013L67.4565 14.0601L73.2491 8.81055L71.2579 19.4906C72.706 17.8615 74.5162 16.7754 76.8694 16.7754C79.5847 16.7754 81.2139 18.5855 81.2139 21.6629C81.2139 22.5679 81.0329 23.8351 80.8518 24.9212L78.8606 35.6013H73.6111L75.6023 25.1022C75.7833 24.3781 75.7833 23.6541 75.7833 22.93C75.7833 21.8439 75.2403 20.9388 74.1542 20.9388C72.525 20.9388 70.7148 22.93 69.9907 26.3693L68.1806 35.4203H62.75V35.6013Z" fill="white"/>
<path d="M93.3428 16.7755C98.2303 16.7755 100.584 20.3959 100.584 24.1973C100.584 30.7139 96.4201 36.3255 90.0845 36.3255C85.378 36.3255 82.8438 33.0672 82.8438 28.9037M88.0933 28.9037C88.0933 30.895 88.8174 32.3431 90.6275 32.3431C93.5238 32.3431 94.972 27.2746 94.972 24.0163C94.972 22.3871 94.4289 20.7579 92.4377 20.7579C89.7225 20.9389 88.0933 25.8264 88.0933 28.9037Z" fill="white"/>
<path d="M108.729 17.4996L108.367 19.3097C109.815 17.4996 111.807 16.4135 113.979 16.4135C117.78 16.4135 119.409 19.8528 119.409 23.2922C119.409 29.8088 115.246 36.1445 109.091 36.1445C108.005 36.3255 106.738 35.6014 106.195 35.6014H106.014L104.566 42.8422H99.3164L102.937 23.6542M106.738 31.619C107.281 32.1621 108.005 32.3431 108.91 32.3431C111.807 32.3431 113.979 27.4556 113.979 24.0162C113.979 22.5681 113.436 21.1199 111.807 21.1199C109.996 21.1199 108.186 23.2922 107.643 26.5505L106.738 31.619Z" fill="white"/>
<path d="M119.771 35.6014L123.392 21.844L128.822 17.4996L125.202 35.6014H119.771ZM127.193 9.35376C128.822 9.35376 129.909 10.6209 129.909 12.2501C129.909 14.2413 128.46 15.6894 126.831 15.6894C125.383 15.6894 124.297 14.2413 124.297 12.6121" fill="white"/>
<path d="M141.674 8.44861C142.941 8.44861 144.028 8.62963 144.571 8.99166L143.484 13.1551C142.941 12.9741 142.398 12.7931 141.855 12.7931C140.045 12.7931 138.959 14.6032 138.778 16.4134L138.416 17.4995H142.036L141.312 21.1199H137.692L134.796 35.6014H129.727L132.623 21.1199H130.089L130.813 17.4995H133.347L133.528 16.4134" fill="white"/>
<path d="M148.734 17.4995L149.639 25.6453C149.82 27.4555 150.001 28.3606 150.182 30.1708C150.544 28.3606 150.906 27.8176 151.811 25.8264L155.07 17.4995H160.5L153.983 31.2569C151.63 35.9634 149.458 39.4028 146.924 41.756C145.114 43.5662 142.76 44.2902 141.674 44.6523L140.226 40.1268C141.131 39.7648 142.217 39.4028 143.303 38.6787C144.571 37.7736 145.657 36.6875 146.2 35.4203C146.381 35.2393 146.381 34.8773 146.381 34.5153L145.114 21.4819L148.734 17.4995Z" fill="white"/>
</svg>
