<svg width="23" height="23" viewBox="0 0 23 23" fill="none" xmlns="http://www.w3.org/2000/svg">
<path d="M13.5157 11.6467C13.3808 11.4821 13.2206 11.34 13.0411 11.2256C12.9226 11.151 12.7983 11.0847 12.6767 11.0205C12.1488 10.7412 11.5743 10.5617 11.0497 10.2782C10.536 10.0006 10.3804 9.21031 11.0497 8.98025C11.7968 8.72339 12.9247 9.19153 12.9247 9.19153C13.0411 9.23362 13.1683 9.23476 13.2854 9.19477C13.4025 9.15478 13.5024 9.07605 13.5687 8.97158C13.635 8.86711 13.6637 8.74315 13.65 8.62018C13.6364 8.49721 13.5812 8.38257 13.4936 8.2952C12.9371 7.73871 10.6632 7.59589 9.71386 8.55112C9.52873 8.74064 9.39195 8.97195 9.31509 9.22549C9.23824 9.47903 9.22357 9.74735 9.27232 10.0078C9.37845 10.5881 9.74759 10.9689 10.2403 11.2547C10.8542 11.6108 11.5551 11.8038 12.1524 12.1837C12.6451 12.497 12.7051 13.2351 12.1684 13.4542C11.2617 13.8243 9.99913 13.1408 9.99913 13.1408C9.90206 13.1057 9.797 13.099 9.69624 13.1214C9.59549 13.1438 9.5032 13.1945 9.43018 13.2675C9.2177 13.4799 9.22772 13.8149 9.43018 14.0369C10.0552 14.7221 12.481 14.9372 13.4881 13.9106C13.8957 13.4951 13.9777 12.8762 13.8355 12.3298C13.7678 12.0687 13.6826 11.8591 13.5157 11.6467Z" fill="black"/>
<path d="M11.5 0.230469C5.42486 0.230469 0.5 5.15533 0.5 11.2305C0.5 17.3056 5.42486 22.2305 11.5 22.2305C17.5751 22.2305 22.5 17.3056 22.5 11.2305C22.5 5.15533 17.5751 0.230469 11.5 0.230469ZM17.8021 13.9314C17.8025 14.522 17.6574 15.1036 17.3799 15.625C17.1023 16.1463 16.7007 16.5913 16.2104 16.9208C15.7202 17.2502 15.1564 17.4539 14.5688 17.5139C13.9813 17.574 13.3879 17.4885 12.8412 17.265C11.8608 17.4635 10.8467 17.4189 9.8874 17.1352C8.92815 16.8514 8.05296 16.3372 7.33825 15.6373C6.62354 14.9374 6.09106 14.0731 5.78731 13.12C5.48356 12.1669 5.41777 11.154 5.59571 10.1696C5.25525 9.50688 5.12895 8.75483 5.23425 8.01728C5.33955 7.27973 5.67124 6.59307 6.18353 6.05212C6.69583 5.51117 7.36344 5.14263 8.09417 4.99738C8.8249 4.85213 9.58271 4.93735 10.2629 5.24127C11.2921 4.99845 12.3665 5.02592 13.3819 5.32099C14.3973 5.61607 15.3191 6.16873 16.0578 6.92529C16.7965 7.68185 17.327 8.61659 17.5977 9.63873C17.8685 10.6609 17.8703 11.7357 17.603 12.7587C17.7341 13.1358 17.8014 13.5321 17.8021 13.9314Z" fill="black"/>
</svg>
