<svg width="28" height="28" viewBox="0 0 28 28" fill="none" xmlns="http://www.w3.org/2000/svg">
<path d="M17.1558 13.7842C16.7744 13.5385 16.362 13.3448 15.9294 13.2081C15.4086 13.0387 14.8795 12.8961 14.3442 12.7808C14.0123 12.7045 13.6822 12.6208 13.354 12.53C13.1538 12.474 12.9602 12.3967 12.7765 12.2996C12.6123 12.2192 12.4668 12.1055 12.3492 11.9656C12.253 11.8432 12.2025 11.6911 12.2063 11.5354C12.2063 11.2612 12.3521 11.0308 12.651 10.8296C12.9602 10.621 13.3787 10.516 13.8921 10.516C14.4482 10.516 14.8473 10.6099 15.0894 10.7975C15.3383 10.9919 15.5522 11.2651 15.731 11.6171C15.8856 11.8912 16.0242 12.0808 16.1598 12.2004C16.3056 12.3326 16.5113 12.3992 16.7767 12.4002C17.0703 12.4002 17.3158 12.2947 17.5131 12.0837C17.7005 11.8941 17.8062 11.6387 17.8077 11.3721C17.8077 11.0979 17.7304 10.8135 17.5831 10.5321C17.4088 10.2186 17.172 9.94409 16.8875 9.72562C16.5338 9.45264 16.1329 9.247 15.7048 9.11896C15.1621 8.95815 14.598 8.88142 14.0321 8.89146C13.23 8.89146 12.5227 9.00521 11.9277 9.23271C11.3254 9.46312 10.8573 9.79854 10.5365 10.2287C10.2139 10.6587 10.0427 11.1832 10.0494 11.7206C10.0494 12.304 10.2054 12.7998 10.5131 13.1965C10.815 13.5873 11.2306 13.8994 11.744 14.1254C12.2495 14.3451 12.8761 14.5376 13.6237 14.7029C14.1692 14.8196 14.6125 14.9333 14.9377 15.0383C15.2508 15.1385 15.506 15.2828 15.7033 15.4715C15.7963 15.5622 15.8689 15.6717 15.9164 15.7926C15.9639 15.9135 15.9852 16.0432 15.979 16.1729C15.979 16.5404 15.8054 16.8394 15.4496 17.0931C15.0835 17.3498 14.5979 17.4781 14.0058 17.4781C13.5732 17.4781 13.2261 17.4144 12.9646 17.2871C12.7288 17.1795 12.5227 17.0163 12.3638 16.8117C12.1987 16.5772 12.0607 16.3247 11.9525 16.0592C11.8601 15.8199 11.7162 15.6038 11.531 15.4262C11.3567 15.2749 11.1318 15.1947 10.901 15.2017C10.6234 15.1936 10.3539 15.2958 10.1515 15.486C10.0561 15.5756 9.98037 15.6838 9.92892 15.804C9.87748 15.9243 9.85145 16.0538 9.8525 16.1846C9.8525 16.6148 10.0071 17.0654 10.3119 17.5146C10.6152 17.9657 11.009 18.3254 11.4931 18.5937C12.1669 18.9612 13.0302 19.1465 14.0598 19.1465C14.9173 19.1465 15.6698 19.0094 16.2998 18.7425C16.9342 18.4712 17.4242 18.0877 17.7552 17.6065C18.0876 17.1222 18.2628 16.5473 18.2569 15.96C18.2569 15.4525 18.1592 15.015 17.9652 14.6606C17.7708 14.3069 17.4929 14.0061 17.1558 13.7842ZM14 0C6.26792 0 0 6.26792 0 14C0 21.7321 6.26792 28 14 28C21.7321 28 28 21.7321 28 14C28 6.26792 21.7321 0 14 0ZM17.3556 21.8385C16.6454 21.8385 15.976 21.6563 15.3898 21.331C14.9573 21.4149 14.5178 21.4569 14.0773 21.4565C10.1208 21.4565 6.91104 18.1519 6.91104 14.0817C6.91201 13.5712 6.96062 13.0764 7.05687 12.5971C6.68072 11.9395 6.48361 11.1948 6.48521 10.4373C6.48521 8.07625 8.34604 6.15854 10.6429 6.15854C11.4552 6.15854 12.2121 6.40062 12.8537 6.81625C13.2524 6.7443 13.6602 6.70833 14.0773 6.70833C18.0367 6.70833 21.245 10.01 21.245 14.0831C21.244 14.6256 21.1891 15.1526 21.0802 15.664C21.3558 16.2371 21.5119 16.8802 21.5119 17.5642C21.5104 19.9237 19.651 21.8385 17.3556 21.8385Z" fill="white"/>
</svg>
