<svg width="161" height="67" viewBox="0 0 161 67" fill="none" xmlns="http://www.w3.org/2000/svg">
<path d="M41.7314 5.88125L30.9048 8.18161L30.8547 43.7872C30.8547 50.3632 35.8055 54.6139 42.3815 54.6139C46.0321 54.6139 48.7075 53.9388 50.1828 53.1386V44.6873C48.7575 45.2624 41.7564 47.3127 41.7564 40.7617V24.9592H50.1828V15.5078H41.7564L41.7314 5.88125ZM64.0099 18.7833L63.3348 15.5078H53.7333V53.8137H64.81V28.0347C67.4355 24.5842 71.8612 25.2593 73.2864 25.7094V15.5078C71.7861 14.9827 66.6103 14.0075 64.0099 18.7833ZM87.0885 0.705444L75.9368 3.08082V12.1322L87.0885 9.75686V0.705444ZM11.7018 26.7845C11.7018 25.0592 13.152 24.3841 15.4773 24.3591C18.8529 24.3591 23.1535 25.3843 26.5291 27.2096V16.758C22.8535 15.3077 19.1779 14.7326 15.5023 14.7326C6.50094 14.7326 0.5 19.4334 0.5 27.2846C0.5 39.5865 17.3776 37.5862 17.3776 42.887C17.3776 44.9374 15.6024 45.6125 13.127 45.6125C9.4514 45.6125 4.70066 44.0872 0.975074 42.0619V52.0635C5.10072 53.8387 9.27637 54.5889 13.102 54.5889C22.3284 54.5889 28.6794 50.6382 28.6794 42.637C28.6794 29.4099 11.7018 31.7853 11.7018 26.7845ZM160.5 35.1108C160.5 23.734 154.999 14.7576 144.447 14.7576C133.896 14.7576 127.47 23.734 127.47 35.0358C127.47 48.4129 135.046 54.5889 145.848 54.5889C151.149 54.5889 155.124 53.3887 158.15 51.7134V43.3621C155.124 44.8873 151.649 45.8125 147.248 45.8125C142.922 45.8125 139.122 44.2873 138.622 39.0864H160.35C160.4 38.5114 160.5 36.186 160.5 35.1108ZM138.522 30.9102C138.522 25.9094 141.597 23.8091 144.372 23.8091C147.098 23.8091 149.998 25.9094 149.998 30.9102H138.522ZM110.292 14.7576C105.941 14.7576 103.141 16.808 101.591 18.2332L101.016 15.4828H91.2392V66.6908L102.341 64.3404L102.366 51.7884C103.966 52.9636 106.342 54.5889 110.217 54.5889C118.168 54.5889 125.42 48.788 125.42 34.6858C125.445 21.7837 118.093 14.7576 110.292 14.7576ZM107.642 45.3874C105.041 45.3874 103.491 44.4373 102.416 43.2871L102.341 26.7845C103.491 25.5093 105.091 24.5842 107.642 24.5842C111.692 24.5842 114.493 29.1349 114.493 34.9358C114.518 40.9117 111.767 45.3874 107.642 45.3874ZM75.9618 53.8137H87.1135V15.5078H75.9618V53.8137Z" fill="white"/>
</svg>
