<?xml version="1.0" ?><svg viewBox="0 0 256 256" xmlns="http://www.w3.org/2000/svg"><rect fill="none" height="256" width="256"/><rect fill="none" height="112" rx="8" stroke="#000" stroke-linecap="round" stroke-linejoin="round" stroke-width="16" width="120" x="32" y="72"/><path d="M152,88h32a8,8,0,0,1,8,8v72a56,56,0,0,1-56,56h0a56.1,56.1,0,0,1-53.7-40" fill="none" stroke="#000" stroke-linecap="round" stroke-linejoin="round" stroke-width="16"/><line fill="none" stroke="#000" stroke-linecap="round" stroke-linejoin="round" stroke-width="16" x1="110" x2="74" y1="104" y2="104"/><line fill="none" stroke="#000" stroke-linecap="round" stroke-linejoin="round" stroke-width="16" x1="92" x2="92" y1="152" y2="104"/><path d="M108.3,72A32,32,0,1,1,152,83.7" fill="none" stroke="#000" stroke-linecap="round" stroke-linejoin="round" stroke-width="16"/><path d="M166.1,45.2a26,26,0,1,1-3.4,28.4" fill="none" stroke="#000" stroke-linecap="round" stroke-linejoin="round" stroke-width="16"/><path d="M192,88h27.3a4.7,4.7,0,0,1,4.7,4.7V152a32,32,0,0,1-32,32h-2.3" fill="none" stroke="#000" stroke-linecap="round" stroke-linejoin="round" stroke-width="16"/></svg>