<svg width="32" height="32" viewBox="0 0 32 32" fill="none" xmlns="http://www.w3.org/2000/svg">
<circle cx="16" cy="16" r="16" fill="white"/>
<path d="M21.2496 12.9062H23.7023C23.8143 12.9062 23.9217 12.9507 24.0009 13.0299C24.0801 13.1091 24.1246 13.2165 24.1246 13.3285V18.6562C24.1246 19.4187 23.8217 20.15 23.2825 20.6892C22.7434 21.2283 22.0121 21.5312 21.2496 21.5312H21.043" stroke="black" stroke-width="1.4375" stroke-linecap="round" stroke-linejoin="round"/>
<path d="M16.9375 11.4688H7.59375C7.1968 11.4688 6.875 11.7905 6.875 12.1875V20.8125C6.875 21.2095 7.1968 21.5312 7.59375 21.5312H16.9375C17.3345 21.5312 17.6562 21.2095 17.6562 20.8125V12.1875C17.6562 11.7905 17.3345 11.4688 16.9375 11.4688Z" stroke="black" stroke-width="1.4375" stroke-linecap="round" stroke-linejoin="round"/>
<path d="M17.6566 12.9062H20.5316C20.7223 12.9062 20.9051 12.982 21.0399 13.1168C21.1747 13.2516 21.2504 13.4344 21.2504 13.625V20.0938C21.2504 21.4281 20.7203 22.7078 19.7768 23.6514C18.8332 24.5949 17.5535 25.125 16.2191 25.125C15.1355 25.1242 14.0809 24.7742 13.2119 24.1269C12.3428 23.4795 11.7055 22.5693 11.3945 21.5312" stroke="black" stroke-width="1.4375" stroke-linecap="round" stroke-linejoin="round"/>
<path d="M13.8828 14.3438H10.6484" stroke="black" stroke-width="1.4375" stroke-linecap="round" stroke-linejoin="round"/>
<path d="M12.2656 18.6562V14.3438" stroke="black" stroke-width="1.4375" stroke-linecap="round" stroke-linejoin="round"/>
<path d="M13.7297 11.4691C13.4451 10.9768 13.3129 10.4111 13.3498 9.84356C13.3868 9.27605 13.5912 8.73225 13.9372 8.28094C14.2832 7.82962 14.7554 7.49107 15.2938 7.30811C15.8323 7.12516 16.4129 7.10601 16.9623 7.25309C17.5117 7.40017 18.0051 7.70688 18.3801 8.13441C18.7551 8.56194 18.9949 9.0911 19.0691 9.65493C19.1434 10.2188 19.0487 10.792 18.7972 11.302C18.5456 11.812 18.1484 12.236 17.6559 12.5203" stroke="black" stroke-width="1.4375" stroke-linecap="round" stroke-linejoin="round"/>
<path d="M18.9227 9.06069C19.247 8.6769 19.6864 8.4079 20.1757 8.29363C20.665 8.17936 21.1781 8.22591 21.6388 8.42636C22.0996 8.62682 22.4834 8.9705 22.7333 9.40638C22.9833 9.84227 23.086 10.3471 23.0263 10.846C22.9665 11.3449 22.7475 11.8113 22.4018 12.1758C22.056 12.5404 21.6019 12.7838 21.1068 12.8698C20.6118 12.9558 20.1022 12.8799 19.6537 12.6534C19.2052 12.4269 18.8417 12.0617 18.6172 11.6123" stroke="black" stroke-width="1.4375" stroke-linecap="round" stroke-linejoin="round"/>
</svg>
