<svg width="23" height="23" viewBox="0 0 23 23" fill="none" xmlns="http://www.w3.org/2000/svg">
<path d="M11.5 0.137695C9.32441 0.137695 7.19767 0.782834 5.38873 1.99153C3.57979 3.20022 2.16989 4.91819 1.33733 6.92818C0.504766 8.93816 0.286929 11.1499 0.711367 13.2837C1.1358 15.4175 2.18345 17.3775 3.72183 18.9159C5.26021 20.4542 7.22022 21.5019 9.35401 21.9263C11.4878 22.3508 13.6995 22.1329 15.7095 21.3004C17.7195 20.4678 19.4375 19.0579 20.6462 17.249C21.8549 15.44 22.5 13.3133 22.5 11.1377C22.5 8.22031 21.3411 5.42242 19.2782 3.35952C17.2153 1.29662 14.4174 0.137695 11.5 0.137695ZM18.1854 5.95737L13.1029 19.307C13.071 19.4085 13.0151 19.5009 12.9399 19.5762C12.8646 19.6515 12.7723 19.7075 12.6708 19.7395C12.5693 19.7714 12.4615 19.7784 12.3567 19.7597C12.2519 19.7411 12.1532 19.6974 12.0689 19.6324L9.6245 16.2155L8.58783 17.2051C8.51885 17.2949 8.43005 17.3675 8.32837 17.4172C8.22669 17.467 8.11489 17.4925 8.00169 17.4919L8.21375 14.5363L8.34237 14.4232L8.33844 14.4178L15.2505 7.74896C15.4376 7.58059 15.2505 7.39351 15.0447 7.54318L7.16923 13.8286L3.79105 11.3545C3.72602 11.2702 3.68231 11.1715 3.66365 11.0667C3.64499 10.9619 3.65193 10.8541 3.68388 10.7526C3.71583 10.6511 3.77184 10.5588 3.84714 10.4835C3.92244 10.4083 4.01481 10.3524 4.11638 10.3205L17.4714 5.2434C17.5714 5.19564 17.6836 5.18004 17.7928 5.19875C17.9019 5.21746 18.0026 5.26956 18.0809 5.34788C18.1592 5.42619 18.2113 5.52686 18.23 5.63602C18.2488 5.74517 18.2331 5.85745 18.1854 5.95737Z" fill="black"/>
</svg>
