<svg width="28" height="28" viewBox="0 0 28 28" fill="none" xmlns="http://www.w3.org/2000/svg">
<path d="M14 0C11.2311 0 8.52431 0.821086 6.22202 2.35943C3.91973 3.89777 2.12532 6.08427 1.06569 8.64243C0.00606596 11.2006 -0.271181 14.0155 0.269012 16.7313C0.809205 19.447 2.14258 21.9416 4.10051 23.8995C6.05845 25.8574 8.55301 27.1908 11.2687 27.731C13.9845 28.2712 16.7994 27.9939 19.3576 26.9343C21.9157 25.8747 24.1022 24.0803 25.6406 21.778C27.1789 19.4757 28 16.7689 28 14C28 10.287 26.525 6.72601 23.8995 4.1005C21.274 1.475 17.713 0 14 0ZM22.5087 7.40686L16.04 24.3973C15.9995 24.5265 15.9283 24.6441 15.8326 24.7399C15.7368 24.8358 15.6193 24.9071 15.4901 24.9477C15.3609 24.9884 15.2238 24.9972 15.0904 24.9735C14.957 24.9498 14.8313 24.8942 14.7241 24.8114L11.613 20.4627L10.2936 21.7222C10.2058 21.8364 10.0928 21.9288 9.96338 21.9921C9.83397 22.0554 9.69168 22.088 9.54761 22.0872L9.8175 18.3254L9.9812 18.1816L9.9762 18.1747L18.7733 9.68707C19.0115 9.47278 18.7733 9.23468 18.5114 9.42517L8.48811 17.4247L4.18861 14.2759C4.10584 14.1687 4.05022 14.043 4.02647 13.9096C4.00272 13.7763 4.01155 13.6391 4.05221 13.5099C4.09287 13.3807 4.16416 13.2632 4.26 13.1674C4.35584 13.0717 4.4734 13.0005 4.60267 12.9599L21.6 6.49817C21.7272 6.43738 21.8701 6.41753 22.009 6.44134C22.1479 6.46516 22.2761 6.53147 22.3757 6.63114C22.4754 6.73081 22.5417 6.85894 22.5655 6.99786C22.5893 7.13679 22.5695 7.27969 22.5087 7.40686Z" fill="white"/>
</svg>
