<svg width="120" height="31" viewBox="0 0 120 31" fill="none" xmlns="http://www.w3.org/2000/svg">
<path d="M31.54 11.1754H43.6797V13.4354H38.9001V26.1754H36.28V13.4354H31.52L31.54 11.1754ZM43.16 15.3154H45.4001V17.4154H45.4399C45.5201 17.1154 45.6603 16.8354 45.8599 16.5554C46.0601 16.2754 46.3001 16.0154 46.6001 15.7954C46.8799 15.5554 47.2001 15.3754 47.5601 15.2354C47.8998 15.0954 48.2598 15.0154 48.6198 15.0154C48.9003 15.0154 49.0998 15.0354 49.2003 15.0354C49.3 15.0554 49.42 15.0754 49.5198 15.0754V17.3754C49.36 17.3354 49.18 17.3154 49 17.2954C48.82 17.2754 48.6603 17.2554 48.4803 17.2554C48.0798 17.2554 47.7003 17.3354 47.3403 17.4954C46.9803 17.6554 46.6796 17.8954 46.3999 18.1954C46.1397 18.5154 45.9199 18.8953 45.7601 19.3554C45.5997 19.8153 45.5201 20.3554 45.5201 20.9554V26.1154H43.12L43.16 15.3154ZM60.54 26.1754H58.1603V24.6554H58.1198C57.8198 25.2154 57.3803 25.6353 56.7999 25.9754C56.2201 26.3154 55.6201 26.4754 55.0201 26.4754C53.5997 26.4754 52.5602 26.1354 51.9198 25.4154C51.28 24.7153 50.9598 23.6354 50.9598 22.2154V15.3154H53.3597V21.9754C53.3597 22.9354 53.5397 23.6154 53.9199 23.9954C54.2799 24.3954 54.8004 24.5954 55.4597 24.5954C55.9599 24.5954 56.3799 24.5154 56.7203 24.3554C57.0601 24.1954 57.3399 23.9954 57.5401 23.7353C57.7598 23.4754 57.9001 23.1554 57.9998 22.7954C58.1003 22.4354 58.1401 22.0354 58.1401 21.6154V15.3154H60.54V26.1754ZM64.6004 22.6954C64.6799 23.3954 64.9401 23.8754 65.3999 24.1754C65.8597 24.4554 66.4199 24.5954 67.0603 24.5954C67.2801 24.5954 67.5403 24.5754 67.8201 24.5354C68.0998 24.4954 68.3803 24.4354 68.6203 24.3354C68.8798 24.2354 69.08 24.0954 69.2398 23.8954C69.4003 23.6954 69.4798 23.4554 69.4602 23.1554C69.44 22.8554 69.3403 22.5954 69.1198 22.3954C68.9 22.1954 68.6398 22.0554 68.3203 21.9154C68.0001 21.7954 67.6198 21.6954 67.1999 21.6154C66.7799 21.5354 66.3599 21.4354 65.9203 21.3354C65.4801 21.2354 65.0399 21.1154 64.6199 20.9754C64.1999 20.8354 63.8399 20.6554 63.5002 20.3954C63.1799 20.1554 62.9002 19.8554 62.7202 19.4754C62.52 19.0954 62.4202 18.6554 62.4202 18.0954C62.4202 17.4954 62.5597 17.0154 62.8597 16.6154C63.1402 16.2154 63.5197 15.8953 63.9599 15.6554C64.4001 15.4154 64.8997 15.2354 65.4397 15.1354C65.9797 15.0354 66.5001 14.9954 66.9801 14.9954C67.5403 14.9954 68.0803 15.0554 68.5798 15.1754C69.08 15.2954 69.56 15.4754 69.9598 15.7554C70.3798 16.0154 70.7202 16.3754 70.9798 16.7954C71.2602 17.2154 71.42 17.7354 71.5002 18.3354H68.9998C68.8798 17.7554 68.6203 17.3754 68.2198 17.1754C67.7998 16.9754 67.3401 16.8753 66.8001 16.8753C66.6403 16.8753 66.4199 16.8954 66.2001 16.9154C65.9601 16.9554 65.7599 16.9954 65.5401 17.0754C65.3399 17.1554 65.1599 17.2754 65.0197 17.4154C64.8801 17.5554 64.7999 17.7554 64.7999 17.9954C64.7999 18.2954 64.8997 18.5154 65.0999 18.6954C65.3001 18.8754 65.5603 19.0154 65.9001 19.1554C66.2203 19.2754 66.5999 19.3754 67.0199 19.4554C67.4398 19.5354 67.8801 19.6354 68.3203 19.7354C68.7598 19.8354 69.1798 19.9554 69.5998 20.0954C70.0198 20.2354 70.4 20.4154 70.7202 20.6754C71.0398 20.9154 71.3202 21.2154 71.5198 21.5754C71.72 21.9354 71.8197 22.3954 71.8197 22.9154C71.8197 23.5554 71.6802 24.0954 71.3802 24.5554C71.0802 24.9954 70.7 25.3754 70.2402 25.6554C69.7798 25.9354 69.2398 26.1354 68.6803 26.2754C68.0998 26.3954 67.5403 26.4754 66.9801 26.4754C66.2999 26.4754 65.6601 26.3954 65.0803 26.2354C64.4999 26.0754 63.9802 25.8354 63.5602 25.5354C63.1402 25.2154 62.7997 24.8354 62.5597 24.3554C62.3197 23.8954 62.1802 23.3354 62.16 22.6754H64.5801V22.6954H64.6004ZM72.5 15.3154H74.3201V12.0354H76.7201V15.2954H78.88V17.0754H76.7201V22.8754C76.7201 23.1354 76.7403 23.3354 76.7599 23.5354C76.7801 23.7154 76.8401 23.8754 76.9001 23.9954C76.9803 24.1154 77.1003 24.2154 77.2398 24.2754C77.4003 24.3354 77.5998 24.3754 77.8803 24.3754C78.04 24.3754 78.22 24.3754 78.3798 24.3554C78.5403 24.3354 78.7203 24.3154 78.88 24.2754V26.1354C78.6198 26.1754 78.3603 26.1954 78.1 26.2154C77.8398 26.2554 77.5998 26.2554 77.3201 26.2554C76.6803 26.2554 76.1801 26.1954 75.7999 26.0754C75.4203 25.9554 75.1203 25.7754 74.8999 25.5554C74.6801 25.3154 74.5399 25.0354 74.4604 24.6954C74.3801 24.3554 74.3397 23.9354 74.3201 23.4954V17.0954H72.5V15.2754V15.3154ZM80.56 15.3154H82.8197V16.7954H82.8602C83.1999 16.1554 83.6604 15.7154 84.2604 15.4354C84.8603 15.1554 85.5001 15.0154 86.2201 15.0154C87.0803 15.0154 87.8198 15.1554 88.4603 15.4754C89.1 15.7754 89.6198 16.1754 90.0398 16.7154C90.4598 17.2354 90.78 17.8553 90.9802 18.5554C91.1798 19.2554 91.2997 20.0154 91.2997 20.7953C91.2997 21.5354 91.2 22.2354 91.02 22.9154C90.8198 23.5954 90.54 24.2154 90.1598 24.7354C89.7802 25.2554 89.3002 25.6754 88.7003 25.9954C88.1003 26.3154 87.4201 26.4754 86.6199 26.4754C86.2801 26.4754 85.9201 26.4354 85.5796 26.3754C85.2399 26.3154 84.9001 26.2154 84.5799 26.0754C84.2604 25.9354 83.9597 25.7553 83.7001 25.5354C83.4197 25.3154 83.1999 25.0554 83.0199 24.7753H82.9802V30.1954H80.5802V15.3154H80.56ZM88.9403 20.7554C88.9403 20.2754 88.8802 19.7954 88.74 19.3354C88.62 18.8754 88.4198 18.4754 88.1603 18.1154C87.9 17.7554 87.5798 17.4754 87.2198 17.2554C86.8403 17.0354 86.4001 16.9353 85.9201 16.9353C84.9197 16.9353 84.1599 17.2754 83.6402 17.9754C83.1399 18.6754 82.8797 19.6154 82.8797 20.7754C82.8797 21.3354 82.9397 21.8353 83.0799 22.2954C83.2202 22.7553 83.4002 23.1554 83.6799 23.4954C83.9401 23.8354 84.2604 24.0954 84.6399 24.2954C85.0201 24.4954 85.4401 24.5954 85.9403 24.5954C86.4999 24.5954 86.9401 24.4754 87.3203 24.2554C87.6998 24.0354 87.9998 23.7353 88.26 23.3954C88.5 23.0354 88.68 22.6354 88.7798 22.1754C88.8803 21.6954 88.9403 21.2354 88.9403 20.7554ZM93.1597 11.1754H95.5603V13.4354H93.1597V11.1754ZM93.1597 15.3154H95.5603V26.1754H93.1597V15.3154ZM97.7 11.1754H100.1V26.1754H97.7V11.1754ZM107.42 26.4754C106.56 26.4754 105.78 26.3354 105.1 26.0354C104.42 25.7354 103.86 25.3554 103.38 24.8554C102.92 24.3554 102.56 23.7353 102.32 23.0354C102.08 22.3354 101.94 21.5554 101.94 20.7354C101.94 19.9154 102.06 19.1554 102.32 18.4554C102.56 17.7554 102.92 17.1554 103.38 16.6354C103.84 16.1354 104.42 15.7354 105.1 15.4554C105.78 15.1754 106.56 15.0154 107.42 15.0154C108.28 15.0154 109.06 15.1554 109.74 15.4554C110.42 15.7354 110.98 16.1354 111.46 16.6354C111.92 17.1354 112.28 17.7554 112.52 18.4554C112.76 19.1554 112.9 19.9154 112.9 20.7354C112.9 21.5754 112.78 22.3354 112.52 23.0354C112.26 23.7353 111.92 24.3354 111.46 24.8554C111 25.3554 110.42 25.7553 109.74 26.0354C109.06 26.3154 108.3 26.4754 107.42 26.4754ZM107.42 24.5754C107.94 24.5754 108.42 24.4554 108.8 24.2354C109.2 24.0154 109.5 23.7154 109.76 23.3554C110.02 22.9954 110.2 22.5754 110.32 22.1354C110.44 21.6754 110.5 21.2154 110.5 20.7354C110.5 20.2754 110.44 19.8153 110.32 19.3554C110.2 18.8953 110.02 18.4954 109.76 18.1354C109.5 17.7754 109.18 17.4954 108.8 17.2754C108.4 17.0554 107.94 16.9353 107.42 16.9353C106.9 16.9353 106.42 17.0554 106.04 17.2754C105.64 17.4954 105.34 17.7954 105.08 18.1354C104.82 18.4954 104.64 18.8953 104.52 19.3554C104.4 19.8153 104.34 20.2754 104.34 20.7354C104.34 21.2154 104.4 21.6754 104.52 22.1354C104.64 22.5954 104.82 22.9954 105.08 23.3554C105.34 23.7154 105.66 24.0154 106.04 24.2354C106.44 24.4754 106.9 24.5754 107.42 24.5754ZM113.62 15.3154H115.44V12.0354H117.84V15.2954H120V17.0754H117.84V22.8754C117.84 23.1354 117.86 23.3354 117.88 23.5354C117.9 23.7154 117.96 23.8754 118.02 23.9954C118.1 24.1154 118.22 24.2154 118.36 24.2754C118.52 24.3354 118.72 24.3754 119 24.3754C119.16 24.3754 119.34 24.3754 119.5 24.3554C119.66 24.3354 119.84 24.3154 120 24.2754V26.1354C119.74 26.1754 119.48 26.1954 119.22 26.2154C118.96 26.2554 118.72 26.2554 118.44 26.2554C117.8 26.2554 117.3 26.1954 116.92 26.0754C116.54 25.9554 116.24 25.7754 116.02 25.5554C115.8 25.3154 115.66 25.0354 115.58 24.6954C115.5 24.3554 115.46 23.9354 115.44 23.4954V17.0954H113.62V15.2754V15.3154Z" fill="white"/>
<path d="M28.7399 11.1755H17.76L14.38 0.735413L10.9799 11.1755L0 11.1554L8.87999 17.6154L5.47996 28.0554L14.36 21.5954L23.2399 28.0554L19.8599 17.6154L28.7399 11.1755Z" fill="#00B67A"/>
<path d="M20.6199 19.9755L19.8598 17.6154L14.3799 21.5954L20.6199 19.9755Z" fill="#005128"/>
</svg>
