<svg width="161" height="52" viewBox="0 0 161 52" fill="none" xmlns="http://www.w3.org/2000/svg">
<path d="M66.703 1.28918L55.8164 51.4336H69.0123L79.5688 1.28918H66.703Z" fill="white"/>
<path d="M47.5697 1.28917L34.0438 35.2685L28.4355 6.23762C27.7757 2.93865 25.1366 1.28917 22.4974 1.28917H0.394269L0.0644531 2.60883C4.68301 3.59853 9.63154 5.24797 12.9305 6.89745C14.9099 7.88715 15.2397 8.8768 15.8995 11.1861L26.1264 51.1037H39.9819L61.0954 0.959351H47.5697V1.28917Z" fill="white"/>
<path d="M150.168 1.28918H138.951C136.312 1.28918 134.333 2.60889 133.343 4.91817L113.879 51.4336H127.405L130.044 43.846H146.539L148.188 51.4336H160.064L150.168 1.28918ZM134.333 33.619L141.26 14.8151L145.219 33.619H134.333Z" fill="white"/>
<path d="M96.7246 15.1449C96.7246 13.4954 98.3741 11.5161 102.333 10.8563C104.312 10.5264 109.261 10.5264 115.199 13.1656L117.508 2.60888C114.539 1.61919 110.25 0.299561 105.302 0.299561C92.436 0.299561 83.5287 7.2274 83.5287 16.7944C83.5287 24.0521 90.1267 28.0108 94.7453 30.3201C99.6937 32.6294 101.343 34.2789 101.343 36.5882C101.343 39.8872 97.3844 41.5367 93.4256 41.5367C86.8277 41.5367 83.1988 39.8872 80.2297 38.2377L77.9204 49.1243C80.8895 50.4438 86.4978 51.7634 92.436 51.7634C105.962 51.7634 114.869 45.1656 114.869 34.6089C114.869 22.0728 96.3947 21.0831 96.7246 15.1449Z" fill="white"/>
</svg>
