<svg width="161" height="94" viewBox="0 0 161 94" fill="none" xmlns="http://www.w3.org/2000/svg">
<path d="M143.833 0.0314941H17.1667C12.7464 0.0314941 8.50716 1.78744 5.38155 4.91305C2.25595 8.03865 0.5 12.2779 0.5 16.6982L0.5 63.3648C0.5 67.7851 2.25595 72.0243 5.38155 75.1499C8.50716 78.2756 12.7464 80.0315 17.1667 80.0315H81.5667L102.1 92.8315C102.637 93.1781 103.261 93.3632 103.9 93.3648C104.78 93.333 105.617 92.9735 106.246 92.3569C106.875 91.7402 107.251 90.9109 107.3 90.0315C107.295 89.5638 107.191 89.1025 106.996 88.6776C106.801 88.2526 106.518 87.8735 106.167 87.5648L101.167 80.0315H143.833C146.022 80.0315 148.189 79.6004 150.211 78.7628C152.233 77.9252 154.071 76.6976 155.618 75.1499C157.166 73.6023 158.394 71.765 159.231 69.7429C160.069 67.7208 160.5 65.5535 160.5 63.3648V16.6982C160.5 14.5095 160.069 12.3422 159.231 10.3201C158.394 8.29801 157.166 6.46069 155.618 4.91305C154.071 3.3654 152.233 2.13775 150.211 1.30017C148.189 0.462589 146.022 0.0314941 143.833 0.0314941ZM73.1667 15.4315C66.5 24.1648 63.8333 49.4982 63.8333 63.3648C63.8345 63.9313 63.6912 64.4887 63.4171 64.9845C63.143 65.4802 62.747 65.8979 62.2667 66.1982C61.7863 66.4984 61.2373 66.6713 60.6716 66.7004C60.1059 66.7296 59.542 66.6141 59.0333 66.3648C50.8333 62.3648 46.5667 47.0315 42.9 31.6982C40.9 35.8315 38.3667 41.2315 36.2333 45.7648C26.7 66.6982 26.5667 66.6982 23.8333 66.6982C20.0333 66.6982 19.8333 66.6982 15.7 31.8982C15.0333 26.2982 14.4333 20.9648 13.9 17.0982C13.7851 16.2141 14.026 15.3206 14.5699 14.6142C15.1138 13.9078 15.9159 13.4464 16.8 13.3315C17.6841 13.2166 18.5776 13.4575 19.2839 14.0014C19.9903 14.5452 20.4517 15.3474 20.5667 16.2315C21.1 20.0982 21.7 25.4315 22.3667 31.0982C23.2333 38.0982 24.3 47.3648 25.2333 53.8982C26.8333 50.4982 28.7667 46.4315 30.3 42.9648C40.8333 20.0315 41.0333 20.0315 43.8333 20.0315C46.6333 20.0315 47.4333 22.1648 49.3667 30.0982C51.1167 38.7058 53.8223 47.091 57.4333 55.0982C58.1 43.0315 60.3 21.0315 67.8333 11.2982C68.3923 10.6598 69.1737 10.2587 70.0182 10.1765C70.8627 10.0943 71.7067 10.3372 72.3783 10.8558C73.0499 11.3743 73.4984 12.1295 73.6325 12.9673C73.7666 13.8051 73.5762 14.6626 73.1 15.3648L73.1667 15.4315ZM106.5 44.0315C104.033 56.7648 95.3 66.6982 86.5 66.6982C84.8173 66.6887 83.1583 66.3003 81.6464 65.5616C80.1344 64.8229 78.8083 63.7531 77.7667 62.4315C75.7864 59.5425 74.4568 56.258 73.8698 52.805C73.2827 49.3519 73.4523 45.8126 74.3667 42.4315C76.8333 29.6982 85.5667 19.7648 94.3667 19.7648C96.0494 19.7743 97.7084 20.1627 99.2203 20.9014C100.732 21.6401 102.058 22.7099 103.1 24.0315C105.08 26.9205 106.41 30.205 106.997 33.658C107.584 37.1111 107.414 40.6504 106.5 44.0315ZM146.5 44.0315C144.033 56.7648 135.3 66.6982 126.5 66.6982C124.817 66.6887 123.158 66.3003 121.646 65.5616C120.134 64.8229 118.808 63.7531 117.767 62.4315C115.786 59.5425 114.457 56.258 113.87 52.805C113.283 49.3519 113.452 45.8126 114.367 42.4315C116.833 29.6982 125.567 19.7648 134.367 19.7648C136.049 19.7743 137.708 20.1627 139.22 20.9014C140.732 21.6401 142.058 22.7099 143.1 24.0315C145.08 26.9205 146.41 30.205 146.997 33.658C147.584 37.1111 147.414 40.6504 146.5 44.0315Z" fill="white"/>
<path d="M134.365 26.6982C129.632 26.6982 122.965 33.8315 121.032 44.0315C120.379 46.4096 120.219 48.8963 120.563 51.3384C120.907 53.7806 121.747 56.1264 123.032 58.2315C123.449 58.7923 123.993 59.2473 124.618 59.56C125.243 59.8726 125.933 60.0341 126.632 60.0315C131.365 60.0315 138.032 52.8981 139.965 42.6981C140.619 40.3201 140.779 37.8334 140.435 35.3912C140.091 32.9491 139.25 30.6032 137.965 28.4982C137.548 27.9373 137.005 27.4823 136.38 27.1697C135.754 26.857 135.064 26.6955 134.365 26.6982Z" fill="white"/>
<path d="M94.3653 26.6982C89.632 26.6982 82.9653 33.8315 81.032 44.0315C80.3785 46.4096 80.2188 48.8963 80.5628 51.3384C80.9068 53.7806 81.7471 56.1264 83.032 58.2315C83.4494 58.7923 83.9925 59.2473 84.6178 59.56C85.243 59.8726 85.933 60.0341 86.632 60.0315C91.3653 60.0315 98.032 52.8981 99.9653 42.6981C100.619 40.3201 100.779 37.8334 100.435 35.3912C100.091 32.9491 99.2503 30.6032 97.9653 28.4982C97.548 27.9373 97.0048 27.4823 96.3796 27.1697C95.7543 26.857 95.0644 26.6955 94.3653 26.6982Z" fill="white"/>
</svg>
